<svg width="351" height="164" viewBox="0 0 351 164" fill="none" xmlns="http://www.w3.org/2000/svg">
<g opacity="0.7">
<path d="M8.03581 164L0.612305 164C0.656504 163.349 0.704278 162.699 0.755704 162.049L8.03581 164Z" fill="#B5B7BF"/>
<path d="M38.8912 164L30.2498 164L1.31202 156.244C1.34228 155.975 1.37316 155.706 1.4047 155.437C1.46092 154.958 1.51913 154.478 1.57928 153.999L38.8912 164Z" fill="#B5B7BF"/>
<path d="M69.7001 164L61.0614 164L2.39428 148.271C2.51202 147.531 2.63445 146.792 2.76158 146.054L69.7001 164Z" fill="#B5B7BF"/>
<path d="M285.321 164H276.682L274.336 163.371C274.238 162.569 274.13 161.768 274.012 160.968L285.321 164Z" fill="#B5B7BF"/>
<path d="M316.123 164H307.484L272.889 154.725C272.713 153.902 272.527 153.08 272.33 152.259L316.123 164Z" fill="#B5B7BF"/>
<path d="M346.924 164H338.286L270.562 145.843C270.297 144.995 270.02 144.149 269.732 143.305L346.924 164Z" fill="#B5B7BF"/>
<path d="M3.83092 140.396C3.98155 139.665 4.13683 138.934 4.29669 138.205L76.6757 157.61C76.541 158.346 76.4145 159.084 76.2962 159.824L3.83092 140.396Z" fill="#B5B7BF"/>
<path d="M6.18081 130.452C5.98839 131.173 5.80051 131.894 5.61722 132.617L77.8708 151.988C78.0467 151.264 78.2306 150.541 78.4225 149.82L6.18081 130.452Z" fill="#B5B7BF"/>
<path d="M7.75191 124.931C7.96776 124.217 8.18815 123.504 8.41311 122.793L80.7811 142.194C80.532 142.899 80.2909 143.607 80.0578 144.317L7.75191 124.931Z" fill="#B5B7BF"/>
<path d="M10.9946 115.227C10.737 115.929 10.4839 116.633 10.2352 117.339L82.8595 136.81C83.1509 136.115 83.4502 135.423 83.7574 134.734L10.9946 115.227Z" fill="#B5B7BF"/>
<path d="M13.07 109.841C13.3518 109.144 13.6381 108.449 13.9289 107.756L87.3708 127.445C87.0031 128.117 86.6433 128.793 86.2914 129.472L13.07 109.841Z" fill="#B5B7BF"/>
<path d="M17.2218 100.38C17.0963 100.645 16.9716 100.91 16.8474 101.175C16.7509 101.381 16.6549 101.587 16.5592 101.794C16.4595 102.009 16.3604 102.224 16.2617 102.439L90.3836 122.311C90.7996 121.648 91.2236 120.99 91.6558 120.336L17.2218 100.38Z" fill="#B5B7BF"/>
<path d="M19.8178 95.1344C20.168 94.4554 20.5228 93.7784 20.882 93.1036L96.6656 113.421C96.1633 114.055 95.6692 114.695 95.1835 115.34L19.8178 95.1344Z" fill="#B5B7BF"/>
<path d="M24.921 85.9285C24.5258 86.5934 24.1352 87.2608 23.7492 87.9304L100.761 108.577C101.325 107.952 101.897 107.334 102.478 106.722L24.921 85.9285Z" fill="#B5B7BF"/>
<path d="M28.8281 79.6585C29.0025 79.3916 29.1775 79.125 29.3533 78.8589L109.208 100.268C108.536 100.855 107.873 101.449 107.22 102.051L28.0695 80.8308C28.3207 80.4391 28.5736 80.0484 28.8281 79.6585Z" fill="#B5B7BF"/>
<path d="M34.1977 71.8998C33.7259 72.5437 33.2587 73.1905 32.7962 73.8402L114.71 95.8012C115.471 95.2265 116.243 94.6613 117.024 94.1057L34.1977 71.8998Z" fill="#B5B7BF"/>
<path d="M37.9512 66.9643C38.4552 66.3255 38.9639 65.6898 39.4774 65.0574L126.191 88.3053C125.811 88.5181 125.433 88.7336 125.055 88.9518C124.52 89.2604 123.99 89.5731 123.463 89.89L37.9512 66.9643Z" fill="#B5B7BF"/>
<path d="M45.2208 58.3395C44.6626 58.9597 44.1095 59.5834 43.5612 60.2106L133.868 84.4219C134.966 83.9241 136.069 83.4479 137.177 82.993L45.2208 58.3395Z" fill="#B5B7BF"/>
<path d="M49.66 53.5877C50.2562 52.973 50.8574 52.3621 51.4637 51.7551L151.045 78.4529C149.61 78.8083 148.179 79.1968 146.754 79.6186L49.66 53.5877Z" fill="#B5B7BF"/>
<path d="M58.2503 45.3165C57.5913 45.9089 56.9376 46.5057 56.2891 47.1067L164.419 76.0964C166.69 75.8549 168.962 75.6921 171.233 75.6073L58.2503 45.3165Z" fill="#B5B7BF"/>
<path d="M340.433 115.028C340.115 114.167 339.789 113.308 339.456 112.45L65.6355 39.0386C64.9182 39.6149 64.2063 40.1961 63.5 40.7821L340.433 115.028Z" fill="#B5B7BF"/>
<path d="M350.239 156.631C350.325 157.424 350.406 158.218 350.482 159.012L267.202 136.685C266.831 135.806 266.445 134.931 266.046 134.059L350.239 156.631Z" fill="#B5B7BF"/>
<path d="M349.458 150.479C349.341 149.674 349.218 148.869 349.09 148.065L261.011 124.451C261.228 124.817 261.444 125.185 261.657 125.554C261.97 126.097 262.278 126.641 262.58 127.187L349.458 150.479Z" fill="#B5B7BF"/>
<path d="M347.478 139.375C347.651 140.191 347.818 141.008 347.979 141.825L256.306 117.248C255.604 116.267 254.887 115.303 254.156 114.355L347.478 139.375Z" fill="#B5B7BF"/>
<path d="M346.011 133.039C345.802 132.209 345.587 131.379 345.366 130.551L244.419 103.487C245.483 104.512 246.528 105.564 247.551 106.642L346.011 133.039Z" fill="#B5B7BF"/>
<path d="M342.71 121.58C342.985 122.423 343.252 123.267 343.513 124.112L234.017 94.7558C232.172 93.4107 230.285 92.1329 228.362 90.9234L342.71 121.58Z" fill="#B5B7BF"/>
<path d="M335.532 103.141C335.931 104.016 336.322 104.893 336.705 105.771L71.3585 34.6316C72.1299 34.0625 72.907 33.4988 73.69 32.9407L335.532 103.141Z" fill="#B5B7BF"/>
<path d="M332.244 96.3167C331.787 95.4174 331.321 94.5205 330.846 93.626L82.5071 27.0461C81.6489 27.5834 80.797 28.127 79.9512 28.6768L332.244 96.3167Z" fill="#B5B7BF"/>
<path d="M325.277 83.8749C325.837 84.7884 326.391 85.7088 326.937 86.636L89.3889 22.9492C90.3258 22.4195 91.2653 21.8994 92.2077 21.3888L325.277 83.8749Z" fill="#B5B7BF"/>
<path d="M320.623 76.6852C319.97 75.7276 319.309 74.7783 318.639 73.8373L102.976 16.0179C101.926 16.4977 100.878 16.989 99.8337 17.4914L320.623 76.6852Z" fill="#B5B7BF"/>
<path d="M310.64 63.4356C311.45 64.412 312.252 65.3989 313.044 66.3963L111.543 12.3737C112.728 11.9064 113.916 11.4529 115.106 11.013L310.64 63.4356Z" fill="#B5B7BF"/>
<path d="M303.775 55.6526C302.789 54.5989 301.791 53.5595 300.782 52.5341L129.095 6.50462C127.709 6.88776 126.325 7.28877 124.944 7.70758L303.775 55.6526Z" fill="#B5B7BF"/>
<path d="M288.127 40.8834C289.449 41.9847 290.756 43.1072 292.048 44.2507L140.801 3.70124C142.492 3.35757 144.186 3.03959 145.881 2.74718L288.127 40.8834Z" fill="#B5B7BF"/>
<path d="M276.103 31.7177C274.189 30.3859 272.251 29.0944 270.291 27.8436L167.848 0.37851C165.525 0.481077 163.201 0.63008 160.878 0.825857L276.103 31.7177Z" fill="#B5B7BF"/>
<path d="M229.053 8.53045C235.75 10.6637 242.323 13.198 248.732 16.1227L192.379 1.01427C199.392 1.68823 206.351 2.78198 213.217 4.28494L229.053 8.53045Z" fill="#B5B7BF"/>
</g>
</svg>
