<svg width="92" height="20" viewBox="0 0 92 20" fill="none" xmlns="http://www.w3.org/2000/svg">
<path opacity="0.7" d="M39.0902 18.0907C39.0902 19.1454 38.2355 20.0001 37.1809 20.0001C36.1262 20.0001 35.2715 19.1454 35.2715 18.0907C35.2715 17.0361 36.1262 16.1813 37.1809 16.1813C38.2355 16.1813 39.0902 17.0361 39.0902 18.0907Z" fill="#B5B7BF"/>
<path opacity="0.7" d="M56.7264 18.0907C56.7264 19.1454 55.8717 20.0001 54.8171 20.0001C53.7624 20.0001 52.9077 19.1454 52.9077 18.0907C52.9077 17.0361 53.7624 16.1813 54.8171 16.1813C55.8717 16.1813 56.7264 17.0361 56.7264 18.0907Z" fill="#B5B7BF"/>
<path opacity="0.7" d="M74.3622 18.0907C74.3622 19.1454 73.5075 20.0001 72.4528 20.0001C71.3982 20.0001 70.5435 19.1454 70.5435 18.0907C70.5435 17.0361 71.3982 16.1813 72.4528 16.1813C73.5075 16.1813 74.3622 17.0361 74.3622 18.0907Z" fill="#B5B7BF"/>
<path opacity="0.7" d="M91.9979 18.0907C91.9979 19.1454 91.1432 20.0001 90.0885 20.0001C89.0339 20.0001 88.1792 19.1454 88.1792 18.0907C88.1792 17.0361 89.0339 16.1813 90.0885 16.1813C91.1432 16.1813 91.9979 17.0361 91.9979 18.0907Z" fill="#B5B7BF"/>
<path opacity="0.7" d="M39.0902 1.90944C39.0902 2.96411 38.2355 3.81883 37.1809 3.81883C36.1262 3.81883 35.2715 2.96411 35.2715 1.90944C35.2715 0.854776 36.1262 6.10352e-05 37.1809 6.10352e-05C38.2355 6.10352e-05 39.0902 0.851551 39.0902 1.90944Z" fill="#B5B7BF"/>
<path opacity="0.7" d="M56.7264 1.90944C56.7264 2.96411 55.8717 3.81883 54.8171 3.81883C53.7624 3.81883 52.9077 2.96411 52.9077 1.90944C52.9077 0.854776 53.7624 6.10352e-05 54.8171 6.10352e-05C55.8717 6.10352e-05 56.7264 0.851551 56.7264 1.90944Z" fill="#B5B7BF"/>
<path opacity="0.7" d="M74.3622 1.90944C74.3622 2.96411 73.5075 3.81883 72.4528 3.81883C71.3982 3.81883 70.5435 2.96411 70.5435 1.90944C70.5435 0.854776 71.3982 6.10352e-05 72.4528 6.10352e-05C73.5075 6.10352e-05 74.3622 0.851551 74.3622 1.90944Z" fill="#B5B7BF"/>
<path opacity="0.7" d="M91.9979 1.90944C91.9979 2.96411 91.1432 3.81883 90.0885 3.81883C89.0339 3.81883 88.1792 2.96411 88.1792 1.90944C88.1792 0.854776 89.0339 6.10352e-05 90.0885 6.10352e-05C91.1432 6.10352e-05 91.9979 0.851551 91.9979 1.90944Z" fill="#B5B7BF"/>
<path opacity="0.7" d="M3.81873 18.0907C3.81873 19.1454 2.96405 20.0001 1.90938 20.0001C0.854715 20.0001 0 19.1454 0 18.0907C0 17.0361 0.854715 16.1813 1.90938 16.1813C2.96405 16.1813 3.81873 17.0361 3.81873 18.0907Z" fill="#B5B7BF"/>
<path opacity="0.7" d="M21.4545 18.0907C21.4545 19.1454 20.5998 20.0001 19.5451 20.0001C18.4904 20.0001 17.6357 19.1454 17.6357 18.0907C17.6357 17.0361 18.4904 16.1813 19.5451 16.1813C20.5998 16.1813 21.4545 17.0361 21.4545 18.0907Z" fill="#B5B7BF"/>
<path opacity="0.7" d="M3.81873 1.90938C3.81873 2.96405 2.96405 3.81877 1.90938 3.81877C0.854715 3.81877 0 2.96405 0 1.90938C0 0.854715 0.854715 0 1.90938 0C2.96405 0 3.81873 0.85149 3.81873 1.90938Z" fill="#B5B7BF"/>
<path opacity="0.7" d="M21.4545 1.90944C21.4545 2.96411 20.5998 3.81883 19.5451 3.81883C18.4904 3.81883 17.6357 2.96411 17.6357 1.90944C17.6357 0.854776 18.4904 6.10352e-05 19.5451 6.10352e-05C20.5998 6.10352e-05 21.4545 0.851551 21.4545 1.90944Z" fill="#B5B7BF"/>
</svg>
