<svg width="174" height="106" viewBox="0 0 174 106" fill="none" xmlns="http://www.w3.org/2000/svg">
<path opacity="0.7" d="M108.16 62.6648C108.16 63.9738 107.099 65.0352 105.787 65.0352C104.475 65.0352 103.414 63.9738 103.414 62.6648C103.414 61.3528 104.475 60.2914 105.787 60.2914C107.099 60.2914 108.16 61.3528 108.16 62.6648Z" fill="#B5B7BF"/>
<path opacity="0.7" d="M130.062 62.6648C130.062 63.9738 129.001 65.0352 127.689 65.0352C126.38 65.0352 125.315 63.9738 125.315 62.6648C125.315 61.3528 126.377 60.2914 127.689 60.2914C128.998 60.2914 130.062 61.3528 130.062 62.6648Z" fill="#B5B7BF"/>
<path opacity="0.7" d="M151.965 62.6648C151.965 63.9738 150.903 65.0352 149.591 65.0352C148.282 65.0352 147.218 63.9738 147.218 62.6648C147.218 61.3528 148.279 60.2914 149.591 60.2914C150.9 60.2914 151.965 61.3528 151.965 62.6648Z" fill="#B5B7BF"/>
<path opacity="0.7" d="M173.867 62.6648C173.867 63.9738 172.806 65.0352 171.494 65.0352C170.185 65.0352 169.12 63.9738 169.12 62.6648C169.12 61.3528 170.182 60.2914 171.494 60.2914C172.802 60.2914 173.867 61.3528 173.867 62.6648Z" fill="#B5B7BF"/>
<path opacity="0.7" d="M108.16 42.5667C108.16 43.8757 107.099 44.9371 105.787 44.9371C104.475 44.9371 103.414 43.8757 103.414 42.5667C103.414 41.2547 104.475 40.1933 105.787 40.1933C107.099 40.1933 108.16 41.2547 108.16 42.5667Z" fill="#B5B7BF"/>
<path opacity="0.7" d="M130.062 42.5667C130.062 43.8757 129.001 44.9371 127.689 44.9371C126.38 44.9371 125.315 43.8757 125.315 42.5667C125.315 41.2547 126.377 40.1933 127.689 40.1933C128.998 40.1933 130.062 41.2547 130.062 42.5667Z" fill="#B5B7BF"/>
<path opacity="0.7" d="M151.965 42.5667C151.965 43.8757 150.903 44.9371 149.591 44.9371C148.282 44.9371 147.218 43.8757 147.218 42.5667C147.218 41.2547 148.279 40.1933 149.591 40.1933C150.9 40.1933 151.965 41.2547 151.965 42.5667Z" fill="#B5B7BF"/>
<path opacity="0.7" d="M173.867 42.5667C173.867 43.8757 172.806 44.9371 171.494 44.9371C170.185 44.9371 169.12 43.8757 169.12 42.5667C169.12 41.2547 170.182 40.1933 171.494 40.1933C172.802 40.1933 173.867 41.2547 173.867 42.5667Z" fill="#B5B7BF"/>
<path opacity="0.7" d="M108.16 22.4685C108.16 23.7774 107.099 24.8419 105.787 24.8419C104.475 24.8419 103.414 23.7774 103.414 22.4685C103.414 21.1565 104.475 20.0951 105.787 20.0951C107.099 20.0951 108.16 21.1596 108.16 22.4685Z" fill="#B5B7BF"/>
<path opacity="0.7" d="M130.062 22.4685C130.062 23.7774 129.001 24.8419 127.689 24.8419C126.38 24.8419 125.315 23.7774 125.315 22.4685C125.315 21.1565 126.377 20.0951 127.689 20.0951C128.998 20.0951 130.062 21.1596 130.062 22.4685Z" fill="#B5B7BF"/>
<path opacity="0.7" d="M151.965 22.4685C151.965 23.7774 150.903 24.8419 149.591 24.8419C148.282 24.8419 147.218 23.7774 147.218 22.4685C147.218 21.1565 148.279 20.0951 149.591 20.0951C150.9 20.0951 151.965 21.1596 151.965 22.4685Z" fill="#B5B7BF"/>
<path opacity="0.7" d="M173.867 22.4685C173.867 23.7774 172.806 24.8419 171.494 24.8419C170.185 24.8419 169.12 23.7774 169.12 22.4685C169.12 21.1565 170.182 20.0951 171.494 20.0951C172.802 20.0951 173.867 21.1596 173.867 22.4685Z" fill="#B5B7BF"/>
<path opacity="0.7" d="M108.16 2.37344C108.16 3.68237 107.099 4.74683 105.787 4.74683C104.475 4.74683 103.414 3.68547 103.414 2.37344C103.414 1.0645 104.475 -2.57492e-05 105.787 -2.57492e-05C107.099 -2.57492e-05 108.16 1.06141 108.16 2.37344Z" fill="#B5B7BF"/>
<path opacity="0.7" d="M130.062 2.37344C130.062 3.68237 129.001 4.74683 127.689 4.74683C126.38 4.74683 125.315 3.68547 125.315 2.37344C125.315 1.0645 126.377 -2.57492e-05 127.689 -2.57492e-05C128.998 -2.57492e-05 130.062 1.06141 130.062 2.37344Z" fill="#B5B7BF"/>
<path opacity="0.7" d="M151.965 2.37344C151.965 3.68237 150.903 4.74683 149.591 4.74683C148.282 4.74683 147.218 3.68547 147.218 2.37344C147.218 1.0645 148.279 -2.57492e-05 149.591 -2.57492e-05C150.9 -2.57492e-05 151.965 1.06141 151.965 2.37344Z" fill="#B5B7BF"/>
<path opacity="0.7" d="M173.867 2.37344C173.867 3.68237 172.806 4.74683 171.494 4.74683C170.185 4.74683 169.12 3.68547 169.12 2.37344C169.12 1.0645 170.182 -2.57492e-05 171.494 -2.57492e-05C172.802 -2.57492e-05 173.867 1.06141 173.867 2.37344Z" fill="#B5B7BF"/>
<path opacity="0.7" d="M42.4534 62.6648C42.4534 63.9738 41.392 65.0352 40.08 65.0352C38.7679 65.0352 37.7065 63.9738 37.7065 62.6648C37.7065 61.3528 38.7679 60.2914 40.08 60.2914C41.392 60.2914 42.4534 61.3528 42.4534 62.6648Z" fill="#B5B7BF"/>
<path opacity="0.7" d="M64.3557 62.6648C64.3557 63.9738 63.2943 65.0352 61.9823 65.0352C60.6734 65.0352 59.6089 63.9738 59.6089 62.6648C59.6089 61.3528 60.6703 60.2914 61.9823 60.2914C63.2943 60.2914 64.3557 61.3528 64.3557 62.6648Z" fill="#B5B7BF"/>
<path opacity="0.7" d="M86.258 62.6648C86.258 63.9738 85.1967 65.0352 83.8847 65.0352C82.5726 65.0352 81.5112 63.9738 81.5112 62.6648C81.5112 61.3528 82.5726 60.2914 83.8847 60.2914C85.1967 60.2914 86.258 61.3528 86.258 62.6648Z" fill="#B5B7BF"/>
<path opacity="0.7" d="M42.4534 42.5667C42.4534 43.8757 41.392 44.9371 40.08 44.9371C38.7679 44.9371 37.7065 43.8757 37.7065 42.5667C37.7065 41.2547 38.7679 40.1933 40.08 40.1933C41.392 40.1933 42.4534 41.2547 42.4534 42.5667Z" fill="#B5B7BF"/>
<path opacity="0.7" d="M64.3557 42.5667C64.3557 43.8757 63.2943 44.9371 61.9823 44.9371C60.6734 44.9371 59.6089 43.8757 59.6089 42.5667C59.6089 41.2547 60.6703 40.1933 61.9823 40.1933C63.2943 40.1933 64.3557 41.2547 64.3557 42.5667Z" fill="#B5B7BF"/>
<path opacity="0.7" d="M86.258 42.5667C86.258 43.8757 85.1967 44.9371 83.8847 44.9371C82.5726 44.9371 81.5112 43.8757 81.5112 42.5667C81.5112 41.2547 82.5726 40.1933 83.8847 40.1933C85.1967 40.1933 86.258 41.2547 86.258 42.5667Z" fill="#B5B7BF"/>
<path opacity="0.7" d="M42.4534 22.4685C42.4534 23.7774 41.392 24.8419 40.08 24.8419C38.7679 24.8419 37.7065 23.7805 37.7065 22.4685C37.7065 21.1565 38.7679 20.0951 40.08 20.0951C41.392 20.0951 42.4534 21.1596 42.4534 22.4685Z" fill="#B5B7BF"/>
<path opacity="0.7" d="M108.16 102.843C108.16 104.152 107.099 105.216 105.787 105.216C104.475 105.216 103.414 104.155 103.414 102.843C103.414 101.531 104.478 100.469 105.787 100.469C107.096 100.469 108.16 101.531 108.16 102.843Z" fill="#B5B7BF"/>
<path opacity="0.7" d="M130.062 102.843C130.062 104.152 129.001 105.216 127.689 105.216C126.38 105.216 125.315 104.155 125.315 102.843C125.315 101.531 126.377 100.469 127.689 100.469C128.998 100.469 130.062 101.531 130.062 102.843Z" fill="#B5B7BF"/>
<path opacity="0.7" d="M151.965 102.843C151.965 104.152 150.903 105.216 149.591 105.216C148.282 105.216 147.218 104.155 147.218 102.843C147.218 101.531 148.279 100.469 149.591 100.469C150.9 100.469 151.965 101.531 151.965 102.843Z" fill="#B5B7BF"/>
<path opacity="0.7" d="M173.867 102.843C173.867 104.152 172.806 105.216 171.494 105.216C170.185 105.216 169.12 104.155 169.12 102.843C169.12 101.531 170.182 100.469 171.494 100.469C172.802 100.469 173.867 101.531 173.867 102.843Z" fill="#B5B7BF"/>
<path opacity="0.7" d="M108.16 82.7446C108.16 84.0535 107.099 85.1149 105.787 85.1149C104.475 85.1149 103.414 84.0535 103.414 82.7446C103.414 81.4325 104.475 80.3712 105.787 80.3712C107.099 80.3712 108.16 81.4325 108.16 82.7446Z" fill="#B5B7BF"/>
<path opacity="0.7" d="M130.062 82.7446C130.062 84.0535 129.001 85.1149 127.689 85.1149C126.38 85.1149 125.315 84.0535 125.315 82.7446C125.315 81.4325 126.377 80.3712 127.689 80.3712C128.998 80.3712 130.062 81.4325 130.062 82.7446Z" fill="#B5B7BF"/>
<path opacity="0.7" d="M151.965 82.7446C151.965 84.0535 150.903 85.1149 149.591 85.1149C148.282 85.1149 147.218 84.0535 147.218 82.7446C147.218 81.4325 148.279 80.3712 149.591 80.3712C150.9 80.3712 151.965 81.4325 151.965 82.7446Z" fill="#B5B7BF"/>
<path opacity="0.7" d="M173.867 82.7446C173.867 84.0535 172.806 85.1149 171.494 85.1149C170.185 85.1149 169.12 84.0535 169.12 82.7446C169.12 81.4325 170.182 80.3712 171.494 80.3712C172.802 80.3712 173.867 81.4325 173.867 82.7446Z" fill="#B5B7BF"/>
<path opacity="0.7" d="M42.4534 102.843C42.4534 104.152 41.392 105.213 40.08 105.213C38.7679 105.213 37.7065 104.152 37.7065 102.843C37.7065 101.531 38.7679 100.469 40.08 100.469C41.392 100.469 42.4534 101.531 42.4534 102.843Z" fill="#B5B7BF"/>
<path opacity="0.7" d="M64.3557 102.843C64.3557 104.152 63.2943 105.213 61.9823 105.213C60.6734 105.213 59.6089 104.152 59.6089 102.843C59.6089 101.531 60.6703 100.469 61.9823 100.469C63.2943 100.469 64.3557 101.531 64.3557 102.843Z" fill="#B5B7BF"/>
<path opacity="0.7" d="M86.258 102.843C86.258 104.152 85.1967 105.213 83.8847 105.213C82.5726 105.213 81.5112 104.152 81.5112 102.843C81.5112 101.531 82.5726 100.469 83.8847 100.469C85.1967 100.469 86.258 101.531 86.258 102.843Z" fill="#B5B7BF"/>
<path opacity="0.7" d="M42.4534 82.7446C42.4534 84.0535 41.392 85.1149 40.08 85.1149C38.7679 85.1149 37.7065 84.0535 37.7065 82.7446C37.7065 81.4325 38.7679 80.3712 40.08 80.3712C41.392 80.3712 42.4534 81.4325 42.4534 82.7446Z" fill="#B5B7BF"/>
<path opacity="0.7" d="M64.3557 82.7446C64.3557 84.0535 63.2943 85.1149 61.9823 85.1149C60.6734 85.1149 59.6089 84.0535 59.6089 82.7446C59.6089 81.4325 60.6703 80.3712 61.9823 80.3712C63.2943 80.3712 64.3557 81.4325 64.3557 82.7446Z" fill="#B5B7BF"/>
<path opacity="0.7" d="M86.258 82.7446C86.258 84.0535 85.1967 85.1149 83.8847 85.1149C82.5726 85.1149 81.5112 84.0535 81.5112 82.7446C81.5112 81.4325 82.5726 80.3712 83.8847 80.3712C85.1967 80.3712 86.258 81.4325 86.258 82.7446Z" fill="#B5B7BF"/>
<path opacity="0.7" d="M64.3557 22.4685C64.3557 23.7774 63.2943 24.8419 61.9823 24.8419C60.6703 24.8419 59.6089 23.7805 59.6089 22.4685C59.6089 21.1565 60.6703 20.0951 61.9823 20.0951C63.2943 20.0951 64.3557 21.1596 64.3557 22.4685Z" fill="#B5B7BF"/>
<path opacity="0.7" d="M86.258 22.4685C86.258 23.7774 85.1967 24.8419 83.8847 24.8419C82.5726 24.8419 81.5112 23.7774 81.5112 22.4685C81.5112 21.1565 82.5726 20.0951 83.8847 20.0951C85.1967 20.0951 86.258 21.1596 86.258 22.4685Z" fill="#B5B7BF"/>
<path opacity="0.7" d="M42.4534 2.37344C42.4534 3.68237 41.392 4.74683 40.08 4.74683C38.7679 4.74683 37.7065 3.68547 37.7065 2.37344C37.7065 1.0645 38.7679 -2.57492e-05 40.08 -2.57492e-05C41.392 -2.57492e-05 42.4534 1.06141 42.4534 2.37344Z" fill="#B5B7BF"/>
<path opacity="0.7" d="M64.3557 2.37344C64.3557 3.68237 63.2943 4.74683 61.9823 4.74683C60.6703 4.74683 59.6089 3.68547 59.6089 2.37344C59.6089 1.0645 60.6703 -2.57492e-05 61.9823 -2.57492e-05C63.2943 -2.57492e-05 64.3557 1.06141 64.3557 2.37344Z" fill="#B5B7BF"/>
<path opacity="0.7" d="M86.258 2.37344C86.258 3.68237 85.1967 4.74683 83.8847 4.74683C82.5726 4.74683 81.5112 3.68547 81.5112 2.37344C81.5112 1.0645 82.5726 -2.57492e-05 83.8847 -2.57492e-05C85.1967 -2.57492e-05 86.258 1.06141 86.258 2.37344Z" fill="#B5B7BF"/>
<path opacity="0.7" d="M20.5515 62.6648C20.5515 63.9738 19.4901 65.0352 18.1781 65.0352C16.866 65.0352 15.8047 63.9738 15.8047 62.6648C15.8047 61.3528 16.866 60.2914 18.1781 60.2914C19.4901 60.2914 20.5515 61.3528 20.5515 62.6648Z" fill="#B5B7BF"/>
<path opacity="0.7" d="M20.5515 42.5667C20.5515 43.8757 19.4901 44.9371 18.1781 44.9371C16.866 44.9371 15.8047 43.8757 15.8047 42.5667C15.8047 41.2547 16.866 40.1933 18.1781 40.1933C19.4901 40.1933 20.5515 41.2547 20.5515 42.5667Z" fill="#B5B7BF"/>
<path opacity="0.7" d="M20.5515 102.843C20.5515 104.152 19.4901 105.213 18.1781 105.213C16.866 105.213 15.8047 104.152 15.8047 102.843C15.8047 101.531 16.866 100.469 18.1781 100.469C19.4901 100.469 20.5515 101.531 20.5515 102.843Z" fill="#B5B7BF"/>
<path opacity="0.7" d="M20.5515 82.7446C20.5515 84.0535 19.4901 85.1149 18.1781 85.1149C16.866 85.1149 15.8047 84.0535 15.8047 82.7446C15.8047 81.4325 16.866 80.3712 18.1781 80.3712C19.4901 80.3712 20.5515 81.4325 20.5515 82.7446Z" fill="#B5B7BF"/>
<path opacity="0.7" d="M20.5515 22.4685C20.5515 23.7774 19.4901 24.8419 18.1781 24.8419C16.866 24.8419 15.8047 23.7805 15.8047 22.4685C15.8047 21.1565 16.866 20.0951 18.1781 20.0951C19.4901 20.0951 20.5515 21.1596 20.5515 22.4685Z" fill="#B5B7BF"/>
<path opacity="0.7" d="M20.5515 2.37344C20.5515 3.68237 19.4901 4.74683 18.1781 4.74683C16.866 4.74683 15.8047 3.68547 15.8047 2.37344C15.8047 1.06141 16.866 -2.57492e-05 18.1781 -2.57492e-05C19.4901 -2.57492e-05 20.5515 1.06141 20.5515 2.37344Z" fill="#B5B7BF"/>
</svg>
