<svg width="167" height="106" viewBox="0 0 167 106" fill="none" xmlns="http://www.w3.org/2000/svg">
<path opacity="0.7" d="M101.16 62.6639C101.16 63.9729 100.099 65.0343 98.7867 65.0343C97.4747 65.0343 96.4133 63.9729 96.4133 62.6639C96.4133 61.3519 97.4747 60.2905 98.7867 60.2905C100.099 60.2905 101.16 61.3519 101.16 62.6639Z" fill="#B5B7BF"/>
<path opacity="0.7" d="M123.062 62.6639C123.062 63.9729 122.001 65.0343 120.689 65.0343C119.38 65.0343 118.316 63.9729 118.316 62.6639C118.316 61.3519 119.377 60.2905 120.689 60.2905C121.998 60.2905 123.062 61.3519 123.062 62.6639Z" fill="#B5B7BF"/>
<path opacity="0.7" d="M144.965 62.6639C144.965 63.9729 143.903 65.0343 142.591 65.0343C141.282 65.0343 140.218 63.9729 140.218 62.6639C140.218 61.3519 141.279 60.2905 142.591 60.2905C143.9 60.2905 144.965 61.3519 144.965 62.6639Z" fill="#B5B7BF"/>
<path opacity="0.7" d="M166.867 62.6639C166.867 63.9729 165.806 65.0343 164.494 65.0343C163.185 65.0343 162.12 63.9729 162.12 62.6639C162.12 61.3519 163.182 60.2905 164.494 60.2905C165.802 60.2905 166.867 61.3519 166.867 62.6639Z" fill="#B5B7BF"/>
<path opacity="0.7" d="M101.16 42.5659C101.16 43.8748 100.099 44.9363 98.7867 44.9363C97.4747 44.9363 96.4133 43.8748 96.4133 42.5659C96.4133 41.2539 97.4747 40.1925 98.7867 40.1925C100.099 40.1925 101.16 41.2539 101.16 42.5659Z" fill="#B5B7BF"/>
<path opacity="0.7" d="M123.062 42.5659C123.062 43.8748 122.001 44.9363 120.689 44.9363C119.38 44.9363 118.316 43.8748 118.316 42.5659C118.316 41.2539 119.377 40.1925 120.689 40.1925C121.998 40.1925 123.062 41.2539 123.062 42.5659Z" fill="#B5B7BF"/>
<path opacity="0.7" d="M144.965 42.5659C144.965 43.8748 143.903 44.9363 142.591 44.9363C141.282 44.9363 140.218 43.8748 140.218 42.5659C140.218 41.2539 141.279 40.1925 142.591 40.1925C143.9 40.1925 144.965 41.2539 144.965 42.5659Z" fill="#B5B7BF"/>
<path opacity="0.7" d="M166.867 42.5659C166.867 43.8748 165.806 44.9363 164.494 44.9363C163.185 44.9363 162.12 43.8748 162.12 42.5659C162.12 41.2539 163.182 40.1925 164.494 40.1925C165.802 40.1925 166.867 41.2539 166.867 42.5659Z" fill="#B5B7BF"/>
<path opacity="0.7" d="M101.16 22.4677C101.16 23.7766 100.099 24.8411 98.7867 24.8411C97.4747 24.8411 96.4133 23.7766 96.4133 22.4677C96.4133 21.1556 97.4747 20.0943 98.7867 20.0943C100.099 20.0943 101.16 21.1587 101.16 22.4677Z" fill="#B5B7BF"/>
<path opacity="0.7" d="M123.062 22.4677C123.062 23.7766 122.001 24.8411 120.689 24.8411C119.38 24.8411 118.316 23.7766 118.316 22.4677C118.316 21.1556 119.377 20.0943 120.689 20.0943C121.998 20.0943 123.062 21.1587 123.062 22.4677Z" fill="#B5B7BF"/>
<path opacity="0.7" d="M144.965 22.4677C144.965 23.7766 143.903 24.8411 142.591 24.8411C141.282 24.8411 140.218 23.7766 140.218 22.4677C140.218 21.1556 141.279 20.0943 142.591 20.0943C143.9 20.0943 144.965 21.1587 144.965 22.4677Z" fill="#B5B7BF"/>
<path opacity="0.7" d="M166.867 22.4677C166.867 23.7766 165.806 24.8411 164.494 24.8411C163.185 24.8411 162.12 23.7766 162.12 22.4677C162.12 21.1556 163.182 20.0943 164.494 20.0943C165.802 20.0943 166.867 21.1587 166.867 22.4677Z" fill="#B5B7BF"/>
<path opacity="0.7" d="M101.16 2.37258C101.16 3.68152 100.099 4.74597 98.7867 4.74597C97.4747 4.74597 96.4133 3.68461 96.4133 2.37258C96.4133 1.06365 97.4747 -0.000880241 98.7867 -0.000880241C100.099 -0.000880241 101.16 1.06055 101.16 2.37258Z" fill="#B5B7BF"/>
<path opacity="0.7" d="M123.062 2.37258C123.062 3.68152 122.001 4.74597 120.689 4.74597C119.38 4.74597 118.316 3.68461 118.316 2.37258C118.316 1.06365 119.377 -0.000880241 120.689 -0.000880241C121.998 -0.000880241 123.062 1.06055 123.062 2.37258Z" fill="#B5B7BF"/>
<path opacity="0.7" d="M144.965 2.37258C144.965 3.68152 143.903 4.74597 142.591 4.74597C141.282 4.74597 140.218 3.68461 140.218 2.37258C140.218 1.06365 141.279 -0.000880241 142.591 -0.000880241C143.9 -0.000880241 144.965 1.06055 144.965 2.37258Z" fill="#B5B7BF"/>
<path opacity="0.7" d="M166.867 2.37258C166.867 3.68152 165.806 4.74597 164.494 4.74597C163.185 4.74597 162.12 3.68461 162.12 2.37258C162.12 1.06365 163.182 -0.000880241 164.494 -0.000880241C165.802 -0.000880241 166.867 1.06055 166.867 2.37258Z" fill="#B5B7BF"/>
<path opacity="0.7" d="M35.4534 62.6639C35.4534 63.9729 34.392 65.0343 33.08 65.0343C31.7679 65.0343 30.7065 63.9729 30.7065 62.6639C30.7065 61.3519 31.7679 60.2905 33.08 60.2905C34.392 60.2905 35.4534 61.3519 35.4534 62.6639Z" fill="#B5B7BF"/>
<path opacity="0.7" d="M57.3557 62.6639C57.3557 63.9729 56.2943 65.0343 54.9823 65.0343C53.6734 65.0343 52.6089 63.9729 52.6089 62.6639C52.6089 61.3519 53.6703 60.2905 54.9823 60.2905C56.2943 60.2905 57.3557 61.3519 57.3557 62.6639Z" fill="#B5B7BF"/>
<path opacity="0.7" d="M79.258 62.6639C79.258 63.9729 78.1967 65.0343 76.8847 65.0343C75.5726 65.0343 74.5112 63.9729 74.5112 62.6639C74.5112 61.3519 75.5726 60.2905 76.8847 60.2905C78.1967 60.2905 79.258 61.3519 79.258 62.6639Z" fill="#B5B7BF"/>
<path opacity="0.7" d="M35.4534 42.5659C35.4534 43.8748 34.392 44.9363 33.08 44.9363C31.7679 44.9363 30.7065 43.8748 30.7065 42.5659C30.7065 41.2539 31.7679 40.1925 33.08 40.1925C34.392 40.1925 35.4534 41.2539 35.4534 42.5659Z" fill="#B5B7BF"/>
<path opacity="0.7" d="M57.3557 42.5659C57.3557 43.8748 56.2943 44.9363 54.9823 44.9363C53.6734 44.9363 52.6089 43.8748 52.6089 42.5659C52.6089 41.2539 53.6703 40.1925 54.9823 40.1925C56.2943 40.1925 57.3557 41.2539 57.3557 42.5659Z" fill="#B5B7BF"/>
<path opacity="0.7" d="M79.258 42.5659C79.258 43.8748 78.1967 44.9363 76.8847 44.9363C75.5726 44.9363 74.5112 43.8748 74.5112 42.5659C74.5112 41.2539 75.5726 40.1925 76.8847 40.1925C78.1967 40.1925 79.258 41.2539 79.258 42.5659Z" fill="#B5B7BF"/>
<path opacity="0.7" d="M35.4534 22.4677C35.4534 23.7766 34.392 24.8411 33.08 24.8411C31.7679 24.8411 30.7065 23.7797 30.7065 22.4677C30.7065 21.1556 31.7679 20.0943 33.08 20.0943C34.392 20.0943 35.4534 21.1587 35.4534 22.4677Z" fill="#B5B7BF"/>
<path opacity="0.7" d="M101.16 102.842C101.16 104.151 100.099 105.215 98.7867 105.215C97.4747 105.215 96.4133 104.154 96.4133 102.842C96.4133 101.53 97.4778 100.468 98.7867 100.468C100.096 100.468 101.16 101.53 101.16 102.842Z" fill="#B5B7BF"/>
<path opacity="0.7" d="M123.062 102.842C123.062 104.151 122.001 105.215 120.689 105.215C119.38 105.215 118.316 104.154 118.316 102.842C118.316 101.53 119.377 100.468 120.689 100.468C121.998 100.468 123.062 101.53 123.062 102.842Z" fill="#B5B7BF"/>
<path opacity="0.7" d="M144.965 102.842C144.965 104.151 143.903 105.215 142.591 105.215C141.282 105.215 140.218 104.154 140.218 102.842C140.218 101.53 141.279 100.468 142.591 100.468C143.9 100.468 144.965 101.53 144.965 102.842Z" fill="#B5B7BF"/>
<path opacity="0.7" d="M166.867 102.842C166.867 104.151 165.806 105.215 164.494 105.215C163.185 105.215 162.12 104.154 162.12 102.842C162.12 101.53 163.182 100.468 164.494 100.468C165.802 100.468 166.867 101.53 166.867 102.842Z" fill="#B5B7BF"/>
<path opacity="0.7" d="M101.16 82.7437C101.16 84.0527 100.099 85.114 98.7867 85.114C97.4747 85.114 96.4133 84.0527 96.4133 82.7437C96.4133 81.4317 97.4747 80.3703 98.7867 80.3703C100.099 80.3703 101.16 81.4317 101.16 82.7437Z" fill="#B5B7BF"/>
<path opacity="0.7" d="M123.062 82.7437C123.062 84.0527 122.001 85.114 120.689 85.114C119.38 85.114 118.316 84.0527 118.316 82.7437C118.316 81.4317 119.377 80.3703 120.689 80.3703C121.998 80.3703 123.062 81.4317 123.062 82.7437Z" fill="#B5B7BF"/>
<path opacity="0.7" d="M144.965 82.7437C144.965 84.0527 143.903 85.114 142.591 85.114C141.282 85.114 140.218 84.0527 140.218 82.7437C140.218 81.4317 141.279 80.3703 142.591 80.3703C143.9 80.3703 144.965 81.4317 144.965 82.7437Z" fill="#B5B7BF"/>
<path opacity="0.7" d="M166.867 82.7437C166.867 84.0527 165.806 85.114 164.494 85.114C163.185 85.114 162.12 84.0527 162.12 82.7437C162.12 81.4317 163.182 80.3703 164.494 80.3703C165.802 80.3703 166.867 81.4317 166.867 82.7437Z" fill="#B5B7BF"/>
<path opacity="0.7" d="M35.4534 102.842C35.4534 104.151 34.392 105.212 33.08 105.212C31.7679 105.212 30.7065 104.151 30.7065 102.842C30.7065 101.53 31.7679 100.468 33.08 100.468C34.392 100.468 35.4534 101.53 35.4534 102.842Z" fill="#B5B7BF"/>
<path opacity="0.7" d="M57.3557 102.842C57.3557 104.151 56.2943 105.212 54.9823 105.212C53.6734 105.212 52.6089 104.151 52.6089 102.842C52.6089 101.53 53.6703 100.468 54.9823 100.468C56.2943 100.468 57.3557 101.53 57.3557 102.842Z" fill="#B5B7BF"/>
<path opacity="0.7" d="M79.258 102.842C79.258 104.151 78.1967 105.212 76.8847 105.212C75.5726 105.212 74.5112 104.151 74.5112 102.842C74.5112 101.53 75.5726 100.468 76.8847 100.468C78.1967 100.468 79.258 101.53 79.258 102.842Z" fill="#B5B7BF"/>
<path opacity="0.7" d="M35.4534 82.7437C35.4534 84.0527 34.392 85.114 33.08 85.114C31.7679 85.114 30.7065 84.0527 30.7065 82.7437C30.7065 81.4317 31.7679 80.3703 33.08 80.3703C34.392 80.3703 35.4534 81.4317 35.4534 82.7437Z" fill="#B5B7BF"/>
<path opacity="0.7" d="M57.3557 82.7437C57.3557 84.0527 56.2943 85.114 54.9823 85.114C53.6734 85.114 52.6089 84.0527 52.6089 82.7437C52.6089 81.4317 53.6703 80.3703 54.9823 80.3703C56.2943 80.3703 57.3557 81.4317 57.3557 82.7437Z" fill="#B5B7BF"/>
<path opacity="0.7" d="M79.258 82.7437C79.258 84.0527 78.1967 85.114 76.8847 85.114C75.5726 85.114 74.5112 84.0527 74.5112 82.7437C74.5112 81.4317 75.5726 80.3703 76.8847 80.3703C78.1967 80.3703 79.258 81.4317 79.258 82.7437Z" fill="#B5B7BF"/>
<path opacity="0.7" d="M57.3557 22.4677C57.3557 23.7766 56.2943 24.8411 54.9823 24.8411C53.6703 24.8411 52.6089 23.7797 52.6089 22.4677C52.6089 21.1556 53.6703 20.0943 54.9823 20.0943C56.2943 20.0943 57.3557 21.1587 57.3557 22.4677Z" fill="#B5B7BF"/>
<path opacity="0.7" d="M79.258 22.4677C79.258 23.7766 78.1967 24.8411 76.8847 24.8411C75.5726 24.8411 74.5112 23.7766 74.5112 22.4677C74.5112 21.1556 75.5726 20.0943 76.8847 20.0943C78.1967 20.0943 79.258 21.1587 79.258 22.4677Z" fill="#B5B7BF"/>
<path opacity="0.7" d="M35.4534 2.37258C35.4534 3.68152 34.392 4.74597 33.08 4.74597C31.7679 4.74597 30.7065 3.68461 30.7065 2.37258C30.7065 1.06365 31.7679 -0.000880241 33.08 -0.000880241C34.392 -0.000880241 35.4534 1.06055 35.4534 2.37258Z" fill="#B5B7BF"/>
<path opacity="0.7" d="M57.3557 2.37258C57.3557 3.68152 56.2943 4.74597 54.9823 4.74597C53.6703 4.74597 52.6089 3.68461 52.6089 2.37258C52.6089 1.06365 53.6703 -0.000880241 54.9823 -0.000880241C56.2943 -0.000880241 57.3557 1.06055 57.3557 2.37258Z" fill="#B5B7BF"/>
<path opacity="0.7" d="M79.258 2.37258C79.258 3.68152 78.1967 4.74597 76.8847 4.74597C75.5726 4.74597 74.5112 3.68461 74.5112 2.37258C74.5112 1.06365 75.5726 -0.000880241 76.8847 -0.000880241C78.1967 -0.000880241 79.258 1.06055 79.258 2.37258Z" fill="#B5B7BF"/>
<path opacity="0.7" d="M13.5513 62.6639C13.5513 63.9729 12.4899 65.0343 11.1778 65.0343C9.8658 65.0343 8.80444 63.9729 8.80444 62.6639C8.80444 61.3519 9.8658 60.2905 11.1778 60.2905C12.4899 60.2905 13.5513 61.3519 13.5513 62.6639Z" fill="#B5B7BF"/>
<path opacity="0.7" d="M13.5513 42.5659C13.5513 43.8748 12.4899 44.9363 11.1778 44.9363C9.8658 44.9363 8.80444 43.8748 8.80444 42.5659C8.80444 41.2539 9.8658 40.1925 11.1778 40.1925C12.4899 40.1925 13.5513 41.2539 13.5513 42.5659Z" fill="#B5B7BF"/>
<path opacity="0.7" d="M13.5513 102.842C13.5513 104.151 12.4899 105.212 11.1778 105.212C9.8658 105.212 8.80444 104.151 8.80444 102.842C8.80444 101.53 9.8658 100.468 11.1778 100.468C12.4899 100.468 13.5513 101.53 13.5513 102.842Z" fill="#B5B7BF"/>
<path opacity="0.7" d="M13.5513 82.7437C13.5513 84.0527 12.4899 85.114 11.1778 85.114C9.8658 85.114 8.80444 84.0527 8.80444 82.7437C8.80444 81.4317 9.8658 80.3703 11.1778 80.3703C12.4899 80.3703 13.5513 81.4317 13.5513 82.7437Z" fill="#B5B7BF"/>
<path opacity="0.7" d="M13.5513 22.4677C13.5513 23.7766 12.4899 24.8411 11.1778 24.8411C9.8658 24.8411 8.80444 23.7797 8.80444 22.4677C8.80444 21.1556 9.8658 20.0943 11.1778 20.0943C12.4899 20.0943 13.5513 21.1587 13.5513 22.4677Z" fill="#B5B7BF"/>
<path opacity="0.7" d="M13.5513 2.37258C13.5513 3.68152 12.4899 4.74597 11.1778 4.74597C9.8658 4.74597 8.80444 3.68461 8.80444 2.37258C8.80444 1.06055 9.8658 -0.000880241 11.1778 -0.000880241C12.4899 -0.000880241 13.5513 1.06055 13.5513 2.37258Z" fill="#B5B7BF"/>
</svg>
