<svg width="92" height="20" viewBox="0 0 92 20" fill="none" xmlns="http://www.w3.org/2000/svg">
<path opacity="0.7" d="M39.0903 18.0898C39.0903 19.1445 38.2357 19.9991 37.181 19.9991C36.1263 19.9991 35.2716 19.1445 35.2716 18.0898C35.2716 17.0351 36.1263 16.1804 37.181 16.1804C38.2357 16.1804 39.0903 17.0351 39.0903 18.0898Z" fill="#B5B7BF"/>
<path opacity="0.7" d="M56.7262 18.0898C56.7262 19.1445 55.8715 19.9991 54.8168 19.9991C53.7621 19.9991 52.9075 19.1445 52.9075 18.0898C52.9075 17.0351 53.7621 16.1804 54.8168 16.1804C55.8715 16.1804 56.7262 17.0351 56.7262 18.0898Z" fill="#B5B7BF"/>
<path opacity="0.7" d="M74.3621 18.0898C74.3621 19.1445 73.5074 19.9991 72.4527 19.9991C71.398 19.9991 70.5433 19.1445 70.5433 18.0898C70.5433 17.0351 71.398 16.1804 72.4527 16.1804C73.5074 16.1804 74.3621 17.0351 74.3621 18.0898Z" fill="#B5B7BF"/>
<path opacity="0.7" d="M91.9979 18.0898C91.9979 19.1445 91.1432 19.9991 90.0885 19.9991C89.0339 19.9991 88.1792 19.1445 88.1792 18.0898C88.1792 17.0351 89.0339 16.1804 90.0885 16.1804C91.1432 16.1804 91.9979 17.0351 91.9979 18.0898Z" fill="#B5B7BF"/>
<path opacity="0.7" d="M39.0903 1.90853C39.0903 2.9632 38.2357 3.81791 37.181 3.81791C36.1263 3.81791 35.2716 2.9632 35.2716 1.90853C35.2716 0.85386 36.1263 -0.000854492 37.181 -0.000854492C38.2357 -0.000854492 39.0903 0.850635 39.0903 1.90853Z" fill="#B5B7BF"/>
<path opacity="0.7" d="M56.7262 1.90853C56.7262 2.9632 55.8715 3.81791 54.8168 3.81791C53.7621 3.81791 52.9075 2.9632 52.9075 1.90853C52.9075 0.85386 53.7621 -0.000854492 54.8168 -0.000854492C55.8715 -0.000854492 56.7262 0.850635 56.7262 1.90853Z" fill="#B5B7BF"/>
<path opacity="0.7" d="M74.3621 1.90853C74.3621 2.9632 73.5074 3.81791 72.4527 3.81791C71.398 3.81791 70.5433 2.9632 70.5433 1.90853C70.5433 0.85386 71.398 -0.000854492 72.4527 -0.000854492C73.5074 -0.000854492 74.3621 0.850635 74.3621 1.90853Z" fill="#B5B7BF"/>
<path opacity="0.7" d="M91.9979 1.90853C91.9979 2.9632 91.1432 3.81791 90.0885 3.81791C89.0339 3.81791 88.1792 2.9632 88.1792 1.90853C88.1792 0.85386 89.0339 -0.000854492 90.0885 -0.000854492C91.1432 -0.000854492 91.9979 0.850635 91.9979 1.90853Z" fill="#B5B7BF"/>
<path opacity="0.7" d="M3.8186 18.0898C3.8186 19.1445 2.96393 19.9991 1.90926 19.9991C0.854593 19.9991 -0.00012207 19.1445 -0.00012207 18.0898C-0.00012207 17.0351 0.854593 16.1804 1.90926 16.1804C2.96393 16.1804 3.8186 17.0351 3.8186 18.0898Z" fill="#B5B7BF"/>
<path opacity="0.7" d="M21.4545 18.0898C21.4545 19.1445 20.5998 19.9991 19.5451 19.9991C18.4904 19.9991 17.6357 19.1445 17.6357 18.0898C17.6357 17.0351 18.4904 16.1804 19.5451 16.1804C20.5998 16.1804 21.4545 17.0351 21.4545 18.0898Z" fill="#41B7A8"/>
<path opacity="0.7" d="M3.81873 1.90853C3.81873 2.9632 2.96405 3.81791 1.90938 3.81791C0.854715 3.81791 0 2.9632 0 1.90853C0 0.85386 0.854715 -0.000854492 1.90938 -0.000854492C2.96405 -0.000854492 3.81873 0.850635 3.81873 1.90853Z" fill="#B5B7BF"/>
<path opacity="0.7" d="M21.4545 1.90853C21.4545 2.9632 20.5998 3.81791 19.5451 3.81791C18.4904 3.81791 17.6357 2.9632 17.6357 1.90853C17.6357 0.85386 18.4904 -0.000854492 19.5451 -0.000854492C20.5998 -0.000854492 21.4545 0.850635 21.4545 1.90853Z" fill="#B5B7BF"/>
</svg>
