<svg width="27" height="15" viewBox="0 0 27 15" fill="none" xmlns="http://www.w3.org/2000/svg">
<path d="M9.26367 10.2402C9.26367 10.9499 9.1237 11.5553 8.84375 12.0566C8.5638 12.5579 8.19271 12.9681 7.73047 13.2871C7.27474 13.5996 6.78971 13.8275 6.27539 13.9707C5.76107 14.1074 5.26302 14.1758 4.78125 14.1758C4.09766 14.1758 3.34245 14.0814 2.51562 13.8926C1.6888 13.6973 0.995443 13.4661 0.435547 13.1992V10.1621C0.891276 10.5397 1.38281 10.8587 1.91016 11.1191C2.4375 11.373 2.98112 11.5 3.54102 11.5C3.96419 11.5 4.31901 11.4219 4.60547 11.2656C4.89844 11.1094 5.11654 10.9141 5.25977 10.6797C5.40951 10.4388 5.48438 10.1849 5.48438 9.91797C5.48438 9.57292 5.39323 9.26693 5.21094 9C5.02865 8.73307 4.76497 8.52148 4.41992 8.36523C4.07487 8.20247 3.67448 8.12109 3.21875 8.12109H2.7793V5.94336H3.29688C3.7526 5.94336 4.12695 5.85547 4.41992 5.67969C4.7194 5.50391 4.93424 5.29557 5.06445 5.05469C5.19466 4.80729 5.25977 4.57617 5.25977 4.36133C5.25977 3.95117 5.10026 3.58984 4.78125 3.27734C4.46875 2.95833 4.06185 2.79883 3.56055 2.79883C3.11133 2.79883 2.64258 2.88346 2.1543 3.05273C1.67253 3.22201 1.22005 3.44987 0.796875 3.73633V1.13867C1.4349 0.871745 2.03385 0.663411 2.59375 0.513672C3.16016 0.357422 3.79492 0.279297 4.49805 0.279297C5.52018 0.279297 6.37305 0.477865 7.05664 0.875C7.74674 1.27214 8.24805 1.75391 8.56055 2.32031C8.87956 2.88021 9.03906 3.40755 9.03906 3.90234C9.03906 4.30599 8.95117 4.70964 8.77539 5.11328C8.59961 5.51693 8.36849 5.875 8.08203 6.1875C7.80208 6.5 7.50911 6.74414 7.20312 6.91992C7.74349 7.20638 8.22201 7.60352 8.63867 8.11133C9.05534 8.61914 9.26367 9.32878 9.26367 10.2402ZM26.5098 7.47656C26.5098 8.86328 26.2559 9.97656 25.748 10.8164C25.2467 11.6562 24.6543 12.3366 23.9707 12.8574C23.0007 13.6191 21.6432 14 19.8984 14H12.5938V0.464844H18.2188C19.0651 0.464844 19.7878 0.510417 20.3867 0.601562C20.9922 0.686198 21.5358 0.809896 22.0176 0.972656C22.4993 1.12891 22.9095 1.30794 23.248 1.50977C23.5866 1.70508 23.8893 1.91667 24.1562 2.14453C24.6185 2.52214 25.0221 2.9681 25.3672 3.48242C25.7188 3.99674 25.9954 4.59245 26.1973 5.26953C26.4056 5.94661 26.5098 6.68229 26.5098 7.47656ZM22.3594 7.30078C22.3594 6.20052 22.1478 5.3444 21.7246 4.73242C21.3079 4.11393 20.8034 3.70052 20.2109 3.49219C19.625 3.28385 19.026 3.17969 18.4141 3.17969H16.6758V11.1973H18.4141C19.4818 11.1973 20.4062 10.9434 21.1875 10.4355C21.9688 9.92773 22.3594 8.88281 22.3594 7.30078Z" fill="#B5B7BF"/>
</svg>
