<svg width="66" height="37" viewBox="0 0 66 37" fill="none" xmlns="http://www.w3.org/2000/svg">
<path d="M2.63965 0H4.25251V1.61651H5.74591V0H7.35878V4.96926H5.86538V3.35275H4.25251V4.96926H2.63965V0ZM9.68847 1.61651H8.19508V0H12.7947V1.61651H11.3013V4.96926H9.68847V1.61651ZM13.4518 0H15.1842L16.1997 1.73625L17.2152 0H18.9475V4.96926H17.3347V2.51456L16.1997 4.25081L15.0647 2.51456V4.96926H13.4518V0ZM19.963 0H21.5759V3.35275H23.9056V4.96926H19.8436L19.963 0Z" fill="#1D1D1D"/>
<path d="M0.19043 7.24432L2.6396 34.0065L13.2726 37L24.025 34.0065L26.4742 7.24432C26.4144 7.24432 0.19043 7.24432 0.19043 7.24432ZM21.3369 13.6505L21.2174 15.267L21.098 15.9256H13.2128H8.61318L8.97159 19.2783H13.2726H20.9187L20.7993 20.1764L19.963 28.8576V29.4563L13.2726 31.3123L6.58216 29.4563L6.10427 24.2476H9.33L9.56895 26.8819L13.2726 27.8997L16.9762 26.8819L17.3346 22.5712H13.2726H5.9848L5.1485 13.6505L5.02903 12.7524H13.2128H21.3966L21.3369 13.6505Z" fill="#1D1D1D"/>
<path d="M46.0673 3.35275V1.73625H48.397V0H44.335V4.96926H48.397V3.35275C48.3373 3.35275 46.0673 3.35275 46.0673 3.35275ZM52.5188 1.73625H54.1316V0H50.0696V1.73625C50.667 2.33495 50.9059 2.57443 51.6825 3.35275C51.2046 3.35275 50.0696 3.35275 50.0696 3.35275V4.96926H54.1316V3.35275L52.5188 1.73625ZM58.2534 1.73625H59.8663V0H55.8042V1.73625C56.4016 2.33495 56.6405 2.57443 57.4171 3.35275C56.9392 3.35275 55.8042 3.35275 55.8042 3.35275V4.96926H59.8663V3.35275L58.2534 1.73625Z" fill="#1D1D1D"/>
<path d="M39.0186 7.24432L41.4677 34.1262L52.2202 37L62.9726 34.1262L65.4218 7.24432H39.0186ZM60.3442 12.6925L59.9858 15.9256L52.1604 19.3382H59.8066L58.9106 29.3964L52.1604 31.3722L45.47 29.3964L44.9921 24.3074H48.3373L48.5763 26.9417L52.1604 27.8398L55.864 26.822L56.103 22.5113H52.1604H44.7532L44.5142 19.398L52.1604 16.165L52.6383 15.9256H52.1604H44.2156L43.8572 12.6925H52.1604H60.3442Z" fill="#1D1D1D"/>
</svg>
