<svg width="41" height="40" viewBox="0 0 41 40" fill="none" xmlns="http://www.w3.org/2000/svg">
<path d="M0.19043 0V40H40.1904V0H0.19043ZM21.9904 31.2C21.9904 35.1 19.7404 36.85 16.3904 36.85C13.3904 36.85 11.6404 35.3 10.7404 33.45L13.7904 31.6C14.3904 32.65 14.8904 33.5 16.1904 33.5C17.4404 33.5 18.1904 33 18.1904 31.15V18.35H21.9904V31.2ZM30.8404 36.85C27.3404 36.85 25.0904 35.2 23.9904 33.05L27.0404 31.25C27.8404 32.6 28.8904 33.5 30.7404 33.5C32.2904 33.5 33.2904 32.7 33.2904 31.65C33.2904 30.35 32.2904 29.9 30.5404 29.15L29.5904 28.75C26.8904 27.6 25.0404 26.15 25.0404 23.1C25.0404 20.3 27.1904 18.1 30.5404 18.1C32.9404 18.1 34.6404 18.95 35.8904 21.1L32.9404 22.95C32.2904 21.8 31.5904 21.35 30.5404 21.35C29.4404 21.35 28.7404 22.05 28.7404 22.95C28.7404 24.05 29.4404 24.55 31.0404 25.2L31.9904 25.6C35.1904 27 36.9904 28.4 36.9904 31.55C37.0904 35 34.3904 36.85 30.8404 36.85Z" fill="#1D1D1D"/>
</svg>
