<svg width="104" height="30" viewBox="0 0 104 30" fill="none" xmlns="http://www.w3.org/2000/svg">
<path fill-rule="evenodd" clip-rule="evenodd" d="M39.6381 6.91015V20.4367H44.581V22.7698H37.0065V6.91015H39.6381ZM53.8709 13.6389V12.2124H56.3648V22.7698H53.8703V21.3421C53.5351 21.8709 53.0581 22.2865 52.4398 22.5883C51.8227 22.8901 51.2008 23.041 50.5754 23.041C49.7668 23.041 49.0267 22.8936 48.3558 22.5995C47.7027 22.3178 47.1145 21.9053 46.628 21.3875C46.147 20.8734 45.7669 20.274 45.5072 19.6203C45.2375 18.9427 45.1014 18.2196 45.1065 17.4905C45.1065 16.7508 45.2401 16.0446 45.5072 15.372C45.7652 14.7142 46.1454 14.111 46.628 13.5941C47.1146 13.0762 47.7027 12.6635 48.3558 12.3816C49.0267 12.0869 49.7668 11.9395 50.5754 11.9395C51.2008 11.9395 51.8227 12.091 52.4404 12.3934C53.0581 12.6952 53.5351 13.1108 53.8709 13.6389ZM53.6415 18.7821C53.795 18.369 53.8727 17.9317 53.8709 17.4911C53.8709 17.0372 53.794 16.6069 53.6415 16.199C53.4982 15.8066 53.2809 15.4453 53.0013 15.1344C52.7215 14.8287 52.383 14.5822 52.0059 14.4094C51.6164 14.2284 51.1854 14.1376 50.7126 14.1376C50.2397 14.1376 49.8123 14.2284 49.431 14.4094C49.0498 14.5909 48.7217 14.8326 48.4474 15.1344C48.1685 15.4438 47.9546 15.8058 47.8185 16.199C47.6721 16.6138 47.5985 17.0508 47.601 17.4905C47.601 17.9438 47.6731 18.3747 47.8185 18.7815C47.9545 19.175 48.1683 19.5372 48.4474 19.8466C48.7242 20.1505 49.0585 20.3969 49.431 20.5717C49.8123 20.7532 50.2397 20.8434 50.7126 20.8434C51.1854 20.8434 51.617 20.7532 52.0059 20.5723C52.3831 20.3996 52.7217 20.1531 53.0013 19.8472C53.2811 19.5363 53.4984 19.1747 53.6415 18.7821ZM58.3326 22.7692V12.2118H65.1061V14.6416H60.8265V22.7692H58.3326ZM74.1448 13.6389V12.2124H76.6387V22.7698H74.1442V21.3421C73.8084 21.8709 73.332 22.2865 72.7137 22.5883C72.0966 22.8901 71.4747 23.041 70.8493 23.041C70.0401 23.041 69.3006 22.8936 68.6297 22.5995C67.9766 22.3178 67.3885 21.9053 66.9019 21.3875C66.4209 20.8734 66.0408 20.274 65.7812 19.6203C65.5114 18.9427 65.3753 18.2196 65.3804 17.4905C65.3804 16.7508 65.5134 16.0446 65.7812 15.372C66.0391 14.7142 66.4193 14.111 66.9019 13.5941C67.3885 13.0762 67.9766 12.6635 68.6297 12.3816C69.3006 12.0869 70.0401 11.9395 70.8493 11.9395C71.4747 11.9395 72.0966 12.091 72.7143 12.3934C73.332 12.6952 73.8084 13.1108 74.1448 13.6389ZM73.9154 18.7821C74.0687 18.3689 74.1462 17.9316 74.1442 17.4911C74.1442 17.0372 74.0673 16.6069 73.9154 16.199C73.772 15.8066 73.5545 15.4452 73.2747 15.1344C72.9949 14.8287 72.6564 14.5822 72.2792 14.4094C71.8903 14.2284 71.4594 14.1376 70.9865 14.1376C70.5136 14.1376 70.0862 14.2284 69.7049 14.4094C69.3237 14.5909 68.9956 14.8326 68.7213 15.1344C68.4422 15.4437 68.2281 15.8057 68.0918 16.199C67.9454 16.6138 67.8718 17.0508 67.8743 17.4905C67.8743 17.9438 67.9464 18.3747 68.0918 18.7815C68.228 19.175 68.442 19.5372 68.7213 19.8466C68.9981 20.1505 69.3324 20.3969 69.7049 20.5717C70.0862 20.7532 70.5136 20.8434 70.9865 20.8434C71.4594 20.8434 71.8909 20.7532 72.2792 20.5723C72.6564 20.3996 72.995 20.1531 73.2747 19.8472C73.5546 19.5363 73.7721 19.1747 73.9154 18.7821ZM86.6379 12.2118H89.1643L85.0703 22.7692H81.9362L77.8422 12.2118H80.3686L83.5032 20.2964L86.6379 12.2118ZM94.6037 11.9407C98.0002 11.9407 100.316 14.9204 99.8811 18.4083H91.6068C91.6068 19.3191 92.5354 21.0798 94.7408 21.0798C96.6383 21.0798 97.9092 19.4275 97.9104 19.4264L99.595 20.7173C98.0889 22.31 96.8552 23.0416 94.9235 23.0416C91.4714 23.0416 89.1324 20.8794 89.1324 17.4911C89.1324 14.4259 91.55 11.9407 94.6037 11.9407ZM91.6133 16.5733H97.5906C97.5723 16.37 97.2483 13.9018 94.5842 13.9018C91.9201 13.9018 91.6328 16.37 91.6133 16.5733ZM101.506 22.7692V6.91015H104V22.7692H101.506ZM29.416 6.78636C29.4269 6.82633 29.4325 6.86755 29.4326 6.90897V13.3483C29.4325 13.4312 29.4103 13.5125 29.3685 13.584C29.3267 13.6555 29.2666 13.7148 29.1944 13.7557L23.736 16.8675V23.0351C23.7358 23.1178 23.7137 23.199 23.6718 23.2704C23.63 23.3418 23.57 23.401 23.4978 23.4418L12.1048 29.9372C12.0788 29.9525 12.0498 29.9614 12.022 29.9714C12.0108 29.9749 12.0007 29.9814 11.9901 29.9843C11.9103 30.0052 11.8264 30.0052 11.7465 29.9843C11.7335 29.9808 11.7217 29.9737 11.7093 29.969C11.6827 29.9602 11.6561 29.9513 11.6313 29.9372L0.237627 23.443C0.165428 23.402 0.105408 23.3426 0.0636695 23.271C0.0219313 23.1993 -3.64643e-05 23.1179 4.54343e-08 23.0351V3.71699C9.38793e-05 3.67557 0.00565879 3.63435 0.0165511 3.59438C0.0200978 3.58023 0.0283734 3.56786 0.0331022 3.55489C0.04256 3.53013 0.0508356 3.50478 0.06384 3.48179C0.0727066 3.46647 0.0857111 3.45409 0.09576 3.44053C0.109947 3.42167 0.121769 3.40163 0.13832 3.38512C0.151915 3.37156 0.169649 3.36154 0.185018 3.34975C0.20216 3.33678 0.217529 3.32146 0.237035 3.31026L0.237627 3.30967L5.93475 0.0622812C6.00683 0.0214604 6.0883 0 6.17119 0C6.25409 0 6.33556 0.0214604 6.40764 0.0622812L12.1048 3.30967H12.1059C12.1249 3.32146 12.1402 3.33678 12.158 3.34975C12.1733 3.36154 12.1905 3.37156 12.2041 3.38512C12.2206 3.40163 12.2324 3.42167 12.2466 3.43994C12.2573 3.45409 12.2703 3.46647 12.2791 3.48179C12.2921 3.50478 12.3004 3.53013 12.3099 3.55489C12.3146 3.56786 12.3223 3.58023 12.3264 3.59438C12.3371 3.63438 12.3425 3.6756 12.3424 3.71699V15.7828L17.0902 13.0766V6.90897C17.0901 6.86758 17.0955 6.82635 17.1061 6.78636C17.1103 6.77221 17.118 6.76042 17.1233 6.74686C17.1322 6.72211 17.1404 6.69676 17.1534 6.67377C17.1623 6.65844 17.1753 6.64607 17.1859 6.63251C17.2001 6.61364 17.212 6.5936 17.2285 6.57769C17.2421 6.56413 17.2592 6.55411 17.2746 6.54232C17.2923 6.52876 17.3077 6.51285 17.3272 6.50223V6.50165L23.0243 3.25426C23.0965 3.21322 23.1781 3.19163 23.2611 3.19163C23.3441 3.19163 23.4257 3.21322 23.4978 3.25426L29.1944 6.50165H29.195C29.215 6.51343 29.2304 6.52876 29.2482 6.54173C29.2629 6.55352 29.2807 6.56413 29.2943 6.5771C29.3108 6.5936 29.3226 6.61365 29.3362 6.63192C29.3469 6.64607 29.3599 6.65844 29.3687 6.67377C29.3823 6.69676 29.39 6.72211 29.3995 6.74686C29.4048 6.76042 29.4125 6.77221 29.416 6.78636ZM28.4833 13.0766V7.72185L26.4894 8.85834L23.736 10.4281V15.7828L28.4827 13.0766H28.4833ZM22.7867 22.7633V17.4051L20.0771 18.9365L12.3424 23.3074V28.7158L22.7867 22.7622V22.7633ZM0.949324 4.52987V22.7633L11.3931 28.717V23.3092L5.93711 20.2522L5.93593 20.2504L5.93357 20.2498C5.91465 20.2392 5.89987 20.2239 5.88273 20.2109C5.86736 20.1991 5.85081 20.1897 5.83722 20.1767L5.83603 20.175C5.82067 20.1602 5.81003 20.142 5.79702 20.1255C5.7852 20.1101 5.77101 20.0966 5.76155 20.0801L5.76096 20.0783C5.75032 20.0606 5.74382 20.0394 5.73614 20.0194C5.72845 20.0023 5.7184 19.9858 5.71368 19.9669V19.9663C5.70717 19.9439 5.70658 19.9203 5.70363 19.8973C5.70185 19.8797 5.69653 19.8626 5.69653 19.8443V7.23553L2.94373 5.66637L0.949324 4.52987ZM6.17119 1.01192L1.42635 3.71758L6.17119 6.42207L10.9166 3.71699L6.17119 1.01192ZM8.63967 17.8931L11.3931 16.324V4.52987L9.39984 5.66637L6.64586 7.23612V19.0296L8.63967 17.8931ZM23.2614 4.20448L18.5159 6.90897L23.2614 9.61404L28.0062 6.90897L23.2614 4.20448ZM22.7867 10.4281L20.0327 8.85834L18.0395 7.72185V13.0766L20.7929 14.6463L22.7867 15.7828V10.4275V10.4281ZM11.8671 22.4945L18.8275 18.5604L22.3067 16.594L17.5649 13.8906L12.1048 17.003L7.12879 19.8396L11.8671 22.4945Z" fill="#1D1D1D"/>
</svg>
