<svg width="80" height="48" viewBox="0 0 80 48" fill="none" xmlns="http://www.w3.org/2000/svg">
<path d="M39.642 48C39.3989 48 39.095 47.9392 38.8519 47.8177L36.5423 46.4198C36.1777 46.2374 36.36 46.1766 36.4815 46.1766C36.907 45.9943 37.0893 45.9943 37.5148 45.7512C37.5756 45.7512 37.5756 45.7512 37.6971 45.7512L39.5205 46.7844C39.5813 46.7844 39.7028 46.7844 39.7028 46.7844L46.8139 42.6515C46.8747 42.6515 46.8747 42.5907 46.8747 42.4691V34.264C46.8747 34.2032 46.8747 34.0817 46.8139 34.0817L39.7028 29.9487C39.642 29.9487 39.5205 29.9487 39.5205 29.9487L32.4094 34.0817C32.3486 34.0817 32.3486 34.1424 32.3486 34.264V42.4691C32.3486 42.5299 32.3486 42.6515 32.4094 42.6515L34.3543 43.8063C35.3875 44.3533 36.1169 43.7455 36.1169 43.1377V35.1149C36.1169 35.0541 36.1777 34.9326 36.2992 34.9326H37.1501C37.2109 34.9326 37.3325 34.9934 37.3325 35.1149V43.1377C37.3325 44.5356 36.5423 45.3257 35.2052 45.3257C34.7797 45.3257 34.4759 45.3257 33.5642 44.9003L31.7408 43.867C31.3154 43.6239 30.9507 43.0769 30.9507 42.5299V34.3248C30.9507 33.7778 31.1938 33.2915 31.7408 32.9877L38.8519 28.8547C39.2774 28.6116 39.8852 28.6116 40.3714 28.8547L47.4825 32.9877C47.9079 33.2308 48.2726 33.7778 48.2726 34.3248V42.5299C48.2726 43.0769 48.0295 43.5631 47.4825 43.867L40.3714 48C40.1891 47.9392 39.8852 48 39.642 48ZM41.8301 42.4084C38.6696 42.4084 38.0618 41.0104 38.0618 39.7949C38.0618 39.7341 38.1226 39.6125 38.2441 39.6125H39.2166C39.2774 39.6125 39.3989 39.6733 39.3989 39.7949C39.5813 40.7673 39.9459 41.1928 41.8301 41.1928C43.3495 41.1928 43.9573 40.8281 43.9573 40.038C43.9573 39.6125 43.775 39.2479 41.4046 39.0047C39.4597 38.8224 38.2441 38.397 38.2441 36.8167C38.2441 35.4188 39.4597 34.5679 41.4654 34.5679C43.775 34.5679 44.869 35.358 44.9906 36.9991C44.9906 37.0598 44.9906 37.0598 44.9298 37.1814C44.9298 37.1814 44.869 37.2422 44.7475 37.2422H43.775C43.7142 37.2422 43.5927 37.1814 43.5927 37.0598C43.4103 36.0874 42.8025 35.7227 41.4046 35.7227C39.7636 35.7227 39.5813 36.2697 39.5813 36.6952C39.5813 37.2422 39.8244 37.3637 42.0124 37.6676C44.2004 37.9107 45.2337 38.3362 45.2337 39.8556C45.4768 41.4359 44.1397 42.4084 41.8301 42.4084Z" fill="#1D1D1D"/>
<path d="M17.5188 16.0304C17.5188 15.6657 17.3365 15.4226 17.0934 15.2403L9.5568 10.8642C9.49602 10.8034 9.31368 10.8034 9.13135 10.8034H9.07057C8.88823 10.8034 8.82745 10.8642 8.64512 10.8642L1.10856 15.2403C0.865441 15.4226 0.683105 15.6657 0.683105 16.0304V27.6391C0.683105 27.8214 0.743884 28.0038 0.92622 28.0038C1.10856 28.0646 1.29089 28.0646 1.35167 28.0038L5.8493 25.4511C6.09241 25.2687 6.27475 25.0256 6.27475 24.661V19.2516C6.27475 18.887 6.45708 18.6439 6.7002 18.4615L8.64512 17.3067C8.82745 17.2459 8.88823 17.246 9.07057 17.246C9.25291 17.246 9.43524 17.2459 9.49602 17.3067L11.4409 18.4615C11.6841 18.6439 11.8664 18.887 11.8664 19.2516V24.661C11.8664 25.0256 12.0487 25.2687 12.2918 25.4511L16.7895 28.0038C16.9718 28.0646 17.1541 28.0646 17.2149 28.0038C17.3973 27.943 17.458 27.7607 17.458 27.6391L17.5188 16.0304Z" fill="#1D1D1D"/>
<path d="M53.9859 0.045584C53.8035 -0.0151947 53.6212 -0.0151947 53.5604 0.045584C53.3781 0.106363 53.3173 0.227922 53.3173 0.410258V11.9582C53.3173 12.019 53.2565 12.1406 53.1349 12.2013C53.0742 12.2621 52.9526 12.2621 52.7703 12.2013L50.8254 11.1681C50.5822 10.9858 50.2176 10.9858 49.9745 11.1681L42.3771 15.4834C42.134 15.6657 41.9517 15.9088 41.9517 16.2735V24.9041C41.9517 25.2688 42.134 25.5119 42.3771 25.6942L49.9137 30.0703C50.1568 30.2526 50.5215 30.2526 50.7646 30.0703L58.3011 25.6942C58.5443 25.5119 58.7266 25.2688 58.7266 24.9041V3.26686C58.7266 2.90219 58.5443 2.65907 58.3011 2.47673L53.9859 0.045584ZM53.2565 22.0475C53.2565 22.1083 53.2565 22.2298 53.1957 22.2298L50.643 23.6885C50.5822 23.6885 50.4607 23.6885 50.3999 23.6885L47.7864 22.2298C47.7256 22.2298 47.7256 22.169 47.7256 22.0475V19.0693C47.7256 19.0086 47.7256 18.887 47.7864 18.887L50.3391 17.4283C50.3999 17.4283 50.5215 17.4283 50.5822 17.4283L53.1349 18.887C53.1957 18.887 53.1957 18.9478 53.1957 19.0693V22.0475H53.2565Z" fill="#1D1D1D"/>
<path d="M79.1163 19.0093C79.4202 18.8269 79.6026 18.5838 79.6026 18.2191V16.0919C79.6026 15.7272 79.4202 15.4841 79.1771 15.3018L71.6406 10.9257C71.3974 10.7434 71.0328 10.7434 70.7897 10.9257L63.2531 15.3018C63.01 15.4841 62.8276 15.7272 62.8276 16.0919V24.7225C62.8276 25.0871 63.01 25.3303 63.2531 25.5126L70.7897 29.7671C71.0328 29.9494 71.3974 29.9494 71.6406 29.7671L76.199 27.2144C76.3813 27.1536 76.4421 26.9713 76.4421 26.8497C76.4421 26.7282 76.3813 26.485 76.199 26.485L68.5408 22.109C68.3585 22.0482 68.2977 21.8659 68.2977 21.7443V19.1916C68.2977 19.0093 68.3585 18.8269 68.5408 18.8269L70.9112 17.4898C71.0936 17.429 71.2759 17.429 71.3367 17.4898L73.707 18.8269C73.8894 18.8877 73.9502 19.07 73.9502 19.1916V21.2581C73.9502 21.4404 74.0109 21.6227 74.1933 21.6227C74.3756 21.6835 74.5579 21.6835 74.6187 21.6227L79.1163 19.0093Z" fill="#1D1D1D"/>
<path d="M71.0329 18.6446C71.0937 18.6446 71.0937 18.6446 71.2153 18.6446L72.6132 19.4955C72.6739 19.4955 72.6739 19.5563 72.6739 19.6778V21.3189C72.6739 21.3796 72.6739 21.3796 72.6132 21.5012L71.2153 22.3521C71.1545 22.3521 71.1545 22.3521 71.0329 22.3521L69.635 21.5012C69.5742 21.5012 69.5742 21.4404 69.5742 21.3189V19.6778C69.5742 19.6171 69.5742 19.6171 69.635 19.4955L71.0329 18.6446Z" fill="#1D1D1D"/>
<path d="M30.2822 11.0465C30.039 10.8642 29.6744 10.8642 29.4313 11.0465L21.8947 15.3011C21.6516 15.4834 21.4692 15.7265 21.4692 16.0912V24.7218C21.4692 25.0864 21.6516 25.3295 21.8947 25.5119L29.4313 29.7664C29.6744 29.9487 30.039 29.9487 30.2822 29.7664L37.8187 25.5119C38.0618 25.3295 38.2442 25.0864 38.2442 24.7218V16.0912C38.2442 15.7265 38.0618 15.4834 37.8187 15.3011L30.2822 11.0465Z" fill="#1D1D1D"/>
</svg>
