<svg width="77" height="40" viewBox="0 0 77 40" fill="none" xmlns="http://www.w3.org/2000/svg">
<path d="M56.381 14.3492H53.3969L51.8096 22.7301H54.4127C56.1905 22.7301 57.4604 22.4127 58.2858 21.7143C59.1112 21.0158 59.7461 19.9365 60.0635 18.4127C60.381 16.8889 60.254 15.873 59.6191 15.3016C59.1112 14.6666 58.0953 14.3492 56.381 14.3492Z" fill="#1D1D1D"/>
<path d="M22.2858 14.3492H19.3017L17.7144 22.7301H20.3175C22.0953 22.7301 23.3651 22.4127 24.1905 21.7143C25.0159 21.0158 25.6509 19.9365 25.9683 18.4127C26.2858 16.8889 26.1588 15.873 25.5239 15.3016C24.889 14.7301 23.9366 14.3492 22.2858 14.3492Z" fill="#1D1D1D"/>
<path d="M38.0952 0C17.0159 0 0 8.95238 0 20C0 31.0476 17.0159 40 38.0952 40C59.1746 40 76.1905 31.0476 76.1905 20C76.1905 8.95238 59.1746 0 38.0952 0ZM27.746 23.619C26.7936 24.4444 25.9048 25.0794 24.8889 25.3968C23.873 25.7143 22.4127 25.9048 20.7619 25.9048H17.0159L16 31.2381H11.619L15.4921 11.2381H23.873C26.4127 11.2381 28.254 11.9365 29.3968 13.2698C30.5397 14.6032 30.9206 16.5079 30.4127 18.8571C30.2222 19.873 29.9048 20.6984 29.4603 21.5873C29.0159 22.3492 28.5079 22.8571 27.746 23.619ZM40.5714 25.9048L42.2857 17.0159C42.4762 16 42.3492 15.3016 42.0952 14.9841C41.8413 14.6667 41.0159 14.4127 39.873 14.4127H36.381L34.1587 25.9048H29.8413L33.7143 5.90476H38.0952L37.0794 11.2381H40.9524C43.4286 11.2381 45.0794 11.6825 45.9683 12.5079C46.7937 13.3333 47.1746 14.7302 46.7937 16.6349L45.0159 25.9048H40.5714ZM64.6984 18.7302C64.5079 19.746 64.1905 20.5714 63.746 21.4603C63.3016 22.2857 62.7302 22.9841 61.9683 23.6825C61.0159 24.5079 60.127 25.1429 59.1111 25.4603C58.0952 25.7778 56.5714 25.9683 54.9841 25.9683H51.2381L50.2222 31.3016H45.7143L49.5873 11.3016H57.9683C60.5079 11.3016 62.3492 12 63.4921 13.3333C64.6349 14.6667 65.0794 16.3175 64.6984 18.7302Z" fill="#1D1D1D"/>
</svg>
