<svg width="40" height="20" viewBox="0 0 40 20" fill="none" xmlns="http://www.w3.org/2000/svg">
<path d="M29.6002 7.17459H28.0335L27.2002 11.3651H28.5669C29.5002 11.3651 30.1669 11.2063 30.6002 10.8571C31.0335 10.5079 31.3669 9.96824 31.5335 9.20634C31.7002 8.44443 31.6335 7.9365 31.3002 7.65078C31.0335 7.33332 30.5002 7.17459 29.6002 7.17459Z" fill="#B5B7BF" fill-opacity="0.5"/>
<path d="M11.6998 7.17459H10.1331L9.2998 11.3651H10.6665C11.5998 11.3651 12.2665 11.2063 12.6998 10.8571C13.1331 10.5079 13.4665 9.96824 13.6331 9.20634C13.7998 8.44443 13.7331 7.9365 13.3998 7.65078C13.0665 7.36507 12.5665 7.17459 11.6998 7.17459Z" fill="#B5B7BF" fill-opacity="0.5"/>
<path d="M20 0C8.93333 0 0 4.47619 0 10C0 15.5238 8.93333 20 20 20C31.0667 20 40 15.5238 40 10C40 4.47619 31.0667 0 20 0ZM14.5667 11.8095C14.0667 12.2222 13.6 12.5397 13.0667 12.6984C12.5333 12.8571 11.7667 12.9524 10.9 12.9524H8.93333L8.4 15.619H6.1L8.13333 5.61905H12.5333C13.8667 5.61905 14.8333 5.96825 15.4333 6.63492C16.0333 7.30159 16.2333 8.25397 15.9667 9.42857C15.8667 9.93651 15.7 10.3492 15.4667 10.7937C15.2333 11.1746 14.9667 11.4286 14.5667 11.8095ZM21.3 12.9524L22.2 8.50794C22.3 8 22.2333 7.65079 22.1 7.49206C21.9667 7.33333 21.5333 7.20635 20.9333 7.20635H19.1L17.9333 12.9524H15.6667L17.7 2.95238H20L19.4667 5.61905H21.5C22.8 5.61905 23.6667 5.84127 24.1333 6.25397C24.5667 6.66667 24.7667 7.36508 24.5667 8.31746L23.6333 12.9524H21.3ZM33.9667 9.36508C33.8667 9.87302 33.7 10.2857 33.4667 10.7302C33.2333 11.1429 32.9333 11.4921 32.5333 11.8413C32.0333 12.254 31.5667 12.5714 31.0333 12.7302C30.5 12.8889 29.7 12.9841 28.8667 12.9841H26.9L26.3667 15.6508H24L26.0333 5.65079H30.4333C31.7667 5.65079 32.7333 6 33.3333 6.66667C33.9333 7.33333 34.1667 8.15873 33.9667 9.36508Z" fill="#B5B7BF" fill-opacity="0.5"/>
</svg>
