<svg width="23" height="20" viewBox="0 0 23 20" fill="none" xmlns="http://www.w3.org/2000/svg">
<path d="M22.4582 10.0023C22.4582 8.51453 20.5951 7.1046 17.7386 6.23026C18.3978 3.31884 18.1048 1.00252 16.8139 0.260929C16.5164 0.0869763 16.1685 0.00457764 15.7885 0.00457764V1.02541C15.9991 1.02541 16.1685 1.06661 16.3104 1.14443C16.9329 1.50149 17.203 2.86107 16.9924 4.60975C16.9421 5.04005 16.8597 5.49325 16.759 5.9556C15.8618 5.73587 14.8821 5.56649 13.8521 5.45663C13.2341 4.60975 12.5933 3.8407 11.9478 3.16777C13.4401 1.78073 14.8409 1.02083 15.7931 1.02083V0C14.5342 0 12.8862 0.897231 11.22 2.45365C9.55367 0.906386 7.9057 0.0183109 6.64683 0.0183109V1.03914C7.59441 1.03914 8.99977 1.79446 10.4921 3.17235C9.85122 3.84527 9.21035 4.60975 8.60151 5.45663C7.56695 5.56649 6.58732 5.73587 5.69009 5.96017C5.5848 5.5024 5.50698 5.05837 5.45205 4.63264C5.2369 2.88395 5.5024 1.52438 6.12039 1.16274C6.25772 1.08034 6.43625 1.04372 6.64683 1.04372V0.0228885C6.2623 0.0228885 5.9144 0.105287 5.61227 0.27924C4.32593 1.02083 4.03754 3.33257 4.7013 6.23484C1.85397 7.11376 0 8.51911 0 10.0023C0 11.49 1.86313 12.9 4.71961 13.7743C4.06043 16.6857 4.3534 19.0021 5.64431 19.7436C5.94186 19.9176 6.28977 20 6.6743 20C7.93317 20 9.58114 19.1028 11.2474 17.5463C12.9137 19.0936 14.5617 19.9817 15.8206 19.9817C16.2051 19.9817 16.553 19.8993 16.8551 19.7253C18.1415 18.9837 18.4298 16.672 17.7661 13.7697C20.6043 12.8954 22.4582 11.4855 22.4582 10.0023ZM16.4981 6.94896C16.3287 7.53948 16.1181 8.14832 15.8801 8.75715C15.6924 8.39093 15.4955 8.02472 15.2804 7.6585C15.0698 7.29229 14.8455 6.93523 14.6212 6.58732C15.2712 6.68345 15.8984 6.80247 16.4981 6.94896ZM14.4015 11.8242C14.0444 12.4422 13.6782 13.0282 13.2982 13.5729C12.6162 13.6324 11.9249 13.6645 11.2291 13.6645C10.5379 13.6645 9.84665 13.6324 9.16915 13.5775C8.7892 13.0327 8.4184 12.4514 8.06134 11.8379C7.71343 11.2383 7.39757 10.6294 7.10918 10.016C7.393 9.40261 7.71344 8.7892 8.05676 8.18952C8.41383 7.57153 8.78004 6.98558 9.15999 6.44083C9.84207 6.38132 10.5333 6.34928 11.2291 6.34928C11.9203 6.34928 12.6116 6.38132 13.2891 6.43626C13.669 6.981 14.0398 7.56237 14.3969 8.17578C14.7448 8.77546 15.0607 9.3843 15.349 9.99771C15.0607 10.6111 14.7448 11.2245 14.4015 11.8242ZM15.8801 11.2291C16.1273 11.8425 16.3378 12.4559 16.5118 13.051C15.9121 13.1975 15.2804 13.3211 14.6258 13.4173C14.8501 13.0648 15.0744 12.7031 15.285 12.3323C15.4955 11.9661 15.6924 11.5953 15.8801 11.2291ZM11.2383 16.1135C10.8125 15.6741 10.3868 15.1843 9.96567 14.6487C10.3777 14.667 10.7988 14.6807 11.2245 14.6807C11.6548 14.6807 12.0806 14.6715 12.4971 14.6487C12.0851 15.1843 11.6594 15.6741 11.2383 16.1135ZM7.83246 13.4173C7.18242 13.3211 6.55527 13.2021 5.9556 13.0556C6.12497 12.4651 6.33555 11.8563 6.57359 11.2474C6.76127 11.6136 6.95811 11.9799 7.17327 12.3461C7.38842 12.7123 7.60815 13.0694 7.83246 13.4173ZM11.2154 3.89105C11.6411 4.33051 12.0668 4.82032 12.488 5.35592C12.076 5.33761 11.6548 5.32387 11.2291 5.32387C10.7988 5.32387 10.3731 5.33303 9.95651 5.35592C10.3685 4.82032 10.7942 4.33051 11.2154 3.89105ZM7.82788 6.58732C7.60357 6.9398 7.37926 7.30144 7.16869 7.67224C6.95811 8.03845 6.76127 8.40467 6.57359 8.77089C6.32639 8.15747 6.11582 7.54406 5.94186 6.94896C6.54154 6.80705 7.17327 6.68345 7.82788 6.58732ZM3.68505 12.3186C2.06455 11.6274 1.01625 10.721 1.01625 10.0023C1.01625 9.28359 2.06455 8.37262 3.68505 7.68597C4.07874 7.51659 4.50904 7.36553 4.95308 7.22362C5.21401 8.12085 5.55734 9.0547 5.98306 10.0114C5.56191 10.9636 5.22316 11.8929 4.96681 12.7855C4.51362 12.6436 4.08331 12.488 3.68505 12.3186ZM6.14786 18.8601C5.52529 18.5031 5.25521 17.1435 5.46578 15.3948C5.51614 14.9645 5.59854 14.5113 5.69924 14.049C6.59648 14.2687 7.5761 14.4381 8.60609 14.548C9.22408 15.3948 9.86496 16.1639 10.5104 16.8368C9.01808 18.2238 7.6173 18.9837 6.66514 18.9837C6.45914 18.9792 6.28519 18.938 6.14786 18.8601ZM17.0062 15.3719C17.2213 17.1206 16.9558 18.4802 16.3378 18.8418C16.2005 18.9242 16.022 18.9609 15.8114 18.9609C14.8638 18.9609 13.4585 18.2055 11.9661 16.8276C12.607 16.1547 13.2479 15.3902 13.8567 14.5434C14.8913 14.4335 15.8709 14.2641 16.7681 14.0398C16.8734 14.5022 16.9558 14.9462 17.0062 15.3719ZM18.7686 12.3186C18.3749 12.488 17.9446 12.639 17.5006 12.781C17.2396 11.8837 16.8963 10.9499 16.4706 9.99313C16.8917 9.04097 17.2305 8.1117 17.4868 7.21904C17.94 7.36095 18.3703 7.51659 18.7732 7.68597C20.3937 8.3772 21.442 9.28359 21.442 10.0023C21.4374 10.721 20.3891 11.632 18.7686 12.3186Z" fill="#B5B7BF"/>
<path d="M11.2246 12.0943C12.38 12.0943 13.3166 11.1577 13.3166 10.0023C13.3166 8.8469 12.38 7.91028 11.2246 7.91028C10.0692 7.91028 9.13257 8.8469 9.13257 10.0023C9.13257 11.1577 10.0692 12.0943 11.2246 12.0943Z" fill="#B5B7BF"/>
</svg>
