<svg width="51" height="60" viewBox="0 0 51 60" fill="none" xmlns="http://www.w3.org/2000/svg">
<path d="M45.792 20.6801C45.792 32.1031 36.5326 41.3632 25.1101 41.3632C13.6882 41.3632 4.4292 32.1031 4.4292 20.6801C4.4292 9.25902 13.6879 0 25.1101 0C36.5326 0 45.792 9.25902 45.792 20.6801Z" fill="#1D1D1D"/>
<path d="M34.1528 7.65187C32.0519 7.72378 30.218 8.88355 28.8525 10.484C27.3405 12.2412 26.336 14.3232 25.6106 16.4507C24.3148 15.3879 23.3158 14.0127 21.2356 13.4146C19.6281 12.9525 17.9402 13.1428 16.3877 14.2993C15.6531 14.8484 15.1461 15.6777 14.9053 16.4599C14.2813 18.4874 15.561 20.2936 16.1421 20.9408L17.4133 22.3019C17.6747 22.5693 18.3064 23.2655 17.9974 24.2634C17.6655 25.3501 16.356 26.0519 15.0133 25.6393C14.4133 25.4552 13.5519 25.0087 13.7451 24.3807C13.8244 24.1229 14.0088 23.9289 14.108 23.7091C14.198 23.517 14.2419 23.3747 14.2695 23.2887C14.5148 22.4889 14.1792 21.4471 13.3218 21.182C12.5212 20.9364 11.7025 21.1311 11.385 22.161C11.0247 23.3315 11.5853 25.456 14.5863 26.3801C18.1025 27.4624 21.0755 25.5471 21.4977 23.0516C21.7636 21.4884 21.0571 20.3257 19.7642 18.8325L18.7099 17.6661C18.0719 17.0285 17.8528 15.9414 18.5133 15.1061C19.0709 14.4011 19.8645 14.1009 21.1651 14.4542C23.0643 14.969 23.9099 16.2866 25.3215 17.3494C24.7396 19.2622 24.3579 21.1816 24.0135 22.9026L23.8018 24.1863C22.7929 29.4789 22.0221 32.3859 20.0197 34.0545C19.6163 34.3418 19.0395 34.7711 18.1707 34.802C17.7142 34.8157 17.5671 34.5019 17.5608 34.3647C17.5508 34.0457 17.82 33.8985 17.9989 33.7555C18.267 33.6094 18.6715 33.3672 18.6435 32.5916C18.6147 31.6756 17.8554 30.8809 16.7587 30.9171C15.9367 30.9447 14.6844 31.7177 14.7316 33.1337C14.7799 34.5966 16.1429 35.6922 18.1984 35.6229C19.2969 35.5853 21.7507 35.1391 24.168 32.2653C26.9821 28.9703 27.7694 25.1942 28.3616 22.4299L29.0228 18.7802C29.3886 18.8241 29.7821 18.8539 30.2091 18.8643C33.7139 18.9384 35.4663 17.1237 35.4929 15.8027C35.5109 15.0036 34.9692 14.2163 34.2099 14.2351C33.6675 14.2502 32.9856 14.612 32.8226 15.3624C32.6618 16.0981 33.9374 16.763 32.9406 17.4102C32.2326 17.8682 30.9636 18.1905 29.1759 17.9291L29.5007 16.1324C30.1642 12.7257 30.9825 8.5358 34.0867 8.43328C34.3135 8.42259 35.1403 8.44287 35.1599 8.99086C35.165 9.17266 35.1197 9.2206 34.9058 9.63879C34.6875 9.96478 34.6056 10.2436 34.6163 10.5622C34.6458 11.431 35.307 12.0033 36.2651 11.9701C37.5458 11.9274 37.9131 10.6809 37.8921 10.0404C37.8382 8.53396 36.2514 7.58254 34.1528 7.65187Z" fill="#EDC951"/>
<path d="M32.7887 49.9739C34.8774 49.9739 36.2791 51.4836 36.2791 53.5716C36.2791 55.5401 34.8509 57.17 32.7887 57.17C30.7136 57.17 29.2847 55.5401 29.2847 53.5716C29.285 51.4836 30.6864 49.9739 32.7887 49.9739ZM32.7887 56.1463C34.2704 56.1463 34.9309 54.7988 34.9309 53.5716C34.9309 52.265 34.1365 50.9979 32.7887 50.9979C31.4283 50.9979 30.6329 52.265 30.6329 53.5716C30.6333 54.7988 31.293 56.1463 32.7887 56.1463Z" fill="#1D1D1D"/>
<path d="M29.1115 50.6134V50.1351H27.292V49.482C27.292 48.5523 27.4266 47.8505 28.5178 47.8505C28.5388 47.8505 28.5594 47.852 28.5804 47.8528C28.5827 47.8528 28.5827 47.8498 28.5856 47.8498C28.8873 47.8723 29.1395 47.6252 29.1568 47.3225L29.1793 46.9076C28.923 46.8667 28.6527 46.8261 28.33 46.8261C26.4574 46.8261 26.026 47.918 26.026 49.5897V50.1351H24.4082V50.6687C24.4491 50.9452 24.6863 51.1584 24.975 51.1584C24.9765 51.1584 24.978 51.1599 24.9794 51.1599H26.026V57.0082H26.7241C26.7255 57.0082 26.7248 57.0074 26.7263 57.0074C27.0158 57.0074 27.2536 56.7906 27.2923 56.5111V51.1595H28.5594C28.8585 51.1499 29.0978 50.9117 29.1115 50.6134Z" fill="#1D1D1D"/>
<path d="M12.2378 50.135C12.2352 50.135 12.2341 50.1365 12.2311 50.1365C11.9638 50.1365 11.7053 50.3201 11.5928 50.5679L9.84927 55.8229H9.82235L8.11754 50.5709C8.00617 50.3216 7.74619 50.1365 7.47773 50.1365C7.47515 50.1365 7.47404 50.135 7.47109 50.135H6.58789L8.91924 56.5501C9.00074 56.7791 9.16226 57.1298 9.16226 57.2777C9.16226 57.4123 8.78464 58.9759 7.65216 58.9759C7.62413 58.9759 7.5961 58.9729 7.56808 58.9707C7.27933 58.9548 7.06102 59.1566 7.01234 59.4671L6.97805 59.9055C7.20705 59.9457 7.43679 59.9999 7.84133 59.9999C9.51185 59.9999 10.0108 58.4765 10.4824 57.1564L13.0163 50.1346H12.2378V50.135Z" fill="#1D1D1D"/>
<path d="M4.18473 51.5315C3.13817 50.9965 1.99388 50.6325 1.9736 49.5561C1.97692 48.4114 3.02791 48.1112 3.83809 48.1127C3.84141 48.112 3.8451 48.112 3.84657 48.112C4.19838 48.112 4.47975 48.1466 4.75411 48.2071C4.75816 48.2071 4.75743 48.2027 4.76185 48.2027C5.05207 48.2237 5.29546 47.9965 5.33012 47.7107L5.35299 47.2951C4.82233 47.1635 4.26697 47.0964 3.78425 47.0964C2.02264 47.1071 0.715363 47.994 0.710938 49.6844C0.71315 51.1631 1.70993 51.7355 2.7812 52.2551C3.83256 52.7599 4.98348 53.1777 4.99344 54.3972C4.9868 55.6706 3.7588 56.1404 2.91211 56.1415C2.41686 56.14 1.87919 56.0161 1.42672 55.8734C1.14277 55.8266 0.910073 56.0773 0.873565 56.4085L0.835213 56.7787C1.45769 56.9805 2.09603 57.1553 2.73769 57.1553C2.73769 57.1553 2.73842 57.1553 2.73953 57.1553C2.74137 57.1553 2.74285 57.1553 2.7458 57.1553C4.71871 57.1409 6.25167 56.3543 6.25758 54.3117C6.25462 52.7352 5.25158 52.074 4.18473 51.5315Z" fill="#1D1D1D"/>
<path d="M23.3447 57.0085C23.3454 57.0085 23.3454 57.0078 23.3461 57.0078C23.6198 57.0078 23.8473 56.8167 23.9059 56.5597V52.6021C23.9059 51.106 23.2727 49.9739 21.5196 49.9739C20.9001 49.9739 19.8631 50.3246 19.3915 51.3084C19.0271 50.378 18.2324 49.9739 17.4374 49.9739C16.4262 49.9739 15.7392 50.3375 15.2546 51.1329H15.2273V50.7059C15.2229 50.391 14.9688 50.1369 14.6532 50.1369C14.651 50.1369 14.6495 50.1354 14.6473 50.1354H14.041V57.0089H14.7269C14.7277 57.0089 14.7277 57.0081 14.7284 57.0081C15.0459 57.0081 15.3033 56.7511 15.3033 56.434C15.3033 56.4255 15.3063 56.4218 15.3081 56.4159V53.5458C15.3081 52.265 15.8196 50.9983 17.1132 50.9983C18.1373 50.9983 18.3405 52.063 18.3405 52.9119V57.0085H19.0356C19.0363 57.0085 19.0363 57.0078 19.0378 57.0078C19.3373 57.0078 19.5803 56.778 19.6068 56.4856V53.5454C19.6068 52.2647 20.119 50.9979 21.4123 50.9979C22.4364 50.9979 22.6388 52.0626 22.6388 52.9115V57.0081H23.3447V57.0085Z" fill="#1D1D1D"/>
<path d="M42.9205 57.0085C42.922 57.0085 42.922 57.0078 42.9227 57.0078C43.231 57.0078 43.4803 56.7644 43.4947 56.4598V52.9255C43.4947 51.0794 42.6989 49.9739 40.9199 49.9739C39.9633 49.9739 39.0481 50.4455 38.6697 51.2277H38.6432V50.714C38.6432 50.7133 38.6417 50.7133 38.6417 50.7118C38.6417 50.3943 38.3847 50.1361 38.0675 50.1361C38.0646 50.1361 38.0631 50.1347 38.0609 50.1347H37.4155V57.0081H38.1121C38.1121 57.0081 38.1121 57.0074 38.1136 57.0074C38.4145 57.0074 38.6594 56.774 38.6834 56.4786V53.8275C38.6834 52.1574 39.3309 50.9976 40.7721 50.9976C41.8776 51.0654 42.2268 51.8469 42.2268 53.4499V57.0078H42.9205V57.0085Z" fill="#1D1D1D"/>
<path d="M49.7395 50.135C49.7373 50.135 49.7365 50.1365 49.7328 50.1365C49.4662 50.1365 49.207 50.3201 49.0949 50.5679L47.3524 55.8229H47.3244L45.6196 50.5709C45.5079 50.3216 45.2479 50.1365 44.9794 50.1365C44.9772 50.1365 44.9757 50.135 44.9735 50.135H44.0903L46.4217 56.5501C46.5024 56.7791 46.6651 57.1298 46.6651 57.2777C46.6651 57.4123 46.2871 58.9759 45.1546 58.9759C45.1266 58.9759 45.0985 58.9729 45.0701 58.9707C44.7821 58.9548 44.5638 59.1566 44.5148 59.4671L44.4809 59.9055C44.7099 59.9457 44.9396 59.9999 45.343 59.9999C47.0147 59.9999 47.5132 58.4765 47.9849 57.1564L50.5187 50.1346H49.7395V50.135Z" fill="#1D1D1D"/>
</svg>
