<svg width="69" height="15" viewBox="0 0 69 15" fill="none" xmlns="http://www.w3.org/2000/svg">
<path d="M14.8008 7.93555C14.8008 9.0944 14.5827 10.084 14.1465 10.9043C13.7168 11.7181 13.1439 12.3626 12.4277 12.8379C11.7181 13.3132 10.9499 13.6549 10.123 13.8633C9.30273 14.0716 8.48242 14.1758 7.66211 14.1758C6.51628 14.1758 5.39974 13.9805 4.3125 13.5898C3.23177 13.1992 2.32682 12.5352 1.59766 11.5977C0.86849 10.6602 0.503906 9.43945 0.503906 7.93555V0.464844H4.57617V6.88086C4.57617 7.77279 4.70312 8.51172 4.95703 9.09766C5.21745 9.67708 5.57552 10.1035 6.03125 10.377C6.49349 10.6439 7.03711 10.7773 7.66211 10.7773C8.26107 10.7773 8.79167 10.6439 9.25391 10.377C9.71615 10.11 10.0742 9.68685 10.3281 9.10742C10.5885 8.52799 10.7188 7.79232 10.7188 6.90039V0.464844H14.8008V7.93555ZM22.1055 14H18.0234V0.464844H22.1055V14ZM34.1074 0.279297L26.7441 14.1758H24.127L31.4805 0.279297H34.1074ZM50.2109 7.93555C50.2109 9.0944 49.9928 10.084 49.5566 10.9043C49.127 11.7181 48.554 12.3626 47.8379 12.8379C47.1283 13.3132 46.36 13.6549 45.5332 13.8633C44.7129 14.0716 43.8926 14.1758 43.0723 14.1758C41.9264 14.1758 40.8099 13.9805 39.7227 13.5898C38.6419 13.1992 37.737 12.5352 37.0078 11.5977C36.2786 10.6602 35.9141 9.43945 35.9141 7.93555V0.464844H39.9863V6.88086C39.9863 7.77279 40.1133 8.51172 40.3672 9.09766C40.6276 9.67708 40.9857 10.1035 41.4414 10.377C41.9036 10.6439 42.4473 10.7773 43.0723 10.7773C43.6712 10.7773 44.2018 10.6439 44.6641 10.377C45.1263 10.11 45.4844 9.68685 45.7383 9.10742C45.9987 8.52799 46.1289 7.79232 46.1289 6.90039V0.464844H50.2109V7.93555ZM68.6973 14H63.4531L62.0176 12.3008C61.972 12.2357 61.6888 11.8906 61.168 11.2656C60.6471 10.6341 60.3021 10.2044 60.1328 9.97656C59.3516 11.0312 58.7135 11.8646 58.2188 12.4766L56.9785 14H51.8125L57.5547 6.95898L52.0762 0.464844H57.291L58.2188 1.59766C58.7526 2.25521 59.3906 3.07552 60.1328 4.05859C60.8424 3.01693 61.4089 2.24544 61.832 1.74414L62.8965 0.464844H68.0137L62.75 6.95898L68.6973 14Z" fill="#B5B7BF" fill-opacity="0.5"/>
</svg>
