<svg width="86" height="30" viewBox="0 0 86 30" fill="none" xmlns="http://www.w3.org/2000/svg">
<path fill-rule="evenodd" clip-rule="evenodd" d="M28.5519 0.00610352H35.445L18.0396 30L0.519531 0.00610352H7.56945L18.0396 18.063L28.5519 0.00610352Z" fill="#1D1D1D"/>
<path fill-rule="evenodd" clip-rule="evenodd" d="M22.0377 0H28.5936L18.0306 18.0945L7.55225 0H14.0057L18.0306 6.96611L22.0377 0Z" fill="#1D1D1D" fill-opacity="0.8"/>
<path fill-rule="evenodd" clip-rule="evenodd" d="M39.5581 5.92137C39.5581 5.7001 39.6809 5.51571 39.9266 5.36818C40.1723 5.22067 40.4291 5.14691 40.6971 5.14691C41.0693 5.14691 41.3 5.28705 41.3894 5.56734L45.3199 18.7107L49.2282 5.56734C49.3324 5.28706 49.5557 5.14691 49.8981 5.14691C50.181 5.14691 50.4453 5.22804 50.6909 5.39031C50.9366 5.55257 51.0594 5.73696 51.0594 5.94349C51.0594 5.95824 51.0558 5.98037 51.0483 6.00987C51.0408 6.03937 51.0371 6.06888 51.0371 6.09838L46.5036 20.8129C46.3398 21.2406 45.9453 21.4545 45.32 21.4545C44.6946 21.4545 44.315 21.2406 44.181 20.8129L39.603 6.09838C39.5732 6.00987 39.5583 5.95087 39.5583 5.92137H39.5581ZM51.2354 17.2502V11.4974C51.2354 11.3203 51.3285 11.1655 51.5146 11.0327C51.7007 10.8999 51.9203 10.8335 52.1734 10.8335C52.4116 10.8335 52.6238 10.9036 52.8099 11.0438C52.996 11.1839 53.089 11.3351 53.089 11.4973V17.2502C53.089 17.914 53.3421 18.5114 53.8483 19.0425C54.3546 19.5735 54.9575 19.8391 55.6573 19.8391C56.3422 19.8391 56.9377 19.5772 57.4439 19.0536C57.9501 18.5299 58.2032 17.9288 58.2032 17.2502V11.4749C58.2032 11.3126 58.2963 11.1651 58.4824 11.0324C58.6685 10.8996 58.8881 10.8332 59.1412 10.8332C59.4092 10.8332 59.6288 10.8959 59.8 11.0213C59.9712 11.1467 60.0568 11.2979 60.0568 11.4749V17.2502C60.0568 18.3861 59.6213 19.3781 58.7504 20.2263C57.8794 21.0745 56.8484 21.4986 55.6573 21.4986C54.4514 21.4986 53.4129 21.0745 52.5419 20.2263C51.671 19.3781 51.2355 18.3861 51.2355 17.2502H51.2354ZM61.5724 17.206V14.8826C61.5724 13.7468 62.0079 12.7658 62.8789 11.9397C63.7498 11.1137 64.7958 10.7006 66.0166 10.7006C67.178 10.7006 68.1829 11.0879 69.0315 11.8623C69.8802 12.6368 70.3045 13.6067 70.3045 14.772C70.3045 15.1998 70.2524 15.5428 70.1482 15.8009C70.044 16.0591 69.8839 16.2435 69.668 16.3541C69.4522 16.4648 69.2512 16.5348 69.065 16.5643C68.8789 16.5938 68.6295 16.6086 68.3169 16.6086H63.4259V17.2724C63.4259 18.0837 63.72 18.7328 64.3081 19.2196C64.8962 19.7064 65.6592 19.9498 66.5972 19.9498C67.0885 19.9498 67.5166 19.876 67.8813 19.7285C68.2461 19.581 68.5401 19.4372 68.7635 19.297C68.9868 19.1569 69.1654 19.0868 69.2994 19.0868C69.5079 19.0868 69.6865 19.179 69.8354 19.3634C69.9843 19.5478 70.0588 19.7359 70.0588 19.9276C70.0588 20.2669 69.72 20.6136 69.0426 20.9676C68.3652 21.3216 67.5277 21.4986 66.5302 21.4986C65.0711 21.4986 63.8801 21.104 62.957 20.3149C62.0339 19.5257 61.5724 18.4894 61.5724 17.206L61.5724 17.206ZM63.426 15.3694H67.5576C67.9447 15.3694 68.2052 15.3215 68.3392 15.2256C68.4733 15.1297 68.5402 14.9417 68.5402 14.6614C68.5402 13.9976 68.2946 13.4149 67.8032 12.9134C67.3119 12.4118 66.709 12.161 65.9943 12.161C65.2945 12.161 64.6916 12.3934 64.1854 12.858C63.6791 13.3227 63.426 13.8943 63.426 14.5728L63.426 15.3694ZM71.2398 20.3037C71.2398 19.9792 71.3514 19.7026 71.5747 19.4739C71.7981 19.2453 72.0735 19.131 72.4011 19.131C72.7137 19.131 72.9817 19.2453 73.205 19.4739C73.4283 19.7026 73.54 19.9792 73.54 20.3037C73.54 20.6135 73.4283 20.8827 73.205 21.1113C72.9817 21.34 72.7137 21.4543 72.4011 21.4543C72.0735 21.4543 71.7981 21.34 71.5747 21.1113C71.3514 20.8827 71.2398 20.6135 71.2398 20.3037ZM72.8896 25.5921C72.8896 25.3561 72.964 25.1606 73.1129 25.0057C73.2618 24.8508 73.4405 24.7734 73.6489 24.7734C74.2295 24.7734 74.6092 24.5595 74.7879 24.1317C74.9666 23.704 75.0559 23.0623 75.0559 22.2067V11.4751C75.0559 11.2833 75.1415 11.1284 75.3127 11.0104C75.4839 10.8924 75.7035 10.8334 75.9715 10.8334C76.2395 10.8334 76.4628 10.8924 76.6415 11.0104C76.8202 11.1284 76.9095 11.2833 76.9095 11.4751V22.2067C76.9095 23.4901 76.6564 24.5079 76.1502 25.2602C75.644 26.0125 74.8772 26.3887 73.8499 26.3887C73.2097 26.3887 72.8896 26.1232 72.8896 25.5921L72.8896 25.5921ZM74.8102 6.89476C74.8102 6.61449 74.9219 6.37111 75.1452 6.16457C75.3685 5.95805 75.644 5.8548 75.9715 5.8548C76.2841 5.8548 76.5521 5.95806 76.7754 6.16457C76.9988 6.37109 77.1104 6.61449 77.1104 6.89476C77.1104 7.17503 76.9988 7.42213 76.7754 7.63602C76.5521 7.84991 76.2841 7.95686 75.9715 7.95686C75.6588 7.95686 75.3871 7.84992 75.1563 7.63602C74.9256 7.42213 74.8102 7.17503 74.8102 6.89476H74.8102ZM78.2913 19.8168C78.2913 19.625 78.3545 19.4369 78.4811 19.2525C78.6077 19.0681 78.7603 18.976 78.9389 18.976C79.058 18.976 79.2292 19.0645 79.4526 19.2415C79.6759 19.4185 79.996 19.5918 80.4129 19.7614C80.8297 19.9311 81.321 20.0159 81.8868 20.0159C82.6312 20.0159 83.1709 19.8831 83.5059 19.6176C83.8409 19.3521 84.0084 19.0202 84.0084 18.6219C84.0084 18.1351 83.8223 17.7479 83.4501 17.4602C83.0779 17.1726 82.6238 16.955 82.0878 16.8075C81.5518 16.66 81.0158 16.4977 80.4798 16.3207C79.9438 16.1437 79.4897 15.8486 79.1175 15.4356C78.7453 15.0226 78.5592 14.4768 78.5592 13.7982C78.5592 12.9574 78.8607 12.2309 79.4636 11.6187C80.0666 11.0065 80.986 10.7005 82.2217 10.7005C83.0108 10.7005 83.7329 10.8222 84.388 11.0656C85.0431 11.309 85.3706 11.5855 85.3706 11.8953C85.3706 12.0723 85.2999 12.2714 85.1585 12.4927C85.017 12.714 84.8421 12.8246 84.6336 12.8246C84.5741 12.8246 84.2875 12.7177 83.7738 12.5038C83.2602 12.2899 82.7502 12.1829 82.244 12.1829C81.5592 12.1829 81.0492 12.3415 80.7143 12.6587C80.3793 12.9758 80.2118 13.3336 80.2118 13.7318C80.2118 14.1449 80.3979 14.4694 80.7701 14.7054C81.1423 14.9414 81.6001 15.1258 82.1435 15.2586C82.687 15.3914 83.2267 15.5536 83.7627 15.7454C84.2987 15.9372 84.7527 16.2654 85.125 16.73C85.4972 17.1947 85.6833 17.7958 85.6833 18.5334C85.6833 19.448 85.3558 20.1708 84.7007 20.7018C84.0456 21.2329 83.1299 21.4984 81.9538 21.4984C80.9413 21.4984 80.0778 21.3177 79.3632 20.9563C78.6485 20.5949 78.2912 20.215 78.2912 19.8167L78.2913 19.8168Z" fill="#1D1D1D"/>
</svg>
