<svg width="165" height="34" viewBox="0 0 165 34" fill="none" xmlns="http://www.w3.org/2000/svg">
<path d="M71.0857 8.23835V7.43835C71.0857 7.23835 70.9857 7.03835 70.5857 7.03835C70.1857 6.93835 69.2857 6.93835 68.4857 6.93835C66.2857 6.93835 64.8857 7.73835 64.8857 10.2384V24.3384C64.8857 24.6384 65.0857 24.8384 65.3857 24.8384H66.4857C66.7857 24.8384 66.9857 24.6384 66.9857 24.3384V13.4384H70.6857C70.9857 13.4384 71.0857 13.2384 71.0857 13.0384V12.2384C71.0857 11.9384 70.8857 11.8384 70.6857 11.8384H66.8857V10.2384C66.8857 8.83835 67.1857 8.63835 68.4857 8.63835H70.5857C70.8857 8.53835 71.0857 8.43835 71.0857 8.23835ZM78.5857 13.0384V11.9384C78.5857 11.6384 78.3857 11.5384 78.0857 11.5384C76.0857 11.5384 74.4857 11.6384 73.1857 12.2384C72.8857 12.3384 72.7857 12.5384 72.7857 12.7384V24.1384C72.7857 24.4384 72.9857 24.6384 73.1857 24.6384H74.3857C74.6857 24.6384 74.7857 24.4384 74.7857 24.1384V13.6384C75.6857 13.4384 76.4857 13.4384 78.0857 13.4384C78.5857 13.4384 78.5857 13.3384 78.5857 13.0384ZM88.8857 23.8384V12.7384C88.8857 12.4384 88.7857 12.3384 88.3857 12.2384C87.0857 11.9384 85.4857 11.7384 83.9857 11.7384C80.4857 11.7384 78.7857 14.0384 78.7857 17.5384V19.1384C78.7857 22.6384 80.3857 24.9384 83.9857 24.9384C85.3857 24.9384 87.0857 24.7384 88.3857 24.4384C88.7857 24.2384 88.8857 24.1384 88.8857 23.8384ZM86.7857 22.9384C86.0857 23.0384 84.9857 23.1384 83.9857 23.1384C81.6857 23.1384 80.8857 21.5384 80.8857 19.0384V17.4384C80.8857 14.9384 81.5857 13.3384 83.9857 13.3384C84.9857 13.3384 86.0857 13.4384 86.7857 13.5384V22.9384ZM105.986 24.2384V15.7384C105.986 13.3384 104.586 11.6384 101.786 11.6384H101.286C99.8857 11.6384 98.8857 11.8384 98.1857 12.4384C97.4857 11.7384 96.4857 11.6384 95.0857 11.6384H94.5857C91.7857 11.6384 90.3857 13.3384 90.3857 15.7384V24.2384C90.3857 24.5384 90.5857 24.7384 90.7857 24.7384H91.9857C92.2857 24.7384 92.3857 24.5384 92.3857 24.2384V15.7384C92.3857 13.7384 93.2857 13.4384 94.4857 13.4384H94.9857C96.4857 13.4384 96.9857 13.7384 96.9857 15.0384V24.2384C96.9857 24.5384 97.1857 24.7384 97.3857 24.7384H98.5857C98.8857 24.7384 98.9857 24.5384 98.9857 24.2384V15.0384C98.9857 13.7384 99.4857 13.4384 100.986 13.4384H101.486C102.786 13.4384 103.586 13.7384 103.586 15.7384V24.2384C103.586 24.5384 103.786 24.7384 103.986 24.7384H105.186C105.886 24.7384 105.986 24.5384 105.986 24.2384ZM117.586 18.4384V17.1384C117.586 13.8384 115.786 11.6384 112.386 11.6384C108.986 11.6384 107.086 13.7384 107.086 17.1384V19.2384C107.086 23.6384 109.686 24.9384 112.486 24.9384C114.086 24.9384 115.386 24.8384 116.686 24.5384C117.086 24.4384 117.186 24.3384 117.186 24.0384V23.2384C117.186 23.0384 116.986 22.9384 116.786 22.9384H116.686C115.586 23.1384 113.886 23.2384 112.486 23.2384C110.286 23.2384 109.186 22.2384 109.186 19.4384V18.9384H117.086C117.386 18.9384 117.586 18.7384 117.586 18.4384ZM115.486 17.3384H109.186V17.1384C109.186 14.6384 110.286 13.4384 112.386 13.4384C114.486 13.4384 115.486 14.4384 115.486 17.1384V17.3384ZM134.786 19.6384V12.2384C134.786 11.9384 134.586 11.7384 134.286 11.7384H133.186C132.886 11.7384 132.686 11.9384 132.686 12.2384V19.6384C132.686 22.2384 131.686 23.1384 129.786 23.1384C129.186 23.1384 128.586 23.0384 127.886 22.8384V12.2384C127.886 11.9384 127.686 11.7384 127.386 11.7384H126.186C125.886 11.7384 125.686 11.9384 125.686 12.2384V22.8384C124.986 23.0384 124.386 23.1384 123.786 23.1384C121.786 23.1384 120.886 22.2384 120.886 19.6384V12.2384C120.886 11.9384 120.686 11.7384 120.386 11.7384H119.286C118.986 11.7384 118.786 11.9384 118.786 12.2384V19.6384C118.786 23.8384 121.086 24.9384 123.586 24.9384C124.786 24.9384 125.786 24.7384 126.686 24.3384C127.686 24.7384 128.586 24.9384 129.786 24.9384C132.486 24.9384 134.786 23.8384 134.786 19.6384ZM146.886 19.1384V17.3384C146.886 13.8384 145.086 11.6384 141.586 11.6384C138.086 11.6384 136.286 13.9384 136.286 17.3384V19.1384C136.286 22.6384 138.086 24.8384 141.586 24.8384C145.086 24.9384 146.886 22.6384 146.886 19.1384ZM144.786 19.1384C144.786 21.5384 143.786 23.0384 141.586 23.0384C139.386 23.0384 138.386 21.5384 138.386 19.1384V17.3384C138.386 14.9384 139.386 13.4384 141.586 13.4384C143.786 13.4384 144.786 14.9384 144.786 17.3384V19.1384ZM154.286 13.0384V11.9384C154.286 11.6384 154.086 11.5384 153.786 11.5384C151.786 11.5384 150.186 11.6384 148.886 12.2384C148.586 12.3384 148.486 12.5384 148.486 12.7384V24.1384C148.486 24.4384 148.686 24.6384 148.886 24.6384H150.086C150.386 24.6384 150.486 24.4384 150.486 24.1384V13.6384C151.386 13.4384 152.186 13.4384 153.786 13.4384C154.286 13.4384 154.286 13.3384 154.286 13.0384ZM164.886 24.4384C164.886 24.3384 164.886 24.2384 164.786 24.2384L159.486 17.9384L164.686 12.3384C164.786 12.2384 164.786 12.1384 164.786 12.0384C164.786 11.9384 164.686 11.7384 164.386 11.7384H162.886C162.686 11.7384 162.586 11.7384 162.386 11.9384L157.686 17.2384V7.53835C157.686 7.23835 157.486 7.03835 157.186 7.03835H156.086C155.786 7.03835 155.586 7.23835 155.586 7.53835V24.3384C155.586 24.6384 155.786 24.8384 156.086 24.8384H157.186C157.486 24.8384 157.686 24.6384 157.686 24.3384V18.7384L162.386 24.5384C162.586 24.7384 162.686 24.8384 162.886 24.8384H164.586C164.786 24.7384 164.886 24.6384 164.886 24.4384Z" fill="#1D1D1D"/>
<path d="M61.3861 24.1383V9.23833C61.3861 8.93833 61.1861 8.73833 60.8861 8.73833H58.6861C58.3861 8.73833 58.1861 8.93833 58.1861 9.23833V24.1383C58.1861 24.4383 58.3861 24.6383 58.6861 24.6383H60.8861C61.1861 24.5383 61.3861 24.3383 61.3861 24.1383ZM49.9861 24.5383V8.83833C48.7861 8.83833 46.8861 9.63833 46.8861 11.3383V22.0383C46.1861 22.1383 45.1861 22.2383 44.5861 22.2383C42.5861 22.2383 42.0861 20.8383 42.0861 18.9383V11.2383C41.9861 9.33833 39.8861 8.83833 38.9861 8.83833V18.8383C38.9861 22.4383 40.7861 24.7383 44.5861 24.7383C45.1861 24.7383 46.3861 24.5383 46.8861 24.4383V24.6383C47.3861 27.7383 43.5861 26.5383 41.5861 26.3383C40.0861 26.3383 39.0861 27.5383 38.7861 28.9383C39.6861 29.2383 42.4861 29.5383 44.4861 29.7383C48.0861 29.8383 49.9861 27.8383 49.9861 24.5383ZM55.6861 24.1383V9.23833C55.6861 8.93833 55.4861 8.73833 55.1861 8.73833H52.9861C52.6861 8.73833 52.4861 8.93833 52.4861 9.23833V24.1383C52.4861 24.4383 52.6861 24.6383 52.9861 24.6383H55.1861C55.4861 24.5383 55.6861 24.3383 55.6861 24.1383ZM54.0861 4.53833C54.9861 4.53833 55.6861 5.23833 55.6861 6.13833C55.6861 7.03833 54.9861 7.73833 54.0861 7.73833C53.1861 7.73833 52.4861 7.03833 52.4861 6.13833C52.4861 5.33833 53.1861 4.53833 54.0861 4.53833ZM59.8861 4.53833C60.7861 4.53833 61.4861 5.23833 61.4861 6.13833C61.4861 7.03833 60.7861 7.73833 59.8861 7.73833C58.9861 7.73833 58.2861 7.03833 58.2861 6.13833C58.2861 5.33833 58.9861 4.53833 59.8861 4.53833Z" fill="#1D1D1D"/>
<path fill-rule="evenodd" clip-rule="evenodd" d="M20.0614 9.48525C18.4995 4.97705 23.0648 0.144125 26.8204 -2.67029e-05C29.0707 1.17393 31.0029 4.25679 30.9062 8.44026C30.6114 13.5944 26.9645 18.0363 22.9955 22.1287C22.7745 17.1385 21.7153 13.9575 20.0614 9.48525Z" fill="#1D1D1D"/>
<path fill-rule="evenodd" clip-rule="evenodd" d="M11.2076 33.8967C10.5789 28.8645 12.6218 24.5717 14.6495 21.9542C15.6131 20.7251 16.3541 19.6038 16.9176 18.5709C17.9828 19.0322 20.8461 20.5344 22.4237 22.9734C22.1946 26.5115 19.5801 32.9503 11.2071 33.8967" fill="#1D1D1D"/>
<path fill-rule="evenodd" clip-rule="evenodd" d="M8.04325 14.784C1.37934 12.9201 -0.264508 7.06547 0.0329023 3.12883C6.50411 0.505747 13.4685 3.19255 17.4896 8.79277C20.3089 12.7178 22.0742 17.75 22.4323 22.1418C20.4981 19.5891 18.0551 18.1101 14.9434 16.9518C12.815 16.1603 10.8489 15.6357 8.04325 14.784Z" fill="#1D1D1D"/>
</svg>
