<svg width="202" height="86" viewBox="0 0 202 86" fill="none" xmlns="http://www.w3.org/2000/svg">
<path opacity="0.7" d="M136.16 63.0682C136.16 64.3772 135.099 65.4386 133.787 65.4386C132.475 65.4386 131.414 64.3772 131.414 63.0682C131.414 61.7562 132.475 60.6948 133.787 60.6948C135.099 60.6948 136.16 61.7562 136.16 63.0682Z" fill="#B5B7BF"/>
<path opacity="0.7" d="M158.062 63.0682C158.062 64.3772 157.001 65.4386 155.689 65.4386C154.38 65.4386 153.315 64.3772 153.315 63.0682C153.315 61.7562 154.377 60.6948 155.689 60.6948C156.998 60.6948 158.062 61.7562 158.062 63.0682Z" fill="#B5B7BF"/>
<path opacity="0.7" d="M201.867 63.0682C201.867 64.3772 200.806 65.4386 199.494 65.4386C198.185 65.4386 197.12 64.3772 197.12 63.0682C197.12 61.7562 198.182 60.6948 199.494 60.6948C200.802 60.6948 201.867 61.7562 201.867 63.0682Z" fill="#B5B7BF"/>
<path opacity="0.7" d="M136.16 42.9702C136.16 44.2791 135.099 45.3406 133.787 45.3406C132.475 45.3406 131.414 44.2791 131.414 42.9702C131.414 41.6582 132.475 40.5968 133.787 40.5968C135.099 40.5968 136.16 41.6582 136.16 42.9702Z" fill="#B5B7BF"/>
<path opacity="0.7" d="M158.062 42.9702C158.062 44.2791 157.001 45.3406 155.689 45.3406C154.38 45.3406 153.315 44.2791 153.315 42.9702C153.315 41.6582 154.377 40.5968 155.689 40.5968C156.998 40.5968 158.062 41.6582 158.062 42.9702Z" fill="#B5B7BF"/>
<path opacity="0.7" d="M179.965 42.9702C179.965 44.2791 178.903 45.3406 177.591 45.3406C176.282 45.3406 175.218 44.2791 175.218 42.9702C175.218 41.6582 176.279 40.5968 177.591 40.5968C178.9 40.5968 179.965 41.6582 179.965 42.9702Z" fill="#B5B7BF"/>
<path opacity="0.7" d="M201.867 42.9702C201.867 44.2791 200.806 45.3406 199.494 45.3406C198.185 45.3406 197.12 44.2791 197.12 42.9702C197.12 41.6582 198.182 40.5968 199.494 40.5968C200.802 40.5968 201.867 41.6582 201.867 42.9702Z" fill="#B5B7BF"/>
<path opacity="0.7" d="M136.16 22.872C136.16 24.1809 135.099 25.2454 133.787 25.2454C132.475 25.2454 131.414 24.1809 131.414 22.872C131.414 21.5599 132.475 20.4986 133.787 20.4986C135.099 20.4986 136.16 21.563 136.16 22.872Z" fill="#B5B7BF"/>
<path opacity="0.7" d="M158.062 22.872C158.062 24.1809 157.001 25.2454 155.689 25.2454C154.38 25.2454 153.315 24.1809 153.315 22.872C153.315 21.5599 154.377 20.4986 155.689 20.4986C156.998 20.4986 158.062 21.563 158.062 22.872Z" fill="#B5B7BF"/>
<path opacity="0.7" d="M179.965 22.872C179.965 24.1809 178.903 25.2454 177.591 25.2454C176.282 25.2454 175.218 24.1809 175.218 22.872C175.218 21.5599 176.279 20.4986 177.591 20.4986C178.9 20.4986 179.965 21.563 179.965 22.872Z" fill="#B5B7BF"/>
<path opacity="0.7" d="M201.867 22.872C201.867 24.1809 200.806 25.2454 199.494 25.2454C198.185 25.2454 197.12 24.1809 197.12 22.872C197.12 21.5599 198.182 20.4986 199.494 20.4986C200.802 20.4986 201.867 21.563 201.867 22.872Z" fill="#B5B7BF"/>
<path opacity="0.7" d="M158.062 2.77688C158.062 4.08582 157.001 5.15027 155.689 5.15027C154.38 5.15027 153.315 4.08891 153.315 2.77688C153.315 1.46794 154.377 0.403417 155.689 0.403417C156.998 0.403417 158.062 1.46485 158.062 2.77688Z" fill="#B5B7BF"/>
<path opacity="0.7" d="M179.965 2.77688C179.965 4.08582 178.903 5.15027 177.591 5.15027C176.282 5.15027 175.218 4.08891 175.218 2.77688C175.218 1.46794 176.279 0.403417 177.591 0.403417C178.9 0.403417 179.965 1.46485 179.965 2.77688Z" fill="#B5B7BF"/>
<path opacity="0.7" d="M201.867 2.77688C201.867 4.08582 200.806 5.15027 199.494 5.15027C198.185 5.15027 197.12 4.08891 197.12 2.77688C197.12 1.46794 198.182 0.403417 199.494 0.403417C200.802 0.403417 201.867 1.46485 201.867 2.77688Z" fill="#B5B7BF"/>
<path opacity="0.7" d="M70.4534 63.0682C70.4534 64.3772 69.392 65.4386 68.08 65.4386C66.7679 65.4386 65.7065 64.3772 65.7065 63.0682C65.7065 61.7562 66.7679 60.6948 68.08 60.6948C69.392 60.6948 70.4534 61.7562 70.4534 63.0682Z" fill="#B5B7BF"/>
<path opacity="0.7" d="M92.3557 63.0682C92.3557 64.3772 91.2943 65.4386 89.9823 65.4386C88.6734 65.4386 87.6089 64.3772 87.6089 63.0682C87.6089 61.7562 88.6703 60.6948 89.9823 60.6948C91.2943 60.6948 92.3557 61.7562 92.3557 63.0682Z" fill="#B5B7BF"/>
<path opacity="0.7" d="M114.258 63.0682C114.258 64.3772 113.197 65.4386 111.885 65.4386C110.573 65.4386 109.511 64.3772 109.511 63.0682C109.511 61.7562 110.573 60.6948 111.885 60.6948C113.197 60.6948 114.258 61.7562 114.258 63.0682Z" fill="#B5B7BF"/>
<path opacity="0.7" d="M70.4534 42.9702C70.4534 44.2791 69.392 45.3406 68.08 45.3406C66.7679 45.3406 65.7065 44.2791 65.7065 42.9702C65.7065 41.6582 66.7679 40.5968 68.08 40.5968C69.392 40.5968 70.4534 41.6582 70.4534 42.9702Z" fill="#B5B7BF"/>
<path opacity="0.7" d="M114.258 42.9702C114.258 44.2791 113.197 45.3406 111.885 45.3406C110.573 45.3406 109.511 44.2791 109.511 42.9702C109.511 41.6582 110.573 40.5968 111.885 40.5968C113.197 40.5968 114.258 41.6582 114.258 42.9702Z" fill="#B5B7BF"/>
<path opacity="0.7" d="M70.4534 22.872C70.4534 24.1809 69.392 25.2454 68.08 25.2454C66.7679 25.2454 65.7065 24.184 65.7065 22.872C65.7065 21.5599 66.7679 20.4986 68.08 20.4986C69.392 20.4986 70.4534 21.563 70.4534 22.872Z" fill="#B5B7BF"/>
<path opacity="0.7" d="M136.16 83.148C136.16 84.457 135.099 85.5183 133.787 85.5183C132.475 85.5183 131.414 84.457 131.414 83.148C131.414 81.836 132.475 80.7746 133.787 80.7746C135.099 80.7746 136.16 81.836 136.16 83.148Z" fill="#B5B7BF"/>
<path opacity="0.7" d="M158.062 83.148C158.062 84.457 157.001 85.5183 155.689 85.5183C154.38 85.5183 153.315 84.457 153.315 83.148C153.315 81.836 154.377 80.7746 155.689 80.7746C156.998 80.7746 158.062 81.836 158.062 83.148Z" fill="#B5B7BF"/>
<path opacity="0.7" d="M201.867 83.148C201.867 84.457 200.806 85.5183 199.494 85.5183C198.185 85.5183 197.12 84.457 197.12 83.148C197.12 81.836 198.182 80.7746 199.494 80.7746C200.802 80.7746 201.867 81.836 201.867 83.148Z" fill="#B5B7BF"/>
<path opacity="0.7" d="M70.4534 83.148C70.4534 84.457 69.392 85.5183 68.08 85.5183C66.7679 85.5183 65.7065 84.457 65.7065 83.148C65.7065 81.836 66.7679 80.7746 68.08 80.7746C69.392 80.7746 70.4534 81.836 70.4534 83.148Z" fill="#B5B7BF"/>
<path opacity="0.7" d="M92.3557 83.148C92.3557 84.457 91.2943 85.5183 89.9823 85.5183C88.6734 85.5183 87.6089 84.457 87.6089 83.148C87.6089 81.836 88.6703 80.7746 89.9823 80.7746C91.2943 80.7746 92.3557 81.836 92.3557 83.148Z" fill="#B5B7BF"/>
<path opacity="0.7" d="M114.258 83.148C114.258 84.457 113.197 85.5183 111.885 85.5183C110.573 85.5183 109.511 84.457 109.511 83.148C109.511 81.836 110.573 80.7746 111.885 80.7746C113.197 80.7746 114.258 81.836 114.258 83.148Z" fill="#B5B7BF"/>
<path opacity="0.7" d="M92.3557 22.872C92.3557 24.1809 91.2943 25.2454 89.9823 25.2454C88.6703 25.2454 87.6089 24.184 87.6089 22.872C87.6089 21.5599 88.6703 20.4986 89.9823 20.4986C91.2943 20.4986 92.3557 21.563 92.3557 22.872Z" fill="#B5B7BF"/>
<path opacity="0.7" d="M114.258 22.872C114.258 24.1809 113.197 25.2454 111.885 25.2454C110.573 25.2454 109.511 24.1809 109.511 22.872C109.511 21.5599 110.573 20.4986 111.885 20.4986C113.197 20.4986 114.258 21.563 114.258 22.872Z" fill="#B5B7BF"/>
<path opacity="0.7" d="M70.4534 2.77688C70.4534 4.08582 69.392 5.15027 68.08 5.15027C66.7679 5.15027 65.7065 4.08891 65.7065 2.77688C65.7065 1.46794 66.7679 0.403417 68.08 0.403417C69.392 0.403417 70.4534 1.46485 70.4534 2.77688Z" fill="#B5B7BF"/>
<path opacity="0.7" d="M92.3557 2.77688C92.3557 4.08582 91.2943 5.15027 89.9823 5.15027C88.6703 5.15027 87.6089 4.08891 87.6089 2.77688C87.6089 1.46794 88.6703 0.403417 89.9823 0.403417C91.2943 0.403417 92.3557 1.46485 92.3557 2.77688Z" fill="#B5B7BF"/>
<path opacity="0.7" d="M114.258 2.77688C114.258 4.08582 113.197 5.15027 111.885 5.15027C110.573 5.15027 109.511 4.08891 109.511 2.77688C109.511 1.46794 110.573 0.403417 111.885 0.403417C113.197 0.403417 114.258 1.46485 114.258 2.77688Z" fill="#B5B7BF"/>
<path opacity="0.7" d="M4.74683 63.0682C4.74683 64.3772 3.68546 65.4386 2.37343 65.4386C1.06449 65.4386 0 64.3772 0 63.0682C0 61.7562 1.0614 60.6948 2.37343 60.6948C3.68546 60.6948 4.74683 61.7562 4.74683 63.0682Z" fill="#B5B7BF"/>
<path opacity="0.7" d="M26.6492 63.0682C26.6492 64.3772 25.5878 65.4386 24.2758 65.4386C22.9637 65.4386 21.9023 64.3772 21.9023 63.0682C21.9023 61.7562 22.9637 60.6948 24.2758 60.6948C25.5878 60.6948 26.6492 61.7562 26.6492 63.0682Z" fill="#B5B7BF"/>
<path opacity="0.7" d="M48.5515 63.0682C48.5515 64.3772 47.4901 65.4386 46.1781 65.4386C44.866 65.4386 43.8047 64.3772 43.8047 63.0682C43.8047 61.7562 44.866 60.6948 46.1781 60.6948C47.4901 60.6948 48.5515 61.7562 48.5515 63.0682Z" fill="#B5B7BF"/>
<path opacity="0.7" d="M4.74683 42.9702C4.74683 44.2791 3.68546 45.3406 2.37343 45.3406C1.06449 45.3406 0 44.2791 0 42.9702C0 41.6582 1.0614 40.5968 2.37343 40.5968C3.68546 40.5968 4.74683 41.6582 4.74683 42.9702Z" fill="#B5B7BF"/>
<path opacity="0.7" d="M26.6492 42.9702C26.6492 44.2791 25.5878 45.3406 24.2758 45.3406C22.9637 45.3406 21.9023 44.2791 21.9023 42.9702C21.9023 41.6582 22.9637 40.5968 24.2758 40.5968C25.5878 40.5968 26.6492 41.6582 26.6492 42.9702Z" fill="#B5B7BF"/>
<path opacity="0.7" d="M26.7468 22.3733C26.7468 23.6822 25.6854 24.7437 24.3734 24.7437C23.0614 24.7437 22 23.6822 22 22.3733C22 21.0613 23.0614 19.9999 24.3734 19.9999C25.6854 19.9999 26.7468 21.0613 26.7468 22.3733Z" fill="#B5B7BF"/>
<path opacity="0.7" d="M48.5515 42.9702C48.5515 44.2791 47.4901 45.3406 46.1781 45.3406C44.866 45.3406 43.8047 44.2791 43.8047 42.9702C43.8047 41.6582 44.866 40.5968 46.1781 40.5968C47.4901 40.5968 48.5515 41.6582 48.5515 42.9702Z" fill="#B5B7BF"/>
<path opacity="0.7" d="M4.74683 83.148C4.74683 84.457 3.68546 85.5183 2.37343 85.5183C1.06449 85.5183 0 84.457 0 83.148C0 81.836 1.0614 80.7746 2.37343 80.7746C3.68546 80.7746 4.74683 81.836 4.74683 83.148Z" fill="#B5B7BF"/>
<path opacity="0.7" d="M26.6492 83.148C26.6492 84.457 25.5878 85.5183 24.2758 85.5183C22.9637 85.5183 21.9023 84.457 21.9023 83.148C21.9023 81.836 22.9637 80.7746 24.2758 80.7746C25.5878 80.7746 26.6492 81.836 26.6492 83.148Z" fill="#B5B7BF"/>
<path opacity="0.7" d="M48.5515 22.872C48.5515 24.1809 47.4901 25.2454 46.1781 25.2454C44.866 25.2454 43.8047 24.184 43.8047 22.872C43.8047 21.5599 44.866 20.4986 46.1781 20.4986C47.4901 20.4986 48.5515 21.563 48.5515 22.872Z" fill="#B5B7BF"/>
<path opacity="0.7" d="M4.74683 2.77688C4.74683 4.08582 3.68546 5.15027 2.37343 5.15027C1.06449 5.15027 0 4.08891 0 2.77688C0 1.46485 1.0614 0.403417 2.37343 0.403417C3.68546 0.403417 4.74683 1.46485 4.74683 2.77688Z" fill="#B5B7BF"/>
<path opacity="0.7" d="M26.6492 2.77688C26.6492 4.08582 25.5878 5.15027 24.2758 5.15027C22.9637 5.15027 21.9023 4.08891 21.9023 2.77688C21.9023 1.46485 22.9637 0.403417 24.2758 0.403417C25.5878 0.403417 26.6492 1.46485 26.6492 2.77688Z" fill="#B5B7BF"/>
<path opacity="0.7" d="M48.5515 2.77688C48.5515 4.08582 47.4901 5.15027 46.1781 5.15027C44.866 5.15027 43.8047 4.08891 43.8047 2.77688C43.8047 1.46485 44.866 0.403417 46.1781 0.403417C47.4901 0.403417 48.5515 1.46485 48.5515 2.77688Z" fill="#B5B7BF"/>
</svg>
