<svg width="129" height="228" viewBox="0 0 129 228" fill="none" xmlns="http://www.w3.org/2000/svg">
<path opacity="0.7" d="M51.8606 153.223C50.5517 153.223 49.4902 152.162 49.4902 150.85C49.4902 149.538 50.5517 148.477 51.8606 148.477C53.1726 148.477 54.234 149.538 54.234 150.85C54.234 152.162 53.1726 153.223 51.8606 153.223Z" fill="#B5B7BF"/>
<path opacity="0.7" d="M51.8606 202.716C50.5517 202.716 49.4902 201.654 49.4902 200.342C49.4902 199.033 50.5517 197.969 51.8606 197.969C53.1726 197.969 54.234 199.03 54.234 200.342C54.234 201.651 53.1726 202.716 51.8606 202.716Z" fill="#B5B7BF"/>
<path opacity="0.7" d="M51.8606 227.462C50.5517 227.462 49.4902 226.4 49.4902 225.088C49.4902 223.779 50.5517 222.715 51.8606 222.715C53.1726 222.715 54.234 223.776 54.234 225.088C54.234 226.397 53.1726 227.462 51.8606 227.462Z" fill="#B5B7BF"/>
<path opacity="0.7" d="M76.6047 153.223C75.2958 153.223 74.2344 152.162 74.2344 150.85C74.2344 149.538 75.2958 148.477 76.6047 148.477C77.9168 148.477 78.9781 149.538 78.9781 150.85C78.9781 152.162 77.9168 153.223 76.6047 153.223Z" fill="#B5B7BF"/>
<path opacity="0.7" d="M76.6047 177.969C75.2958 177.969 74.2344 176.908 74.2344 175.596C74.2344 174.287 75.2958 173.223 76.6047 173.223C77.9168 173.223 78.9781 174.284 78.9781 175.596C78.9781 176.905 77.9168 177.969 76.6047 177.969Z" fill="#B5B7BF"/>
<path opacity="0.7" d="M76.6047 202.716C75.2958 202.716 74.2344 201.654 74.2344 200.342C74.2344 199.033 75.2958 197.969 76.6047 197.969C77.9168 197.969 78.9781 199.03 78.9781 200.342C78.9781 201.651 77.9168 202.716 76.6047 202.716Z" fill="#B5B7BF"/>
<path opacity="0.7" d="M76.6047 227.462C75.2958 227.462 74.2344 226.4 74.2344 225.088C74.2344 223.779 75.2958 222.715 76.6047 222.715C77.9168 222.715 78.9781 223.776 78.9781 225.088C78.9781 226.397 77.9168 227.462 76.6047 227.462Z" fill="#B5B7BF"/>
<path opacity="0.7" d="M101.351 153.223C100.042 153.223 98.978 152.162 98.978 150.85C98.978 149.538 100.042 148.477 101.351 148.477C102.663 148.477 103.725 149.538 103.725 150.85C103.725 152.162 102.66 153.223 101.351 153.223Z" fill="#B5B7BF"/>
<path opacity="0.7" d="M101.351 177.969C100.042 177.969 98.978 176.908 98.978 175.596C98.978 174.287 100.042 173.223 101.351 173.223C102.663 173.223 103.725 174.284 103.725 175.596C103.725 176.905 102.66 177.969 101.351 177.969Z" fill="#B5B7BF"/>
<path opacity="0.7" d="M101.351 202.716C100.042 202.716 98.978 201.654 98.978 200.342C98.978 199.033 100.042 197.969 101.351 197.969C102.663 197.969 103.725 199.03 103.725 200.342C103.725 201.651 102.66 202.716 101.351 202.716Z" fill="#B5B7BF"/>
<path opacity="0.7" d="M101.351 227.462C100.042 227.462 98.978 226.4 98.978 225.088C98.978 223.779 100.042 222.715 101.351 222.715C102.663 222.715 103.725 223.776 103.725 225.088C103.725 226.397 102.66 227.462 101.351 227.462Z" fill="#B5B7BF"/>
<path opacity="0.7" d="M126.098 153.223C124.789 153.223 123.725 152.162 123.725 150.85C123.725 149.538 124.786 148.477 126.098 148.477C127.407 148.477 128.471 149.538 128.471 150.85C128.471 152.162 127.41 153.223 126.098 153.223Z" fill="#B5B7BF"/>
<path opacity="0.7" d="M126.098 177.969C124.789 177.969 123.725 176.908 123.725 175.596C123.725 174.287 124.786 173.223 126.098 173.223C127.407 173.223 128.471 174.284 128.471 175.596C128.471 176.905 127.41 177.969 126.098 177.969Z" fill="#B5B7BF"/>
<path opacity="0.7" d="M126.098 202.716C124.789 202.716 123.725 201.654 123.725 200.342C123.725 199.033 124.786 197.969 126.098 197.969C127.407 197.969 128.471 199.03 128.471 200.342C128.471 201.651 127.41 202.716 126.098 202.716Z" fill="#B5B7BF"/>
<path opacity="0.7" d="M126.098 227.462C124.789 227.462 123.725 226.4 123.725 225.088C123.725 223.779 124.786 222.715 126.098 222.715C127.407 222.715 128.471 223.776 128.471 225.088C128.471 226.397 127.41 227.462 126.098 227.462Z" fill="#B5B7BF"/>
<path opacity="0.7" d="M51.8606 78.9851C50.5517 78.9851 49.4902 77.9237 49.4902 76.6117C49.4902 75.2997 50.5517 74.2383 51.8606 74.2383C53.1726 74.2383 54.234 75.2997 54.234 76.6117C54.234 77.9237 53.1726 78.9851 51.8606 78.9851Z" fill="#B5B7BF"/>
<path opacity="0.7" d="M51.8606 103.731C50.5517 103.731 49.4902 102.67 49.4902 101.358C49.4902 100.049 50.5517 98.9844 51.8606 98.9844C53.1726 98.9844 54.234 100.046 54.234 101.358C54.234 102.67 53.1726 103.731 51.8606 103.731Z" fill="#B5B7BF"/>
<path opacity="0.7" d="M51.8606 128.477C50.5517 128.477 49.4902 127.416 49.4902 126.104C49.4902 124.792 50.5517 123.73 51.8606 123.73C53.1726 123.73 54.234 124.792 54.234 126.104C54.234 127.416 53.1726 128.477 51.8606 128.477Z" fill="#B5B7BF"/>
<path opacity="0.7" d="M76.6047 78.9851C75.2958 78.9851 74.2344 77.9237 74.2344 76.6117C74.2344 75.2997 75.2958 74.2383 76.6047 74.2383C77.9168 74.2383 78.9781 75.2997 78.9781 76.6117C78.9781 77.9237 77.9168 78.9851 76.6047 78.9851Z" fill="#B5B7BF"/>
<path opacity="0.7" d="M76.6047 103.731C75.2958 103.731 74.2344 102.67 74.2344 101.358C74.2344 100.049 75.2958 98.9844 76.6047 98.9844C77.9168 98.9844 78.9781 100.046 78.9781 101.358C78.9781 102.67 77.9168 103.731 76.6047 103.731Z" fill="#B5B7BF"/>
<path opacity="0.7" d="M76.6047 128.477C75.2958 128.477 74.2344 127.416 74.2344 126.104C74.2344 124.792 75.2958 123.73 76.6047 123.73C77.9168 123.73 78.9781 124.792 78.9781 126.104C78.9781 127.416 77.9168 128.477 76.6047 128.477Z" fill="#B5B7BF"/>
<path opacity="0.7" d="M101.351 78.9851C100.042 78.9851 98.978 77.9237 98.978 76.6117C98.978 75.2997 100.039 74.2383 101.351 74.2383C102.663 74.2383 103.725 75.2997 103.725 76.6117C103.725 77.9237 102.66 78.9851 101.351 78.9851Z" fill="#B5B7BF"/>
<path opacity="0.7" d="M2.37339 153.227C1.06445 153.227 0 152.166 0 150.854C0 149.542 1.06136 148.48 2.37339 148.48C3.68542 148.48 4.74678 149.545 4.74678 150.854C4.74678 152.163 3.68542 153.227 2.37339 153.227Z" fill="#B5B7BF"/>
<path opacity="0.7" d="M2.37339 177.973C1.06445 177.973 0 176.912 0 175.6C0 174.291 1.06136 173.227 2.37339 173.227C3.68542 173.227 4.74678 174.288 4.74678 175.6C4.74678 176.909 3.68542 177.973 2.37339 177.973Z" fill="#B5B7BF"/>
<path opacity="0.7" d="M2.37339 202.72C1.06445 202.72 0 201.658 0 200.346C0 199.037 1.06136 197.973 2.37339 197.973C3.68542 197.973 4.74678 199.034 4.74678 200.346C4.74678 201.655 3.68542 202.72 2.37339 202.72Z" fill="#B5B7BF"/>
<path opacity="0.7" d="M27.1169 153.223C25.8079 153.223 24.7466 152.162 24.7466 150.85C24.7466 149.538 25.8079 148.477 27.1169 148.477C28.4289 148.477 29.4903 149.538 29.4903 150.85C29.4903 152.162 28.4289 153.223 27.1169 153.223Z" fill="#B5B7BF"/>
<path opacity="0.7" d="M27.1169 177.969C25.8079 177.969 24.7466 176.908 24.7466 175.596C24.7466 174.287 25.8079 173.223 27.1169 173.223C28.4289 173.223 29.4903 174.284 29.4903 175.596C29.4903 176.905 28.4289 177.969 27.1169 177.969Z" fill="#B5B7BF"/>
<path opacity="0.7" d="M27.1169 202.716C25.8079 202.716 24.7466 201.654 24.7466 200.342C24.7466 199.033 25.8079 197.969 27.1169 197.969C28.4289 197.969 29.4903 199.03 29.4903 200.342C29.4903 201.651 28.4289 202.716 27.1169 202.716Z" fill="#B5B7BF"/>
<path opacity="0.7" d="M27.1169 227.462C25.8079 227.462 24.7466 226.4 24.7466 225.088C24.7466 223.779 25.8079 222.715 27.1169 222.715C28.4289 222.715 29.4903 223.776 29.4903 225.088C29.4903 226.397 28.4289 227.462 27.1169 227.462Z" fill="#B5B7BF"/>
<path opacity="0.7" d="M2.37322 78.989C1.06429 78.989 0.00292969 77.9276 0.00292969 76.6156C0.00292969 75.3036 1.06429 74.2422 2.37322 74.2422C3.68525 74.2422 4.74661 75.3036 4.74661 76.6156C4.74661 77.9276 3.68525 78.989 2.37322 78.989Z" fill="#B5B7BF"/>
<path opacity="0.7" d="M2.37322 103.735C1.06429 103.735 0.00292969 102.674 0.00292969 101.362C0.00292969 100.053 1.06429 98.9883 2.37322 98.9883C3.68525 98.9883 4.74661 100.05 4.74661 101.362C4.74661 102.674 3.68525 103.735 2.37322 103.735Z" fill="#B5B7BF"/>
<path opacity="0.7" d="M2.37322 128.481C1.06429 128.481 0.00292969 127.42 0.00292969 126.108C0.00292969 124.796 1.06429 123.734 2.37322 123.734C3.68525 123.734 4.74661 124.796 4.74661 126.108C4.74661 127.42 3.68525 128.481 2.37322 128.481Z" fill="#B5B7BF"/>
<path opacity="0.7" d="M27.1169 78.9851C25.8079 78.9851 24.7466 77.9237 24.7466 76.6117C24.7466 75.2997 25.8079 74.2383 27.1169 74.2383C28.4289 74.2383 29.4903 75.2997 29.4903 76.6117C29.4903 77.9237 28.4289 78.9851 27.1169 78.9851Z" fill="#B5B7BF"/>
<path opacity="0.7" d="M101.351 103.731C100.042 103.731 98.978 102.67 98.978 101.358C98.978 100.046 100.039 98.9844 101.351 98.9844C102.663 98.9844 103.725 100.046 103.725 101.358C103.725 102.67 102.66 103.731 101.351 103.731Z" fill="#B5B7BF"/>
<path opacity="0.7" d="M101.351 128.477C100.042 128.477 98.978 127.416 98.978 126.104C98.978 124.792 100.042 123.73 101.351 123.73C102.663 123.73 103.725 124.792 103.725 126.104C103.725 127.416 102.66 128.477 101.351 128.477Z" fill="#B5B7BF"/>
<path opacity="0.7" d="M126.098 78.9851C124.789 78.9851 123.725 77.9237 123.725 76.6117C123.725 75.2997 124.786 74.2383 126.098 74.2383C127.407 74.2383 128.471 75.2997 128.471 76.6117C128.471 77.9237 127.41 78.9851 126.098 78.9851Z" fill="#B5B7BF"/>
<path opacity="0.7" d="M126.098 103.731C124.789 103.731 123.725 102.67 123.725 101.358C123.725 100.046 124.786 98.9844 126.098 98.9844C127.407 98.9844 128.471 100.046 128.471 101.358C128.471 102.67 127.41 103.731 126.098 103.731Z" fill="#B5B7BF"/>
<path opacity="0.7" d="M126.098 128.477C124.789 128.477 123.725 127.416 123.725 126.104C123.725 124.792 124.786 123.73 126.098 123.73C127.407 123.73 128.471 124.792 128.471 126.104C128.471 127.416 127.41 128.477 126.098 128.477Z" fill="#B5B7BF"/>
<path opacity="0.7" d="M51.8606 29.4929C50.5517 29.4929 49.4902 28.4315 49.4902 27.1195C49.4902 25.8075 50.5517 24.7461 51.8606 24.7461C53.1726 24.7461 54.234 25.8075 54.234 27.1195C54.234 28.4315 53.1726 29.4929 51.8606 29.4929Z" fill="#B5B7BF"/>
<path opacity="0.7" d="M51.8606 54.239C50.5517 54.239 49.4902 53.1776 49.4902 51.8656C49.4902 50.5535 50.5517 49.4922 51.8606 49.4922C53.1726 49.4922 54.234 50.5535 54.234 51.8656C54.234 53.1776 53.1726 54.239 51.8606 54.239Z" fill="#B5B7BF"/>
<path opacity="0.7" d="M76.6047 4.74683C75.2958 4.74683 74.2344 3.68546 74.2344 2.37343C74.2344 1.06449 75.2958 0 76.6047 0C77.9168 0 78.9781 1.0614 78.9781 2.37343C78.9781 3.68546 77.9168 4.74683 76.6047 4.74683Z" fill="#B5B7BF"/>
<path opacity="0.7" d="M76.6047 29.4929C75.2958 29.4929 74.2344 28.4315 74.2344 27.1195C74.2344 25.8075 75.2958 24.7461 76.6047 24.7461C77.9168 24.7461 78.9781 25.8075 78.9781 27.1195C78.9781 28.4315 77.9168 29.4929 76.6047 29.4929Z" fill="#B5B7BF"/>
<path opacity="0.7" d="M101.351 4.74683C100.042 4.74683 98.978 3.68546 98.978 2.37343C98.978 1.06449 100.039 0 101.351 0C102.663 0 103.725 1.0614 103.725 2.37343C103.725 3.68546 102.66 4.74683 101.351 4.74683Z" fill="#B5B7BF"/>
<path opacity="0.7" d="M2.37224 4.75074C1.06331 4.75074 0.00195312 3.68936 0.00195312 2.37733C0.00195312 1.0684 1.06331 0.00390625 2.37224 0.00390625C3.68427 0.00390625 4.74563 1.0653 4.74563 2.37733C4.74563 3.68627 3.68427 4.75074 2.37224 4.75074Z" fill="#B5B7BF"/>
<path opacity="0.7" d="M2.37322 29.4968C1.06429 29.4968 0.00292969 28.4354 0.00292969 27.1234C0.00292969 25.8114 1.06429 24.75 2.37322 24.75C3.68525 24.75 4.74661 25.8114 4.74661 27.1234C4.74661 28.4354 3.68525 29.4968 2.37322 29.4968Z" fill="#B5B7BF"/>
<path opacity="0.7" d="M2.37322 54.2429C1.06429 54.2429 0.00292969 53.1815 0.00292969 51.8695C0.00292969 50.5575 1.06429 49.4961 2.37322 49.4961C3.68525 49.4961 4.74661 50.5575 4.74661 51.8695C4.74661 53.1815 3.68525 54.2429 2.37322 54.2429Z" fill="#B5B7BF"/>
<path opacity="0.7" d="M27.1169 4.74683C25.8079 4.74683 24.7466 3.68546 24.7466 2.37343C24.7466 1.06449 25.8079 0 27.1169 0C28.4289 0 29.4903 1.0614 29.4903 2.37343C29.4903 3.68546 28.4289 4.74683 27.1169 4.74683Z" fill="#B5B7BF"/>
<path opacity="0.7" d="M27.1169 29.4929C25.8079 29.4929 24.7466 28.4315 24.7466 27.1195C24.7466 25.8075 25.8079 24.7461 27.1169 24.7461C28.4289 24.7461 29.4903 25.8075 29.4903 27.1195C29.4903 28.4315 28.4289 29.4929 27.1169 29.4929Z" fill="#B5B7BF"/>
<path opacity="0.7" d="M27.1169 54.239C25.8079 54.239 24.7466 53.1776 24.7466 51.8656C24.7466 50.5535 25.8079 49.4922 27.1169 49.4922C28.4289 49.4922 29.4903 50.5535 29.4903 51.8656C29.4903 53.1776 28.4289 54.239 27.1169 54.239Z" fill="#B5B7BF"/>
<path opacity="0.7" d="M101.351 29.4929C100.042 29.4929 98.978 28.4315 98.978 27.1195C98.978 25.8075 100.039 24.7461 101.351 24.7461C102.663 24.7461 103.725 25.8075 103.725 27.1195C103.725 28.4315 102.66 29.4929 101.351 29.4929Z" fill="#B5B7BF"/>
<path opacity="0.7" d="M101.351 54.239C100.042 54.239 98.978 53.1776 98.978 51.8656C98.978 50.5535 100.039 49.4922 101.351 49.4922C102.663 49.4922 103.725 50.5535 103.725 51.8656C103.725 53.1776 102.66 54.239 101.351 54.239Z" fill="#B5B7BF"/>
<path opacity="0.7" d="M126.098 4.74683C124.789 4.74683 123.725 3.68546 123.725 2.37343C123.725 1.06449 124.786 0 126.098 0C127.41 0 128.471 1.0614 128.471 2.37343C128.471 3.68546 127.41 4.74683 126.098 4.74683Z" fill="#B5B7BF"/>
<path opacity="0.7" d="M126.098 29.4929C124.789 29.4929 123.725 28.4315 123.725 27.1195C123.725 25.8075 124.786 24.7461 126.098 24.7461C127.41 24.7461 128.471 25.8075 128.471 27.1195C128.471 28.4315 127.41 29.4929 126.098 29.4929Z" fill="#B5B7BF"/>
<path opacity="0.7" d="M126.098 54.239C124.789 54.239 123.725 53.1776 123.725 51.8656C123.725 50.5535 124.786 49.4922 126.098 49.4922C127.41 49.4922 128.471 50.5535 128.471 51.8656C128.471 53.1776 127.41 54.239 126.098 54.239Z" fill="#B5B7BF"/>
</svg>
