<svg width="20" height="20" viewBox="0 0 20 20" fill="none" xmlns="http://www.w3.org/2000/svg">
<circle cx="10" cy="10" r="9.5" stroke="#0E0E0E"/>
<path d="M4.25057 6.23022C5.89752 7.62501 8.78741 10.0789 9.63679 10.844C9.75081 10.9473 9.87311 10.9998 10.0001 10.9998C10.1268 10.9998 10.2489 10.9477 10.3626 10.845C11.2127 10.0791 14.1026 7.62501 15.7496 6.23022C15.8521 6.14355 15.8678 5.9912 15.7847 5.88524C15.5928 5.64039 15.3067 5.5 15.0001 5.5H5.00008C4.69345 5.5 4.4073 5.64039 4.21541 5.88527C4.1324 5.9912 4.14803 6.14355 4.25057 6.23022Z" fill="#0E0E0E"/>
<path d="M15.855 6.9862C15.7664 6.94495 15.6621 6.95934 15.5884 7.02234C13.762 8.57067 11.4309 10.5553 10.6975 11.2162C10.2859 11.5878 9.71458 11.5878 9.30198 11.2157C8.52025 10.5113 5.90256 8.286 4.41161 7.02232C4.33738 6.95932 4.2329 6.94542 4.14501 6.98617C4.05665 7.02721 4 7.1156 4 7.213V13.5001C4 14.0516 4.44848 14.5001 5.00001 14.5001H15C15.5515 14.5001 16 14.0516 16 13.5001V7.213C16 7.1156 15.9434 7.02698 15.855 6.9862Z" fill="#0E0E0E"/>
</svg>
