<svg width="20" height="30" viewBox="0 0 20 30" fill="none" xmlns="http://www.w3.org/2000/svg">
<path d="M10.9798 0H8.67854C3.92296 0 0.197754 3.87555 0.197754 8.82309V21.176C0.197754 26.124 3.92296 30 8.67854 30H10.9798C15.8443 30 19.8019 26.0416 19.8019 21.176V8.82309C19.8019 3.95805 15.8443 0 10.9798 0ZM9.91082 4.62369H10.0889C10.3671 4.62369 10.5936 4.85012 10.5936 5.12846V8.72192C10.5936 9.00027 10.3671 9.22669 10.0889 9.22669H9.91082C9.63255 9.22669 9.40605 9.00027 9.40605 8.72192V5.12846C9.40605 4.85012 9.63255 4.62369 9.91082 4.62369ZM18.6482 21.176C18.6482 25.4054 15.2082 28.8462 10.9798 28.8462H8.67854C4.56985 28.8462 1.35151 25.477 1.35151 21.176V8.82309C1.35151 4.5226 4.56993 1.15376 8.67854 1.15376H9.41586V3.54543C8.74235 3.7565 8.2523 4.38631 8.2523 5.12854V8.72199C8.2523 9.46415 8.74235 10.094 9.41586 10.305V13.2735C9.41586 13.5921 9.67416 13.8504 9.99274 13.8504C10.3113 13.8504 10.5696 13.5921 10.5696 13.2735V10.3092C11.2504 10.1026 11.7474 9.46934 11.7474 8.72199V5.12846C11.7474 4.38112 11.2504 3.74785 10.5696 3.54118V1.15376H10.9798C15.2082 1.15376 18.6482 4.5942 18.6482 8.82309V21.176Z" fill="#41B7A8"/>
</svg>
