<svg width="20" height="20" viewBox="0 0 20 20" fill="none" xmlns="http://www.w3.org/2000/svg">
<path d="M14.656 12.3522C13.8782 11.7322 13.0888 11.3566 12.3205 11.9757L11.8618 12.3498C11.5261 12.6215 10.9021 13.8905 8.48922 11.3037C6.07688 8.72005 7.51242 8.31778 7.84857 8.04851L8.30984 7.67387C9.07409 7.05338 8.78567 6.27225 8.23447 5.46819L7.90183 4.98115C7.34812 4.17896 6.74516 3.65212 5.9789 4.27168L5.56486 4.60886C5.2262 4.83879 4.27956 5.5862 4.04993 7.00608C3.77357 8.70975 4.64535 10.6607 6.64265 12.8013C8.63744 14.9428 10.5905 16.0185 12.4406 15.9998C13.9782 15.9843 14.9067 15.2154 15.1971 14.9358L15.6127 14.5981C16.3769 13.979 15.9021 13.3487 15.1238 12.7273L14.656 12.3522Z" fill="#0E0E0E"/>
<circle cx="10" cy="10" r="9.5" stroke="#0E0E0E"/>
</svg>
