<svg width="202" height="106" viewBox="0 0 202 106" fill="none" xmlns="http://www.w3.org/2000/svg">
<path opacity="0.7" d="M136.16 63.4487C136.16 64.7577 135.099 65.8191 133.787 65.8191C132.475 65.8191 131.413 64.7577 131.413 63.4487C131.413 62.1367 132.475 61.0753 133.787 61.0753C135.099 61.0753 136.16 62.1367 136.16 63.4487Z" fill="#B5B7BF"/>
<path opacity="0.7" d="M158.062 63.4487C158.062 64.7577 157.001 65.8191 155.689 65.8191C154.38 65.8191 153.316 64.7577 153.316 63.4487C153.316 62.1367 154.377 61.0753 155.689 61.0753C156.998 61.0753 158.062 62.1367 158.062 63.4487Z" fill="#B5B7BF"/>
<path opacity="0.7" d="M179.965 63.4487C179.965 64.7577 178.903 65.8191 177.591 65.8191C176.282 65.8191 175.218 64.7577 175.218 63.4487C175.218 62.1367 176.279 61.0753 177.591 61.0753C178.9 61.0753 179.965 62.1367 179.965 63.4487Z" fill="#B5B7BF"/>
<path opacity="0.7" d="M201.867 63.4487C201.867 64.7577 200.806 65.8191 199.494 65.8191C198.185 65.8191 197.12 64.7577 197.12 63.4487C197.12 62.1367 198.182 61.0753 199.494 61.0753C200.802 61.0753 201.867 62.1367 201.867 63.4487Z" fill="#B5B7BF"/>
<path opacity="0.7" d="M136.16 43.3506C136.16 44.6595 135.099 45.7209 133.787 45.7209C132.475 45.7209 131.413 44.6595 131.413 43.3506C131.413 42.0386 132.475 40.9772 133.787 40.9772C135.099 40.9772 136.16 42.0386 136.16 43.3506Z" fill="#B5B7BF"/>
<path opacity="0.7" d="M158.062 43.3506C158.062 44.6595 157.001 45.7209 155.689 45.7209C154.38 45.7209 153.316 44.6595 153.316 43.3506C153.316 42.0386 154.377 40.9772 155.689 40.9772C156.998 40.9772 158.062 42.0386 158.062 43.3506Z" fill="#B5B7BF"/>
<path opacity="0.7" d="M179.965 43.3506C179.965 44.6595 178.903 45.7209 177.591 45.7209C176.282 45.7209 175.218 44.6595 175.218 43.3506C175.218 42.0386 176.279 40.9772 177.591 40.9772C178.9 40.9772 179.965 42.0386 179.965 43.3506Z" fill="#B5B7BF"/>
<path opacity="0.7" d="M201.867 43.3506C201.867 44.6595 200.806 45.7209 199.494 45.7209C198.185 45.7209 197.12 44.6595 197.12 43.3506C197.12 42.0386 198.182 40.9772 199.494 40.9772C200.802 40.9772 201.867 42.0386 201.867 43.3506Z" fill="#B5B7BF"/>
<path opacity="0.7" d="M136.16 23.2523C136.16 24.5613 135.099 25.6257 133.787 25.6257C132.475 25.6257 131.413 24.5613 131.413 23.2523C131.413 21.9403 132.475 20.879 133.787 20.879C135.099 20.879 136.16 21.9434 136.16 23.2523Z" fill="#B5B7BF"/>
<path opacity="0.7" d="M158.062 23.2523C158.062 24.5613 157.001 25.6257 155.689 25.6257C154.38 25.6257 153.316 24.5613 153.316 23.2523C153.316 21.9403 154.377 20.879 155.689 20.879C156.998 20.879 158.062 21.9434 158.062 23.2523Z" fill="#B5B7BF"/>
<path opacity="0.7" d="M179.965 23.2523C179.965 24.5613 178.903 25.6257 177.591 25.6257C176.282 25.6257 175.218 24.5613 175.218 23.2523C175.218 21.9403 176.279 20.879 177.591 20.879C178.9 20.879 179.965 21.9434 179.965 23.2523Z" fill="#B5B7BF"/>
<path opacity="0.7" d="M201.867 23.2523C201.867 24.5613 200.806 25.6257 199.494 25.6257C198.185 25.6257 197.12 24.5613 197.12 23.2523C197.12 21.9403 198.182 20.879 199.494 20.879C200.802 20.879 201.867 21.9434 201.867 23.2523Z" fill="#B5B7BF"/>
<path opacity="0.7" d="M136.16 3.15737C136.16 4.46631 135.099 5.53076 133.787 5.53076C132.475 5.53076 131.413 4.4694 131.413 3.15737C131.413 1.84844 132.475 0.78391 133.787 0.78391C135.099 0.78391 136.16 1.84534 136.16 3.15737Z" fill="#B5B7BF"/>
<path opacity="0.7" d="M158.062 3.15737C158.062 4.46631 157.001 5.53076 155.689 5.53076C154.38 5.53076 153.316 4.4694 153.316 3.15737C153.316 1.84844 154.377 0.78391 155.689 0.78391C156.998 0.78391 158.062 1.84534 158.062 3.15737Z" fill="#B5B7BF"/>
<path opacity="0.7" d="M179.965 3.15737C179.965 4.46631 178.903 5.53076 177.591 5.53076C176.282 5.53076 175.218 4.4694 175.218 3.15737C175.218 1.84844 176.279 0.78391 177.591 0.78391C178.9 0.78391 179.965 1.84534 179.965 3.15737Z" fill="#B5B7BF"/>
<path opacity="0.7" d="M201.867 3.15737C201.867 4.46631 200.806 5.53076 199.494 5.53076C198.185 5.53076 197.12 4.4694 197.12 3.15737C197.12 1.84844 198.182 0.78391 199.494 0.78391C200.802 0.78391 201.867 1.84534 201.867 3.15737Z" fill="#B5B7BF"/>
<path opacity="0.7" d="M70.4535 63.4487C70.4535 64.7577 69.3921 65.8191 68.0801 65.8191C66.7681 65.8191 65.7067 64.7577 65.7067 63.4487C65.7067 62.1367 66.7681 61.0753 68.0801 61.0753C69.3921 61.0753 70.4535 62.1367 70.4535 63.4487Z" fill="#B5B7BF"/>
<path opacity="0.7" d="M92.3558 63.4487C92.3558 64.7577 91.2944 65.8191 89.9824 65.8191C88.6734 65.8191 87.6089 64.7577 87.6089 63.4487C87.6089 62.1367 88.6703 61.0753 89.9824 61.0753C91.2944 61.0753 92.3558 62.1367 92.3558 63.4487Z" fill="#B5B7BF"/>
<path opacity="0.7" d="M114.258 63.4487C114.258 64.7577 113.197 65.8191 111.885 65.8191C110.573 65.8191 109.511 64.7577 109.511 63.4487C109.511 62.1367 110.573 61.0753 111.885 61.0753C113.197 61.0753 114.258 62.1367 114.258 63.4487Z" fill="#B5B7BF"/>
<path opacity="0.7" d="M70.4535 43.3506C70.4535 44.6595 69.3921 45.7209 68.0801 45.7209C66.7681 45.7209 65.7067 44.6595 65.7067 43.3506C65.7067 42.0386 66.7681 40.9772 68.0801 40.9772C69.3921 40.9772 70.4535 42.0386 70.4535 43.3506Z" fill="#B5B7BF"/>
<path opacity="0.7" d="M92.3558 43.3506C92.3558 44.6595 91.2944 45.7209 89.9824 45.7209C88.6734 45.7209 87.6089 44.6595 87.6089 43.3506C87.6089 42.0386 88.6703 40.9772 89.9824 40.9772C91.2944 40.9772 92.3558 42.0386 92.3558 43.3506Z" fill="#B5B7BF"/>
<path opacity="0.7" d="M114.258 43.3506C114.258 44.6595 113.197 45.7209 111.885 45.7209C110.573 45.7209 109.511 44.6595 109.511 43.3506C109.511 42.0386 110.573 40.9772 111.885 40.9772C113.197 40.9772 114.258 42.0386 114.258 43.3506Z" fill="#B5B7BF"/>
<path opacity="0.7" d="M70.4535 23.2523C70.4535 24.5613 69.3921 25.6257 68.0801 25.6257C66.7681 25.6257 65.7067 24.5644 65.7067 23.2523C65.7067 21.9403 66.7681 20.879 68.0801 20.879C69.3921 20.879 70.4535 21.9434 70.4535 23.2523Z" fill="#B5B7BF"/>
<path opacity="0.7" d="M136.16 103.627C136.16 104.936 135.099 106 133.787 106C132.475 106 131.413 104.939 131.413 103.627C131.413 102.315 132.478 101.253 133.787 101.253C135.096 101.253 136.16 102.315 136.16 103.627Z" fill="#B5B7BF"/>
<path opacity="0.7" d="M158.062 103.627C158.062 104.936 157.001 106 155.689 106C154.38 106 153.316 104.939 153.316 103.627C153.316 102.315 154.377 101.253 155.689 101.253C156.998 101.253 158.062 102.315 158.062 103.627Z" fill="#B5B7BF"/>
<path opacity="0.7" d="M179.965 103.627C179.965 104.936 178.903 106 177.591 106C176.282 106 175.218 104.939 175.218 103.627C175.218 102.315 176.279 101.253 177.591 101.253C178.9 101.253 179.965 102.315 179.965 103.627Z" fill="#B5B7BF"/>
<path opacity="0.7" d="M201.867 103.627C201.867 104.936 200.806 106 199.494 106C198.185 106 197.12 104.939 197.12 103.627C197.12 102.315 198.182 101.253 199.494 101.253C200.802 101.253 201.867 102.315 201.867 103.627Z" fill="#B5B7BF"/>
<path opacity="0.7" d="M136.16 83.5284C136.16 84.8373 135.099 85.8987 133.787 85.8987C132.475 85.8987 131.413 84.8373 131.413 83.5284C131.413 82.2164 132.475 81.155 133.787 81.155C135.099 81.155 136.16 82.2164 136.16 83.5284Z" fill="#B5B7BF"/>
<path opacity="0.7" d="M158.062 83.5284C158.062 84.8373 157.001 85.8987 155.689 85.8987C154.38 85.8987 153.316 84.8373 153.316 83.5284C153.316 82.2164 154.377 81.155 155.689 81.155C156.998 81.155 158.062 82.2164 158.062 83.5284Z" fill="#B5B7BF"/>
<path opacity="0.7" d="M179.965 83.5284C179.965 84.8373 178.903 85.8987 177.591 85.8987C176.282 85.8987 175.218 84.8373 175.218 83.5284C175.218 82.2164 176.279 81.155 177.591 81.155C178.9 81.155 179.965 82.2164 179.965 83.5284Z" fill="#B5B7BF"/>
<path opacity="0.7" d="M201.867 83.5284C201.867 84.8373 200.806 85.8987 199.494 85.8987C198.185 85.8987 197.12 84.8373 197.12 83.5284C197.12 82.2164 198.182 81.155 199.494 81.155C200.802 81.155 201.867 82.2164 201.867 83.5284Z" fill="#B5B7BF"/>
<path opacity="0.7" d="M70.4535 103.627C70.4535 104.936 69.3921 105.997 68.0801 105.997C66.7681 105.997 65.7067 104.936 65.7067 103.627C65.7067 102.315 66.7681 101.253 68.0801 101.253C69.3921 101.253 70.4535 102.315 70.4535 103.627Z" fill="#B5B7BF"/>
<path opacity="0.7" d="M92.3558 103.627C92.3558 104.936 91.2944 105.997 89.9824 105.997C88.6734 105.997 87.6089 104.936 87.6089 103.627C87.6089 102.315 88.6703 101.253 89.9824 101.253C91.2944 101.253 92.3558 102.315 92.3558 103.627Z" fill="#B5B7BF"/>
<path opacity="0.7" d="M114.258 103.627C114.258 104.936 113.197 105.997 111.885 105.997C110.573 105.997 109.511 104.936 109.511 103.627C109.511 102.315 110.573 101.253 111.885 101.253C113.197 101.253 114.258 102.315 114.258 103.627Z" fill="#B5B7BF"/>
<path opacity="0.7" d="M70.4535 83.5284C70.4535 84.8373 69.3921 85.8987 68.0801 85.8987C66.7681 85.8987 65.7067 84.8373 65.7067 83.5284C65.7067 82.2164 66.7681 81.155 68.0801 81.155C69.3921 81.155 70.4535 82.2164 70.4535 83.5284Z" fill="#B5B7BF"/>
<path opacity="0.7" d="M92.3558 83.5284C92.3558 84.8373 91.2944 85.8987 89.9824 85.8987C88.6734 85.8987 87.6089 84.8373 87.6089 83.5284C87.6089 82.2164 88.6703 81.155 89.9824 81.155C91.2944 81.155 92.3558 82.2164 92.3558 83.5284Z" fill="#B5B7BF"/>
<path opacity="0.7" d="M114.258 83.5284C114.258 84.8373 113.197 85.8987 111.885 85.8987C110.573 85.8987 109.511 84.8373 109.511 83.5284C109.511 82.2164 110.573 81.155 111.885 81.155C113.197 81.155 114.258 82.2164 114.258 83.5284Z" fill="#B5B7BF"/>
<path opacity="0.7" d="M92.3558 23.2523C92.3558 24.5613 91.2944 25.6257 89.9824 25.6257C88.6703 25.6257 87.6089 24.5644 87.6089 23.2523C87.6089 21.9403 88.6703 20.879 89.9824 20.879C91.2944 20.879 92.3558 21.9434 92.3558 23.2523Z" fill="#B5B7BF"/>
<path opacity="0.7" d="M114.258 23.2523C114.258 24.5613 113.197 25.6257 111.885 25.6257C110.573 25.6257 109.511 24.5613 109.511 23.2523C109.511 21.9403 110.573 20.879 111.885 20.879C113.197 20.879 114.258 21.9434 114.258 23.2523Z" fill="#B5B7BF"/>
<path opacity="0.7" d="M70.4535 3.15737C70.4535 4.46631 69.3921 5.53076 68.0801 5.53076C66.7681 5.53076 65.7067 4.4694 65.7067 3.15737C65.7067 1.84844 66.7681 0.78391 68.0801 0.78391C69.3921 0.78391 70.4535 1.84534 70.4535 3.15737Z" fill="#B5B7BF"/>
<path opacity="0.7" d="M92.3558 3.15737C92.3558 4.46631 91.2944 5.53076 89.9824 5.53076C88.6703 5.53076 87.6089 4.4694 87.6089 3.15737C87.6089 1.84844 88.6703 0.78391 89.9824 0.78391C91.2944 0.78391 92.3558 1.84534 92.3558 3.15737Z" fill="#B5B7BF"/>
<path opacity="0.7" d="M114.258 3.15737C114.258 4.46631 113.197 5.53076 111.885 5.53076C110.573 5.53076 109.511 4.4694 109.511 3.15737C109.511 1.84844 110.573 0.78391 111.885 0.78391C113.197 0.78391 114.258 1.84534 114.258 3.15737Z" fill="#B5B7BF"/>
<path opacity="0.7" d="M4.74683 63.4487C4.74683 64.7577 3.68546 65.8191 2.37343 65.8191C1.06449 65.8191 0 64.7577 0 63.4487C0 62.1367 1.0614 61.0753 2.37343 61.0753C3.68546 61.0753 4.74683 62.1367 4.74683 63.4487Z" fill="#B5B7BF"/>
<path opacity="0.7" d="M26.649 63.4487C26.649 64.7577 25.5876 65.8191 24.2756 65.8191C22.9636 65.8191 21.9022 64.7577 21.9022 63.4487C21.9022 62.1367 22.9636 61.0753 24.2756 61.0753C25.5876 61.0753 26.649 62.1367 26.649 63.4487Z" fill="#B5B7BF"/>
<path opacity="0.7" d="M48.5513 63.4487C48.5513 64.7577 47.4899 65.8191 46.1778 65.8191C44.8658 65.8191 43.8044 64.7577 43.8044 63.4487C43.8044 62.1367 44.8658 61.0753 46.1778 61.0753C47.4899 61.0753 48.5513 62.1367 48.5513 63.4487Z" fill="#B5B7BF"/>
<path opacity="0.7" d="M4.74683 43.3506C4.74683 44.6595 3.68546 45.7209 2.37343 45.7209C1.06449 45.7209 0 44.6595 0 43.3506C0 42.0386 1.0614 40.9772 2.37343 40.9772C3.68546 40.9772 4.74683 42.0386 4.74683 43.3506Z" fill="#B5B7BF"/>
<path opacity="0.7" d="M26.649 43.3506C26.649 44.6595 25.5876 45.7209 24.2756 45.7209C22.9636 45.7209 21.9022 44.6595 21.9022 43.3506C21.9022 42.0386 22.9636 40.9772 24.2756 40.9772C25.5876 40.9772 26.649 42.0386 26.649 43.3506Z" fill="#B5B7BF"/>
<path opacity="0.7" d="M48.5513 43.3506C48.5513 44.6595 47.4899 45.7209 46.1778 45.7209C44.8658 45.7209 43.8044 44.6595 43.8044 43.3506C43.8044 42.0386 44.8658 40.9772 46.1778 40.9772C47.4899 40.9772 48.5513 42.0386 48.5513 43.3506Z" fill="#B5B7BF"/>
<path opacity="0.7" d="M4.74683 23.2523C4.74683 24.5613 3.68546 25.6257 2.37343 25.6257C1.06449 25.6257 0 24.5644 0 23.2523C0 21.9403 1.0614 20.879 2.37343 20.879C3.68546 20.879 4.74683 21.9434 4.74683 23.2523Z" fill="#B5B7BF"/>
<path opacity="0.7" d="M4.74894 103.628C4.74894 104.936 3.68756 105.998 2.37553 105.998C1.0666 105.998 0.00210571 104.936 0.00210571 103.628C0.00210571 102.315 1.0635 101.254 2.37553 101.254C3.68447 101.254 4.74894 102.315 4.74894 103.628Z" fill="#B5B7BF"/>
<path opacity="0.7" d="M26.649 103.627C26.649 104.936 25.5876 105.997 24.2756 105.997C22.9636 105.997 21.9022 104.936 21.9022 103.627C21.9022 102.315 22.9636 101.253 24.2756 101.253C25.5876 101.253 26.649 102.315 26.649 103.627Z" fill="#B5B7BF"/>
<path opacity="0.7" d="M48.5513 103.627C48.5513 104.936 47.4899 105.997 46.1778 105.997C44.8658 105.997 43.8044 104.936 43.8044 103.627C43.8044 102.315 44.8658 101.253 46.1778 101.253C47.4899 101.253 48.5513 102.315 48.5513 103.627Z" fill="#B5B7BF"/>
<path opacity="0.7" d="M4.74683 83.5284C4.74683 84.8373 3.68546 85.8987 2.37343 85.8987C1.06449 85.8987 0 84.8373 0 83.5284C0 82.2164 1.0614 81.155 2.37343 81.155C3.68546 81.155 4.74683 82.2164 4.74683 83.5284Z" fill="#B5B7BF"/>
<path opacity="0.7" d="M26.649 83.5284C26.649 84.8373 25.5876 85.8987 24.2756 85.8987C22.9636 85.8987 21.9022 84.8373 21.9022 83.5284C21.9022 82.2164 22.9636 81.155 24.2756 81.155C25.5876 81.155 26.649 82.2164 26.649 83.5284Z" fill="#B5B7BF"/>
<path opacity="0.7" d="M48.5513 83.5284C48.5513 84.8373 47.4899 85.8987 46.1778 85.8987C44.8658 85.8987 43.8044 84.8373 43.8044 83.5284C43.8044 82.2164 44.8658 81.155 46.1778 81.155C47.4899 81.155 48.5513 82.2164 48.5513 83.5284Z" fill="#B5B7BF"/>
<path opacity="0.7" d="M26.649 23.2523C26.649 24.5613 25.5876 25.6257 24.2756 25.6257C22.9636 25.6257 21.9022 24.5644 21.9022 23.2523C21.9022 21.9403 22.9636 20.879 24.2756 20.879C25.5876 20.879 26.649 21.9434 26.649 23.2523Z" fill="#B5B7BF"/>
<path opacity="0.7" d="M48.5513 23.2523C48.5513 24.5613 47.4899 25.6257 46.1778 25.6257C44.8658 25.6257 43.8044 24.5644 43.8044 23.2523C43.8044 21.9403 44.8658 20.879 46.1778 20.879C47.4899 20.879 48.5513 21.9434 48.5513 23.2523Z" fill="#B5B7BF"/>
<path opacity="0.7" d="M4.74683 3.15737C4.74683 4.46631 3.68546 5.53076 2.37343 5.53076C1.06449 5.53076 0 4.4694 0 3.15737C0 1.84534 1.0614 0.78391 2.37343 0.78391C3.68546 0.78391 4.74683 1.84534 4.74683 3.15737Z" fill="#B5B7BF"/>
<path opacity="0.7" d="M26.649 3.15737C26.649 4.46631 25.5876 5.53076 24.2756 5.53076C22.9636 5.53076 21.9022 4.4694 21.9022 3.15737C21.9022 1.84534 22.9636 0.78391 24.2756 0.78391C25.5876 0.78391 26.649 1.84534 26.649 3.15737Z" fill="#B5B7BF"/>
<path opacity="0.7" d="M48.5513 3.15737C48.5513 4.46631 47.4899 5.53076 46.1778 5.53076C44.8658 5.53076 43.8044 4.4694 43.8044 3.15737C43.8044 1.84534 44.8658 0.78391 46.1778 0.78391C47.4899 0.78391 48.5513 1.84534 48.5513 3.15737Z" fill="#B5B7BF"/>
</svg>
