<svg width="202" height="106" viewBox="0 0 202 106" fill="none" xmlns="http://www.w3.org/2000/svg">
<path opacity="0.7" d="M136.16 62.6648C136.16 63.9737 135.099 65.0352 133.787 65.0352C132.475 65.0352 131.414 63.9737 131.414 62.6648C131.414 61.3528 132.475 60.2914 133.787 60.2914C135.099 60.2914 136.16 61.3528 136.16 62.6648Z" fill="#B5B7BF"/>
<path opacity="0.7" d="M158.062 62.6648C158.062 63.9737 157.001 65.0352 155.689 65.0352C154.38 65.0352 153.315 63.9737 153.315 62.6648C153.315 61.3528 154.377 60.2914 155.689 60.2914C156.998 60.2914 158.062 61.3528 158.062 62.6648Z" fill="#B5B7BF"/>
<path opacity="0.7" d="M179.965 62.6648C179.965 63.9737 178.903 65.0352 177.591 65.0352C176.282 65.0352 175.218 63.9737 175.218 62.6648C175.218 61.3528 176.279 60.2914 177.591 60.2914C178.9 60.2914 179.965 61.3528 179.965 62.6648Z" fill="#B5B7BF"/>
<path opacity="0.7" d="M201.867 62.6648C201.867 63.9737 200.806 65.0352 199.494 65.0352C198.185 65.0352 197.12 63.9737 197.12 62.6648C197.12 61.3528 198.182 60.2914 199.494 60.2914C200.802 60.2914 201.867 61.3528 201.867 62.6648Z" fill="#B5B7BF"/>
<path opacity="0.7" d="M136.16 42.5666C136.16 43.8756 135.099 44.937 133.787 44.937C132.475 44.937 131.414 43.8756 131.414 42.5666C131.414 41.2546 132.475 40.1933 133.787 40.1933C135.099 40.1933 136.16 41.2546 136.16 42.5666Z" fill="#B5B7BF"/>
<path opacity="0.7" d="M158.062 42.5666C158.062 43.8756 157.001 44.937 155.689 44.937C154.38 44.937 153.315 43.8756 153.315 42.5666C153.315 41.2546 154.377 40.1933 155.689 40.1933C156.998 40.1933 158.062 41.2546 158.062 42.5666Z" fill="#B5B7BF"/>
<path opacity="0.7" d="M179.965 42.5666C179.965 43.8756 178.903 44.937 177.591 44.937C176.282 44.937 175.218 43.8756 175.218 42.5666C175.218 41.2546 176.279 40.1933 177.591 40.1933C178.9 40.1933 179.965 41.2546 179.965 42.5666Z" fill="#B5B7BF"/>
<path opacity="0.7" d="M201.867 42.5666C201.867 43.8756 200.806 44.937 199.494 44.937C198.185 44.937 197.12 43.8756 197.12 42.5666C197.12 41.2546 198.182 40.1933 199.494 40.1933C200.802 40.1933 201.867 41.2546 201.867 42.5666Z" fill="#B5B7BF"/>
<path opacity="0.7" d="M136.16 22.4684C136.16 23.7773 135.099 24.8418 133.787 24.8418C132.475 24.8418 131.414 23.7773 131.414 22.4684C131.414 21.1564 132.475 20.095 133.787 20.095C135.099 20.095 136.16 21.1595 136.16 22.4684Z" fill="#B5B7BF"/>
<path opacity="0.7" d="M158.062 22.4684C158.062 23.7773 157.001 24.8418 155.689 24.8418C154.38 24.8418 153.315 23.7773 153.315 22.4684C153.315 21.1564 154.377 20.095 155.689 20.095C156.998 20.095 158.062 21.1595 158.062 22.4684Z" fill="#B5B7BF"/>
<path opacity="0.7" d="M179.965 22.4684C179.965 23.7773 178.903 24.8418 177.591 24.8418C176.282 24.8418 175.218 23.7773 175.218 22.4684C175.218 21.1564 176.279 20.095 177.591 20.095C178.9 20.095 179.965 21.1595 179.965 22.4684Z" fill="#B5B7BF"/>
<path opacity="0.7" d="M201.867 22.4684C201.867 23.7773 200.806 24.8418 199.494 24.8418C198.185 24.8418 197.12 23.7773 197.12 22.4684C197.12 21.1564 198.182 20.095 199.494 20.095C200.802 20.095 201.867 21.1595 201.867 22.4684Z" fill="#B5B7BF"/>
<path opacity="0.7" d="M136.16 2.37338C136.16 3.68231 135.099 4.74677 133.787 4.74677C132.475 4.74677 131.414 3.68541 131.414 2.37338C131.414 1.06444 132.475 -8.67844e-05 133.787 -8.67844e-05C135.099 -8.67844e-05 136.16 1.06135 136.16 2.37338Z" fill="#B5B7BF"/>
<path opacity="0.7" d="M158.062 2.37338C158.062 3.68231 157.001 4.74677 155.689 4.74677C154.38 4.74677 153.315 3.68541 153.315 2.37338C153.315 1.06444 154.377 -8.67844e-05 155.689 -8.67844e-05C156.998 -8.67844e-05 158.062 1.06135 158.062 2.37338Z" fill="#B5B7BF"/>
<path opacity="0.7" d="M179.965 2.37338C179.965 3.68231 178.903 4.74677 177.591 4.74677C176.282 4.74677 175.218 3.68541 175.218 2.37338C175.218 1.06444 176.279 -8.67844e-05 177.591 -8.67844e-05C178.9 -8.67844e-05 179.965 1.06135 179.965 2.37338Z" fill="#B5B7BF"/>
<path opacity="0.7" d="M201.867 2.37338C201.867 3.68231 200.806 4.74677 199.494 4.74677C198.185 4.74677 197.12 3.68541 197.12 2.37338C197.12 1.06444 198.182 -8.67844e-05 199.494 -8.67844e-05C200.802 -8.67844e-05 201.867 1.06135 201.867 2.37338Z" fill="#B5B7BF"/>
<path opacity="0.7" d="M70.4534 62.6648C70.4534 63.9737 69.392 65.0352 68.08 65.0352C66.7679 65.0352 65.7065 63.9737 65.7065 62.6648C65.7065 61.3528 66.7679 60.2914 68.08 60.2914C69.392 60.2914 70.4534 61.3528 70.4534 62.6648Z" fill="#B5B7BF"/>
<path opacity="0.7" d="M92.3557 62.6648C92.3557 63.9737 91.2943 65.0352 89.9823 65.0352C88.6734 65.0352 87.6089 63.9737 87.6089 62.6648C87.6089 61.3528 88.6703 60.2914 89.9823 60.2914C91.2943 60.2914 92.3557 61.3528 92.3557 62.6648Z" fill="#B5B7BF"/>
<path opacity="0.7" d="M114.258 62.6648C114.258 63.9737 113.197 65.0352 111.885 65.0352C110.573 65.0352 109.511 63.9737 109.511 62.6648C109.511 61.3528 110.573 60.2914 111.885 60.2914C113.197 60.2914 114.258 61.3528 114.258 62.6648Z" fill="#B5B7BF"/>
<path opacity="0.7" d="M70.4534 42.5666C70.4534 43.8756 69.392 44.937 68.08 44.937C66.7679 44.937 65.7065 43.8756 65.7065 42.5666C65.7065 41.2546 66.7679 40.1933 68.08 40.1933C69.392 40.1933 70.4534 41.2546 70.4534 42.5666Z" fill="#B5B7BF"/>
<path opacity="0.7" d="M92.3557 42.5666C92.3557 43.8756 91.2943 44.937 89.9823 44.937C88.6734 44.937 87.6089 43.8756 87.6089 42.5666C87.6089 41.2546 88.6703 40.1933 89.9823 40.1933C91.2943 40.1933 92.3557 41.2546 92.3557 42.5666Z" fill="#B5B7BF"/>
<path opacity="0.7" d="M114.258 42.5666C114.258 43.8756 113.197 44.937 111.885 44.937C110.573 44.937 109.511 43.8756 109.511 42.5666C109.511 41.2546 110.573 40.1933 111.885 40.1933C113.197 40.1933 114.258 41.2546 114.258 42.5666Z" fill="#B5B7BF"/>
<path opacity="0.7" d="M70.4534 22.4684C70.4534 23.7773 69.392 24.8418 68.08 24.8418C66.7679 24.8418 65.7065 23.7804 65.7065 22.4684C65.7065 21.1564 66.7679 20.095 68.08 20.095C69.392 20.095 70.4534 21.1595 70.4534 22.4684Z" fill="#B5B7BF"/>
<path opacity="0.7" d="M136.16 102.843C136.16 104.152 135.099 105.216 133.787 105.216C132.475 105.216 131.414 104.155 131.414 102.843C131.414 101.531 132.478 100.469 133.787 100.469C135.096 100.469 136.16 101.531 136.16 102.843Z" fill="#B5B7BF"/>
<path opacity="0.7" d="M158.062 102.843C158.062 104.152 157.001 105.216 155.689 105.216C154.38 105.216 153.315 104.155 153.315 102.843C153.315 101.531 154.377 100.469 155.689 100.469C156.998 100.469 158.062 101.531 158.062 102.843Z" fill="#B5B7BF"/>
<path opacity="0.7" d="M179.965 102.843C179.965 104.152 178.903 105.216 177.591 105.216C176.282 105.216 175.218 104.155 175.218 102.843C175.218 101.531 176.279 100.469 177.591 100.469C178.9 100.469 179.965 101.531 179.965 102.843Z" fill="#B5B7BF"/>
<path opacity="0.7" d="M201.867 102.843C201.867 104.152 200.806 105.216 199.494 105.216C198.185 105.216 197.12 104.155 197.12 102.843C197.12 101.531 198.182 100.469 199.494 100.469C200.802 100.469 201.867 101.531 201.867 102.843Z" fill="#B5B7BF"/>
<path opacity="0.7" d="M136.16 82.7445C136.16 84.0535 135.099 85.1148 133.787 85.1148C132.475 85.1148 131.414 84.0535 131.414 82.7445C131.414 81.4325 132.475 80.3711 133.787 80.3711C135.099 80.3711 136.16 81.4325 136.16 82.7445Z" fill="#B5B7BF"/>
<path opacity="0.7" d="M158.062 82.7445C158.062 84.0535 157.001 85.1148 155.689 85.1148C154.38 85.1148 153.315 84.0535 153.315 82.7445C153.315 81.4325 154.377 80.3711 155.689 80.3711C156.998 80.3711 158.062 81.4325 158.062 82.7445Z" fill="#B5B7BF"/>
<path opacity="0.7" d="M179.965 82.7445C179.965 84.0535 178.903 85.1148 177.591 85.1148C176.282 85.1148 175.218 84.0535 175.218 82.7445C175.218 81.4325 176.279 80.3711 177.591 80.3711C178.9 80.3711 179.965 81.4325 179.965 82.7445Z" fill="#B5B7BF"/>
<path opacity="0.7" d="M201.867 82.7445C201.867 84.0535 200.806 85.1148 199.494 85.1148C198.185 85.1148 197.12 84.0535 197.12 82.7445C197.12 81.4325 198.182 80.3711 199.494 80.3711C200.802 80.3711 201.867 81.4325 201.867 82.7445Z" fill="#B5B7BF"/>
<path opacity="0.7" d="M70.4534 102.843C70.4534 104.152 69.392 105.213 68.08 105.213C66.7679 105.213 65.7065 104.152 65.7065 102.843C65.7065 101.531 66.7679 100.469 68.08 100.469C69.392 100.469 70.4534 101.531 70.4534 102.843Z" fill="#B5B7BF"/>
<path opacity="0.7" d="M92.3557 102.843C92.3557 104.152 91.2943 105.213 89.9823 105.213C88.6734 105.213 87.6089 104.152 87.6089 102.843C87.6089 101.531 88.6703 100.469 89.9823 100.469C91.2943 100.469 92.3557 101.531 92.3557 102.843Z" fill="#B5B7BF"/>
<path opacity="0.7" d="M114.258 102.843C114.258 104.152 113.197 105.213 111.885 105.213C110.573 105.213 109.511 104.152 109.511 102.843C109.511 101.531 110.573 100.469 111.885 100.469C113.197 100.469 114.258 101.531 114.258 102.843Z" fill="#B5B7BF"/>
<path opacity="0.7" d="M70.4534 82.7445C70.4534 84.0535 69.392 85.1148 68.08 85.1148C66.7679 85.1148 65.7065 84.0535 65.7065 82.7445C65.7065 81.4325 66.7679 80.3711 68.08 80.3711C69.392 80.3711 70.4534 81.4325 70.4534 82.7445Z" fill="#B5B7BF"/>
<path opacity="0.7" d="M92.3557 82.7445C92.3557 84.0535 91.2943 85.1148 89.9823 85.1148C88.6734 85.1148 87.6089 84.0535 87.6089 82.7445C87.6089 81.4325 88.6703 80.3711 89.9823 80.3711C91.2943 80.3711 92.3557 81.4325 92.3557 82.7445Z" fill="#B5B7BF"/>
<path opacity="0.7" d="M114.258 82.7445C114.258 84.0535 113.197 85.1148 111.885 85.1148C110.573 85.1148 109.511 84.0535 109.511 82.7445C109.511 81.4325 110.573 80.3711 111.885 80.3711C113.197 80.3711 114.258 81.4325 114.258 82.7445Z" fill="#B5B7BF"/>
<path opacity="0.7" d="M92.3557 22.4684C92.3557 23.7773 91.2943 24.8418 89.9823 24.8418C88.6703 24.8418 87.6089 23.7804 87.6089 22.4684C87.6089 21.1564 88.6703 20.095 89.9823 20.095C91.2943 20.095 92.3557 21.1595 92.3557 22.4684Z" fill="#B5B7BF"/>
<path opacity="0.7" d="M114.258 22.4684C114.258 23.7773 113.197 24.8418 111.885 24.8418C110.573 24.8418 109.511 23.7773 109.511 22.4684C109.511 21.1564 110.573 20.095 111.885 20.095C113.197 20.095 114.258 21.1595 114.258 22.4684Z" fill="#B5B7BF"/>
<path opacity="0.7" d="M70.4534 2.37338C70.4534 3.68231 69.392 4.74677 68.08 4.74677C66.7679 4.74677 65.7065 3.68541 65.7065 2.37338C65.7065 1.06444 66.7679 -8.67844e-05 68.08 -8.67844e-05C69.392 -8.67844e-05 70.4534 1.06135 70.4534 2.37338Z" fill="#B5B7BF"/>
<path opacity="0.7" d="M92.3557 2.37338C92.3557 3.68231 91.2943 4.74677 89.9823 4.74677C88.6703 4.74677 87.6089 3.68541 87.6089 2.37338C87.6089 1.06444 88.6703 -8.67844e-05 89.9823 -8.67844e-05C91.2943 -8.67844e-05 92.3557 1.06135 92.3557 2.37338Z" fill="#B5B7BF"/>
<path opacity="0.7" d="M114.258 2.37338C114.258 3.68231 113.197 4.74677 111.885 4.74677C110.573 4.74677 109.511 3.68541 109.511 2.37338C109.511 1.06444 110.573 -8.67844e-05 111.885 -8.67844e-05C113.197 -8.67844e-05 114.258 1.06135 114.258 2.37338Z" fill="#B5B7BF"/>
<path opacity="0.7" d="M4.74683 62.6648C4.74683 63.9737 3.68546 65.0352 2.37343 65.0352C1.06449 65.0352 0 63.9737 0 62.6648C0 61.3528 1.0614 60.2914 2.37343 60.2914C3.68546 60.2914 4.74683 61.3528 4.74683 62.6648Z" fill="#B5B7BF"/>
<path opacity="0.7" d="M26.6492 62.6648C26.6492 63.9737 25.5878 65.0352 24.2758 65.0352C22.9637 65.0352 21.9023 63.9737 21.9023 62.6648C21.9023 61.3528 22.9637 60.2914 24.2758 60.2914C25.5878 60.2914 26.6492 61.3528 26.6492 62.6648Z" fill="#B5B7BF"/>
<path opacity="0.7" d="M48.5515 62.6648C48.5515 63.9737 47.4901 65.0352 46.1781 65.0352C44.866 65.0352 43.8047 63.9737 43.8047 62.6648C43.8047 61.3528 44.866 60.2914 46.1781 60.2914C47.4901 60.2914 48.5515 61.3528 48.5515 62.6648Z" fill="#B5B7BF"/>
<path opacity="0.7" d="M4.74683 42.5666C4.74683 43.8756 3.68546 44.937 2.37343 44.937C1.06449 44.937 0 43.8756 0 42.5666C0 41.2546 1.0614 40.1933 2.37343 40.1933C3.68546 40.1933 4.74683 41.2546 4.74683 42.5666Z" fill="#B5B7BF"/>
<path opacity="0.7" d="M26.6492 42.5666C26.6492 43.8756 25.5878 44.937 24.2758 44.937C22.9637 44.937 21.9023 43.8756 21.9023 42.5666C21.9023 41.2546 22.9637 40.1933 24.2758 40.1933C25.5878 40.1933 26.6492 41.2546 26.6492 42.5666Z" fill="#B5B7BF"/>
<path opacity="0.7" d="M48.5515 42.5666C48.5515 43.8756 47.4901 44.937 46.1781 44.937C44.866 44.937 43.8047 43.8756 43.8047 42.5666C43.8047 41.2546 44.866 40.1933 46.1781 40.1933C47.4901 40.1933 48.5515 41.2546 48.5515 42.5666Z" fill="#B5B7BF"/>
<path opacity="0.7" d="M4.74683 22.4684C4.74683 23.7773 3.68546 24.8418 2.37343 24.8418C1.06449 24.8418 0 23.7804 0 22.4684C0 21.1564 1.0614 20.095 2.37343 20.095C3.68546 20.095 4.74683 21.1595 4.74683 22.4684Z" fill="#B5B7BF"/>
<path opacity="0.7" d="M4.74879 102.844C4.74879 104.153 3.68741 105.214 2.37538 105.214C1.06644 105.214 0.00195313 104.153 0.00195313 102.844C0.00195313 101.532 1.06335 100.47 2.37538 100.47C3.68431 100.47 4.74879 101.532 4.74879 102.844Z" fill="#B5B7BF"/>
<path opacity="0.7" d="M26.6492 102.843C26.6492 104.152 25.5878 105.213 24.2758 105.213C22.9637 105.213 21.9023 104.152 21.9023 102.843C21.9023 101.531 22.9637 100.469 24.2758 100.469C25.5878 100.469 26.6492 101.531 26.6492 102.843Z" fill="#B5B7BF"/>
<path opacity="0.7" d="M48.5515 102.843C48.5515 104.152 47.4901 105.213 46.1781 105.213C44.866 105.213 43.8047 104.152 43.8047 102.843C43.8047 101.531 44.866 100.469 46.1781 100.469C47.4901 100.469 48.5515 101.531 48.5515 102.843Z" fill="#B5B7BF"/>
<path opacity="0.7" d="M4.74683 82.7445C4.74683 84.0535 3.68546 85.1148 2.37343 85.1148C1.06449 85.1148 0 84.0535 0 82.7445C0 81.4325 1.0614 80.3711 2.37343 80.3711C3.68546 80.3711 4.74683 81.4325 4.74683 82.7445Z" fill="#B5B7BF"/>
<path opacity="0.7" d="M26.6492 82.7445C26.6492 84.0535 25.5878 85.1148 24.2758 85.1148C22.9637 85.1148 21.9023 84.0535 21.9023 82.7445C21.9023 81.4325 22.9637 80.3711 24.2758 80.3711C25.5878 80.3711 26.6492 81.4325 26.6492 82.7445Z" fill="#B5B7BF"/>
<path opacity="0.7" d="M48.5515 82.7445C48.5515 84.0535 47.4901 85.1148 46.1781 85.1148C44.866 85.1148 43.8047 84.0535 43.8047 82.7445C43.8047 81.4325 44.866 80.3711 46.1781 80.3711C47.4901 80.3711 48.5515 81.4325 48.5515 82.7445Z" fill="#B5B7BF"/>
<path opacity="0.7" d="M26.6492 22.4684C26.6492 23.7773 25.5878 24.8418 24.2758 24.8418C22.9637 24.8418 21.9023 23.7804 21.9023 22.4684C21.9023 21.1564 22.9637 20.095 24.2758 20.095C25.5878 20.095 26.6492 21.1595 26.6492 22.4684Z" fill="#B5B7BF"/>
<path opacity="0.7" d="M48.5515 22.4684C48.5515 23.7773 47.4901 24.8418 46.1781 24.8418C44.866 24.8418 43.8047 23.7804 43.8047 22.4684C43.8047 21.1564 44.866 20.095 46.1781 20.095C47.4901 20.095 48.5515 21.1595 48.5515 22.4684Z" fill="#B5B7BF"/>
<path opacity="0.7" d="M4.74683 2.37338C4.74683 3.68231 3.68546 4.74677 2.37343 4.74677C1.06449 4.74677 0 3.68541 0 2.37338C0 1.06135 1.0614 -8.67844e-05 2.37343 -8.67844e-05C3.68546 -8.67844e-05 4.74683 1.06135 4.74683 2.37338Z" fill="#B5B7BF"/>
<path opacity="0.7" d="M26.6492 2.37338C26.6492 3.68231 25.5878 4.74677 24.2758 4.74677C22.9637 4.74677 21.9023 3.68541 21.9023 2.37338C21.9023 1.06135 22.9637 -8.67844e-05 24.2758 -8.67844e-05C25.5878 -8.67844e-05 26.6492 1.06135 26.6492 2.37338Z" fill="#B5B7BF"/>
<path opacity="0.7" d="M48.5515 2.37338C48.5515 3.68231 47.4901 4.74677 46.1781 4.74677C44.866 4.74677 43.8047 3.68541 43.8047 2.37338C43.8047 1.06135 44.866 -8.67844e-05 46.1781 -8.67844e-05C47.4901 -8.67844e-05 48.5515 1.06135 48.5515 2.37338Z" fill="#B5B7BF"/>
</svg>
